<svg xmlns="http://www.w3.org/2000/svg" width="13.536" height="10.485">
    <g data-name="Path 67" style="fill:#464545">
        <path d="m-2717.187-2088.71.032-.361.042-.48.014-.169.162-.049c2.128-.645 4.067-1.578 5.762-2.774.676-.477 1.322-1 1.946-1.507l.434-.351c.296-.24.451-.46.486-.69.038-.263-.098-.51-.457-.824a25.352 25.352 0 0 0-2.908-2.219 20.5 20.5 0 0 0-5-2.354l-.175-.055v-.182l-.003-.559-.002-.311.305.066c1.472.32 4.675 2.086 5.66 2.737a25.563 25.563 0 0 1 2.919 2.253c.329.296.762.764.736 1.42-.016.48-.268.921-.77 1.345a42.038 42.038 0 0 1-2.015 1.615c-2.106 1.56-4.273 2.625-6.819 3.35l-.349.1z" style="stroke:none" transform="rotate(90 -2402.919 314.549)"/>
        <path d="M-2716.906-2089.05a20.403 20.403 0 0 0 6.738-3.31 41.668 41.668 0 0 0 2.002-1.605c.386-.325.667-.699.683-1.164.019-.487-.266-.874-.654-1.223a25.185 25.185 0 0 0-2.89-2.231c-1.056-.699-4.188-2.4-5.575-2.702l.002.559a20.64 20.64 0 0 1 5.062 2.382 25.66 25.66 0 0 1 2.936 2.241c.337.295.602.624.54 1.049-.051.34-.285.612-.576.848-.785.632-1.555 1.277-2.393 1.867-1.716 1.21-3.662 2.151-5.833 2.81l-.042.48m-.562.68.135-1.54.324-.1c2.102-.637 4.017-1.558 5.69-2.738.67-.472 1.312-.993 1.933-1.497l.434-.352c.245-.197.37-.367.396-.532.017-.118-.014-.283-.375-.599a25.115 25.115 0 0 0-2.88-2.197 20.257 20.257 0 0 0-4.939-2.326l-.348-.11-.007-1.546.61.133c1.5.326 4.747 2.114 5.744 2.773a25.79 25.79 0 0 1 2.947 2.275c.367.33.85.855.82 1.615-.018.555-.3 1.055-.86 1.527a42.23 42.23 0 0 1-2.026 1.625c-2.131 1.58-4.323 2.656-6.9 3.39l-.698.198z" style="fill:#464545;stroke:none" transform="rotate(90 -2402.919 314.549)"/>
    </g>
</svg>
