<svg xmlns="http://www.w3.org/2000/svg" xmlns:xlink="http://www.w3.org/1999/xlink" width="20" height="13" viewBox="0 0 20 20">
  <defs>
    <clipPath id="clip-Prancheta_5">
      <rect width="20" height="25"/>
    </clipPath>
  </defs>
  <g id="Prancheta_5" data-name="Prancheta – 5" clip-path="url(#clip-Prancheta_5)">
    <g id="Component_8_1" data-name="Component 8 – 1" transform="translate(-96.939 -3.574)">
      <g id="Group_91" data-name="Group 91" transform="translate(97.939 4.574)">
        <g id="Path_67" data-name="Path 67" transform="translate(0 0)">
          <path id="Caminho_1" data-name="Caminho 1" d="M.285,20.839l0-.922.006-.881V18.5l.516-.163a31.819,31.819,0,0,0,7.784-3.665,39.414,39.414,0,0,0,4.537-3.461c.584-.51.632-.783.6-.984a1.529,1.529,0,0,0-.638-.866l-.682-.549c-.979-.795-1.99-1.616-3.045-2.36A31.231,31.231,0,0,0,.4,2.133l-.48-.148-.044-.5L-.186.733-.281-.34l1.038.3A32.612,32.612,0,0,1,11.6,5.282c1.145.848,2.206,1.729,3.188,2.553a3.235,3.235,0,0,1,1.334,2.372,3.233,3.233,0,0,1-1.272,2.5,40.772,40.772,0,0,1-4.635,3.576c-1.566,1.038-6.666,3.846-9.024,4.356l-.9.2Z" transform="translate(1.111 1.348)" fill="#e8e8e8"/>
          <path id="Caminho_2" data-name="Caminho 2" d="M1.1,1.336l.065.756a31.8,31.8,0,0,1,9.178,4.418c1.32.931,2.529,1.945,3.766,2.939a2.213,2.213,0,0,1,.9,1.334,1.869,1.869,0,0,1-.848,1.649,40.329,40.329,0,0,1-4.62,3.529A32.471,32.471,0,0,1,1.586,19.7l-.006.881c2.183-.474,7.111-3.152,8.772-4.252A39.707,39.707,0,0,0,14.9,12.824,2.508,2.508,0,0,0,15.929,10.9a2.571,2.571,0,0,0-1.076-1.83c-1.02-.86-2.058-1.717-3.149-2.526a32.106,32.106,0,0,0-10.6-5.2M-.561-.68l2.07.593A33.333,33.333,0,0,1,12.587,5.355c1.159.86,2.233,1.75,3.223,2.58a4.006,4.006,0,0,1,1.6,2.918,4.018,4.018,0,0,1-1.521,3.078,41.331,41.331,0,0,1-4.721,3.641C9.521,18.663,4.379,21.5,1.894,22.035l-1.8.391.015-3.808,1.032-.326a31.166,31.166,0,0,0,7.6-3.576,38.979,38.979,0,0,0,4.451-3.4,2.017,2.017,0,0,0,.338-.356,1.539,1.539,0,0,0-.353-.359l-.682-.552c-1.011-.821-1.969-1.6-3-2.328A30.49,30.49,0,0,0,.738,3.513l-.958-.3Z" transform="translate(0.561 0.68)" fill="#e8e8e8"/>
        </g>
      </g>
    </g>
  </g>
</svg>
