<svg xmlns="http://www.w3.org/2000/svg" width="99.467" height="99.467" viewBox="0 0 99.467 99.467"><g transform="translate(-663.542 -514.048)"><g transform="translate(37.582 288.484)"><path class="a" d="M675.693,225.564A49.734,49.734,0,1,0,725.427,275.3,49.734,49.734,0,0,0,675.693,225.564Zm.267,90a40,40,0,1,1,40-40A40,40,0,0,1,675.96,315.564Z"/><path class="a" d="M697.374,256.719l-2.828-2.829a3,3,0,0,0-4.243,0L675.83,268.363l-14.2-14.2a3,3,0,0,0-4.243,0l-2.828,2.828a3,3,0,0,0,0,4.243l14.2,14.2-14.2,14.2a3,3,0,0,0,0,4.242l2.828,2.829a3,3,0,0,0,4.243,0l14.2-14.2L690.3,296.979a3,3,0,0,0,4.243,0l2.828-2.829a3,3,0,0,0,0-4.243L682.9,275.434l14.473-14.473A3,3,0,0,0,697.374,256.719Z"/></g></g></svg>