<svg xmlns="http://www.w3.org/2000/svg" xmlns:xlink="http://www.w3.org/1999/xlink" width="40" height="27" viewBox="0 0 40 27">
  <defs>
    <linearGradient id="linear-gradient" x1="0.239" y1="4.516" x2="0.762" y2="-0.811" gradientUnits="objectBoundingBox">
      <stop offset="0" stop-color="#e8e8e8"/>
      <stop offset="0.275" stop-color="#80807f"/>
      <stop offset="0.544" stop-color="#8c8b8b"/>
      <stop offset="0.77" stop-color="#d3d3d2"/>
      <stop offset="1" stop-color="#464545"/>
    </linearGradient>
    <linearGradient id="linear-gradient-4" x1="0.239" y1="3.166" x2="0.762" y2="-2.162" xlink:href="#linear-gradient"/>
    <linearGradient id="linear-gradient-7" x1="0.239" y1="1.815" x2="0.762" y2="-3.514" xlink:href="#linear-gradient"/>
    <clipPath id="clip-Prancheta_6">
      <rect width="40" height="27"/>
    </clipPath>
  </defs>
  <g id="Prancheta_6" data-name="Prancheta – 6" clip-path="url(#clip-Prancheta_6)">
    <g id="Component_19_2" data-name="Component 19 – 2" transform="translate(-323.889 -24)">
      <g id="Group_171" data-name="Group 171" transform="translate(325.889 26)">
        <g id="Group_198" data-name="Group 198">
          <g id="Group_195" data-name="Group 195" transform="translate(0 0)">
            <path id="Path_393" data-name="Path 393" d="M1331.141,177.423h-13.709l1.025-3.247a3.807,3.807,0,0,1,3.673-2.733h30.542l-.982,3.29a3.845,3.845,0,0,1-3.673,2.69h-16.87Z" transform="translate(-1317.432 -171.443)" fill="none" stroke="#000" stroke-miterlimit="10" stroke-width="0.5"/>
            <path id="Path_394" data-name="Path 394" d="M1331.141,177.423h-13.709l1.025-3.247a3.807,3.807,0,0,1,3.673-2.733h30.542l-.982,3.29a3.845,3.845,0,0,1-3.673,2.69h-16.87Z" transform="translate(-1317.432 -171.443)" fill="none" stroke="#000" stroke-miterlimit="10" stroke-width="0.5"/>
            <path id="Path_395" data-name="Path 395" d="M1331.141,177.423h-13.709l1.025-3.247a3.807,3.807,0,0,1,3.673-2.733h30.542l-.982,3.29a3.845,3.845,0,0,1-3.673,2.69h-16.87Z" transform="translate(-1317.432 -171.443)" fill="none" stroke="#000" stroke-miterlimit="10" stroke-width="0.5"/>
          </g>
          <g id="Group_196" data-name="Group 196" transform="translate(0 8.077)">
            <path id="Path_396" data-name="Path 396" d="M1331.141,185.958h-13.709l1.025-3.247a3.807,3.807,0,0,1,3.673-2.733h30.542l-.982,3.29a3.845,3.845,0,0,1-3.673,2.69h-16.87Z" transform="translate(-1317.432 -179.978)" fill="none" stroke="#000" stroke-miterlimit="10" stroke-width="0.5"/>
            <path id="Path_397" data-name="Path 397" d="M1331.141,185.958h-13.709l1.025-3.247a3.807,3.807,0,0,1,3.673-2.733h30.542l-.982,3.29a3.845,3.845,0,0,1-3.673,2.69h-16.87Z" transform="translate(-1317.432 -179.978)" fill="none" stroke="#000" stroke-miterlimit="10" stroke-width="0.5"/>
            <path id="Path_398" data-name="Path 398" d="M1331.141,185.958h-13.709l1.025-3.247a3.807,3.807,0,0,1,3.673-2.733h30.542l-.982,3.29a3.845,3.845,0,0,1-3.673,2.69h-16.87Z" transform="translate(-1317.432 -179.978)" fill="none" stroke="#000" stroke-miterlimit="10" stroke-width="0.5"/>
          </g>
          <g id="Group_197" data-name="Group 197" transform="translate(0 16.164)">
            <path id="Path_399" data-name="Path 399" d="M1331.141,194.488h-13.709l1.025-3.247a3.805,3.805,0,0,1,3.673-2.724h30.542l-.982,3.288a3.842,3.842,0,0,1-3.673,2.69h-16.87Z" transform="translate(-1317.432 -188.518)" fill="none" stroke="#000" stroke-miterlimit="10" stroke-width="0.5"/>
            <path id="Path_400" data-name="Path 400" d="M1331.141,194.488h-13.709l1.025-3.247a3.805,3.805,0,0,1,3.673-2.724h30.542l-.982,3.288a3.842,3.842,0,0,1-3.673,2.69h-16.87Z" transform="translate(-1317.432 -188.518)" fill="none" stroke="#000" stroke-miterlimit="10" stroke-width="0.5"/>
            <path id="Path_401" data-name="Path 401" d="M1331.141,194.488h-13.709l1.025-3.247a3.805,3.805,0,0,1,3.673-2.724h30.542l-.982,3.288a3.842,3.842,0,0,1-3.673,2.69h-16.87Z" transform="translate(-1317.432 -188.518)" fill="none" stroke="#000" stroke-miterlimit="10" stroke-width="0.5"/>
          </g>
        </g>
        <g id="Group_244" data-name="Group 244">
          <g id="Group_191" data-name="Group 191" transform="translate(0 0)">
            <path id="Path_384" data-name="Path 384" d="M1331.141,177.423h-13.709l1.025-3.247a3.807,3.807,0,0,1,3.673-2.733h30.542l-.982,3.29a3.845,3.845,0,0,1-3.673,2.69h-16.87Z" transform="translate(-1317.432 -171.443)" stroke="#000" stroke-width="0.5" fill="url(#linear-gradient)"/>
            <path id="Path_385" data-name="Path 385" d="M1331.141,177.423h-13.709l1.025-3.247a3.807,3.807,0,0,1,3.673-2.733h30.542l-.982,3.29a3.845,3.845,0,0,1-3.673,2.69h-16.87Z" transform="translate(-1317.432 -171.443)" stroke="#000" stroke-width="0.5" fill="url(#linear-gradient)"/>
            <path id="Path_386" data-name="Path 386" d="M1331.141,177.423h-13.709l1.025-3.247a3.807,3.807,0,0,1,3.673-2.733h30.542l-.982,3.29a3.845,3.845,0,0,1-3.673,2.69h-16.87Z" transform="translate(-1317.432 -171.443)" stroke="#000" stroke-width="0.5" fill="url(#linear-gradient)"/>
          </g>
          <g id="Group_192" data-name="Group 192" transform="translate(0 8.077)">
            <path id="Path_387" data-name="Path 387" d="M1331.141,185.958h-13.709l1.025-3.247a3.807,3.807,0,0,1,3.673-2.733h30.542l-.982,3.29a3.845,3.845,0,0,1-3.673,2.69h-16.87Z" transform="translate(-1317.432 -179.978)" stroke="#000" stroke-width="0.5" fill="url(#linear-gradient-4)"/>
            <path id="Path_388" data-name="Path 388" d="M1331.141,185.958h-13.709l1.025-3.247a3.807,3.807,0,0,1,3.673-2.733h30.542l-.982,3.29a3.845,3.845,0,0,1-3.673,2.69h-16.87Z" transform="translate(-1317.432 -179.978)" stroke="#000" stroke-width="0.5" fill="url(#linear-gradient-4)"/>
            <path id="Path_389" data-name="Path 389" d="M1331.141,185.958h-13.709l1.025-3.247a3.807,3.807,0,0,1,3.673-2.733h30.542l-.982,3.29a3.845,3.845,0,0,1-3.673,2.69h-16.87Z" transform="translate(-1317.432 -179.978)" stroke="#000" stroke-width="0.5" fill="url(#linear-gradient-4)"/>
          </g>
          <g id="Group_193" data-name="Group 193" transform="translate(0 16.164)">
            <path id="Path_390" data-name="Path 390" d="M1331.141,194.488h-13.709l1.025-3.247a3.805,3.805,0,0,1,3.673-2.724h30.542l-.982,3.288a3.842,3.842,0,0,1-3.673,2.69h-16.87Z" transform="translate(-1317.432 -188.518)" stroke="#000" stroke-width="0.5" fill="url(#linear-gradient-7)"/>
            <path id="Path_391" data-name="Path 391" d="M1331.141,194.488h-13.709l1.025-3.247a3.805,3.805,0,0,1,3.673-2.724h30.542l-.982,3.288a3.842,3.842,0,0,1-3.673,2.69h-16.87Z" transform="translate(-1317.432 -188.518)" stroke="#000" stroke-width="0.5" fill="url(#linear-gradient-7)"/>
            <path id="Path_392" data-name="Path 392" d="M1331.141,194.488h-13.709l1.025-3.247a3.805,3.805,0,0,1,3.673-2.724h30.542l-.982,3.288a3.842,3.842,0,0,1-3.673,2.69h-16.87Z" transform="translate(-1317.432 -188.518)" stroke="#000" stroke-width="0.5" fill="url(#linear-gradient-7)"/>
          </g>
        </g>
      </g>
    </g>
  </g>
</svg>
