<svg xmlns="http://www.w3.org/2000/svg" viewBox="0 0 10 10">
    <path data-name="Icon simple-instagram" d="M5 0C3.642 0 3.472.006 2.939.03a3.687 3.687 0 0 0-1.214.233 2.449 2.449 0 0 0-.886.576 2.44 2.44 0 0 0-.577.886A3.676 3.676 0 0 0 .03 2.939C0 3.472 0 3.642 0 5s.006 1.528.03 2.061a3.689 3.689 0 0 0 .232 1.214 2.452 2.452 0 0 0 .577.886 2.445 2.445 0 0 0 .886.577 3.691 3.691 0 0 0 1.214.233C3.472 10 3.642 10 5 10s1.528-.006 2.061-.03a3.7 3.7 0 0 0 1.214-.233 2.555 2.555 0 0 0 1.463-1.462 3.689 3.689 0 0 0 .232-1.214c.025-.533.03-.7.03-2.061s-.006-1.528-.03-2.061a3.7 3.7 0 0 0-.233-1.214 2.454 2.454 0 0 0-.576-.886 2.436 2.436 0 0 0-.886-.576A3.678 3.678 0 0 0 7.061.03C6.528.005 6.358 0 5 0zm0 .9c1.335 0 1.494.007 2.021.03a2.755 2.755 0 0 1 .928.173 1.645 1.645 0 0 1 .949.949 2.761 2.761 0 0 1 .172.928c.024.528.029.686.029 2.021s-.006 1.494-.031 2.021a2.814 2.814 0 0 1-.175.928 1.588 1.588 0 0 1-.375.576 1.56 1.56 0 0 1-.575.373 2.781 2.781 0 0 1-.931.172c-.531.024-.687.029-2.025.029s-1.494-.006-2.025-.031a2.835 2.835 0 0 1-.932-.175 1.548 1.548 0 0 1-.575-.375 1.518 1.518 0 0 1-.375-.575 2.838 2.838 0 0 1-.175-.931C.888 6.487.881 6.325.881 4.994S.888 3.5.907 2.968a2.834 2.834 0 0 1 .175-.931 1.482 1.482 0 0 1 .375-.575 1.479 1.479 0 0 1 .575-.374 2.767 2.767 0 0 1 .925-.175c.531-.019.687-.025 2.024-.025L5 .9zm0 1.533A2.568 2.568 0 1 0 7.567 5 2.567 2.567 0 0 0 5 2.433zm0 4.234A1.667 1.667 0 1 1 6.667 5 1.666 1.666 0 0 1 5 6.667zm3.269-4.336a.6.6 0 1 1-.6-.6.6.6 0 0 1 .6.6z" style="fill:#fff"/>
</svg>
