<svg xmlns="http://www.w3.org/2000/svg" viewBox="0 0 10 10">
    <path data-name="Icon awesome-linkedin" d="M9.286 2.25H.712A.717.717 0 0 0 0 2.971v8.558a.717.717 0 0 0 .712.721h8.574a.719.719 0 0 0 .714-.721V2.971a.719.719 0 0 0-.714-.721zm-6.264 8.571H1.54V6.049h1.485v4.772zM2.281 5.4a.859.859 0 1 1 .859-.859.86.86 0 0 1-.859.859zm6.3 5.424H7.1V8.5c0-.554-.011-1.266-.77-1.266s-.891.6-.891 1.225v2.362H3.953V6.049h1.422V6.7H5.4a1.561 1.561 0 0 1 1.4-.77c1.5 0 1.779.989 1.779 2.275z" transform="translate(0 -2.25)" style="fill:#fff"/>
</svg>
