<svg xmlns="http://www.w3.org/2000/svg" xmlns:xlink="http://www.w3.org/1999/xlink" width="511" height="217" viewBox="0 0 511 217">
  <defs>
    <linearGradient id="linear-gradient" x1="0.168" y1="0.849" x2="0.701" y2="0.007" gradientUnits="objectBoundingBox">
      <stop offset="0" stop-color="#e8e8e8"/>
      <stop offset="0.275" stop-color="#80807f"/>
      <stop offset="0.544" stop-color="#8c8b8b"/>
      <stop offset="0.77" stop-color="#d3d3d2"/>
      <stop offset="1" stop-color="#464545"/>
    </linearGradient>
    <linearGradient id="linear-gradient-2" x1="-0.02" y1="0.585" x2="1.031" y2="0.425" gradientUnits="objectBoundingBox">
      <stop offset="0" stop-color="#6c6a6c"/>
      <stop offset="0" stop-color="#8f8e8e"/>
      <stop offset="0.275" stop-color="#565556"/>
      <stop offset="0.546" stop-color="#6c6a6c"/>
      <stop offset="0.777" stop-color="#7c7b7c"/>
      <stop offset="1" stop-color="#434343"/>
    </linearGradient>
    <linearGradient id="linear-gradient-3" x1="0.023" y1="0.534" x2="1.03" y2="0.39" xlink:href="#linear-gradient-2"/>
    <linearGradient id="linear-gradient-4" x1="-0.019" y1="0.582" x2="1.019" y2="0.418" xlink:href="#linear-gradient-2"/>
    <linearGradient id="linear-gradient-5" x1="-0.029" y1="0.585" x2="1.03" y2="0.419" xlink:href="#linear-gradient-2"/>
    <linearGradient id="linear-gradient-6" x1="-0.01" y1="0.546" x2="1.037" y2="0.416" xlink:href="#linear-gradient-2"/>
    <linearGradient id="linear-gradient-7" x1="-0.027" y1="0.593" x2="1.027" y2="0.415" xlink:href="#linear-gradient-2"/>
    <linearGradient id="linear-gradient-8" x1="-0.027" y1="0.589" x2="1.027" y2="0.412" xlink:href="#linear-gradient-2"/>
    <linearGradient id="linear-gradient-9" x1="-0.034" y1="0.573" x2="1.034" y2="0.427" xlink:href="#linear-gradient-2"/>
    <linearGradient id="linear-gradient-10" x1="0.023" y1="0.533" x2="1.03" y2="0.389" xlink:href="#linear-gradient-2"/>
    <linearGradient id="linear-gradient-11" x1="-0.03" y1="0.539" x2="1.024" y2="0.363" xlink:href="#linear-gradient-2"/>
    <linearGradient id="linear-gradient-12" x1="-0.031" y1="0.539" x2="1.024" y2="0.364" xlink:href="#linear-gradient-2"/>
    <linearGradient id="linear-gradient-14" x1="1.145" y1="4.737" x2="3.349" y2="-0.816" xlink:href="#linear-gradient"/>
    <linearGradient id="linear-gradient-15" x1="0.052" y1="4.737" x2="2.401" y2="-0.816" xlink:href="#linear-gradient"/>
    <linearGradient id="linear-gradient-16" x1="-0.843" y1="4.737" x2="1.295" y2="-0.816" xlink:href="#linear-gradient"/>
    <linearGradient id="linear-gradient-17" x1="1.477" y1="3.132" x2="3.627" y2="-2.396" xlink:href="#linear-gradient"/>
    <linearGradient id="linear-gradient-18" x1="0.487" y1="2.401" x2="2.56" y2="-1.837" xlink:href="#linear-gradient"/>
    <linearGradient id="linear-gradient-19" x1="-0.442" y1="3.132" x2="1.55" y2="-2.396" xlink:href="#linear-gradient"/>
    <linearGradient id="linear-gradient-20" x1="-1.399" y1="3.132" x2="0.604" y2="-2.396" xlink:href="#linear-gradient"/>
    <linearGradient id="linear-gradient-21" x1="-12.549" y1="10.249" x2="-1.957" y2="-13.731" xlink:href="#linear-gradient"/>
    <linearGradient id="linear-gradient-22" x1="-4.406" y1="3.132" x2="-2.056" y2="-2.396" xlink:href="#linear-gradient"/>
    <linearGradient id="linear-gradient-23" x1="2.325" y1="3.134" x2="4.333" y2="-2.398" xlink:href="#linear-gradient"/>
    <linearGradient id="linear-gradient-24" x1="-2.687" y1="3.134" x2="-0.673" y2="-2.398" xlink:href="#linear-gradient"/>
    <linearGradient id="linear-gradient-25" x1="2.003" y1="4.719" x2="3.998" y2="-0.81" xlink:href="#linear-gradient"/>
    <clipPath id="clip-Prancheta_9">
      <rect width="511" height="217"/>
    </clipPath>
  </defs>
  <g id="Prancheta_9" data-name="Prancheta – 9" clip-path="url(#clip-Prancheta_9)">
    <g id="Group_120" data-name="Group 120" transform="translate(3.067 13.972)">
      <path id="Path_38" data-name="Path 38" d="M165.805,83.685a35.142,35.142,0,0,0-3.479-3.769q-.613-.553-1.252-1.075,1.539-8.273,2.319-16.752c.562-6.044.638-12.138.719-18.208.11-7.537-3.711-12.625-11.155-15.451A162.229,162.229,0,0,0,108.4,19.339c-6.7-.557-13.451-.626-20.176-.919q-4.328.023-8.633.188c-3.786-1.673-7.453-3.189-10.856-4.366-4.951-1.719-9.937-3.36-15.149-5.085a2.56,2.56,0,0,0-3.073,3.618c1.473,2.823,2.974,5.606,4.3,8.068-1.963.29-3.916.594-5.873.931A126.409,126.409,0,0,0,23.7,28.624,15.306,15.306,0,0,0,12.946,43.872c0,3.769.041,7.552.354,11.306.557,6.667,1.052,13.335,2.087,19.93a153.837,153.837,0,0,0,8.871,32.557,147.519,147.519,0,0,0,34.949,51.86c5.372,5.241,11.048,10.21,16.764,15.123a17.86,17.86,0,0,0,24.93.22,213.085,213.085,0,0,0,23.307-21.84,152.681,152.681,0,0,0,19.132-25.771,141.086,141.086,0,0,0,9.72-20.06,12.791,12.791,0,0,0,2.145-2.22c2.1-2.806,3.745-5.934,5.734-8.824a7.215,7.215,0,0,1,2.931-2.832c7.007-2.473,5.682-5.125,1.936-9.636ZM90.98,22.826c4.331.2,11.306.29,18.219.9a153.5,153.5,0,0,1,41.793,8.633c6.424,2.476,8.792,5.717,8.7,12.911q-.116,7.774-.893,15.518-.745,7.43-1.919,14.819c-4.856-3.542-10.514-7.247-14.2-10.558-.739-.67-1.71-1.739-1.655-2.539.444-6.58-2.934-11.337-7.291-15.558a68.506,68.506,0,0,0-23.42-14.477c-6.479-2.493-13.984-6.108-21.475-9.624ZM132.48,68.1l-.5.113-14.3-10.123,14.222,1.818-.067.667-3.273-.081Zm-70.3,10.233v-.125a5.54,5.54,0,0,0-7.595-4.687L43.673,77.907c-5.325,2.252-15,6.511-21.251,9.207q-.922-3.769-1.632-7.595c1.768-.655,6-2.145,6.795-2.487,7.659-3.284,15.28-6.647,22.973-9.856a12.311,12.311,0,0,1,17.1,11.439c0,1.409-.023,2.815-.052,4.224a12.465,12.465,0,0,0,10.54,13.045,17.486,17.486,0,0,0,17.086-5.818,16.428,16.428,0,0,1-18.712,10.842,17.066,17.066,0,0,1-14.378-17.46c.043-1.7.145-3.415.041-5.114ZM78.521,45.82l-.255-.432c2.389-2.067,4.772-4.137,7.752-6.722L66.632,30.775A90.734,90.734,0,0,1,97.36,38.782Zm-60.94-2.69a10.978,10.978,0,0,1,8.134-10.656,135.938,135.938,0,0,1,29.278-7.285l2-.29c1.307,2.479,2.49,4.783,3.366,6.691-26.11,9.473-16.326,16.3-42.12,25.658a5.186,5.186,0,0,1-.09,1l-.2-2.258C17.566,51.728,17.578,47.42,17.581,43.13Zm129,67.787a142.682,142.682,0,0,1-24.9,38.265,217.915,217.915,0,0,1-23.4,22.191,14.4,14.4,0,0,1-10.943,4.079,15.735,15.735,0,0,1-8.844-4.348c-5.183-4.638-10.436-9.247-15.445-14.062,6.273-11.274,5.8-20.414,12.848-31.931a13.335,13.335,0,0,1,8.9-6.621,14.662,14.662,0,0,1,14.628,3.8,9.818,9.818,0,0,1,1.832,12.755c9.192,3.667,25.681-4.513,29.238-14.454-1.075.235-2,.467-2.934.635a12.114,12.114,0,0,1-10.488-2.36c-5.685-4.74-10.076-13.4-6.754-19.712,3.264-6.2,12.653-10.63,19.309-7.694a9.441,9.441,0,0,1,1.418.794,12.2,12.2,0,0,1,3.281,16.842c-.426.649-.87,1.3-1.264,1.957s-.907,1.36-1.5,2.223a74.02,74.02,0,0,0,15.2-2.757l-.171.394Z" transform="translate(0)" fill="url(#linear-gradient)"/>
      <g id="Group_52" data-name="Group 52" transform="translate(182.546 63.277)">
        <g id="Group_50" data-name="Group 50">
          <path id="Path_39" data-name="Path 39" d="M111.431,22.9l-8.737,27.913H74.986a4.122,4.122,0,0,1-3.963-5.354l5.9-19.393A4.119,4.119,0,0,1,80.9,23.109h3.371L77.8,44.352H98.218l5.873-18.5a4.108,4.108,0,0,1,3.971-2.954Z" transform="translate(-13.771 -22.842)" fill="url(#linear-gradient-2)"/>
          <path id="Path_40" data-name="Path 40" d="M120.293,22.9l-1.061,3.554a4.157,4.157,0,0,1-3.969,2.9H103.489L97.241,50.8H90.777l6.247-21.452H82.208l1.107-3.511A4.113,4.113,0,0,1,87.287,22.9Z" transform="translate(19.385 -22.842)" fill="url(#linear-gradient-3)"/>
          <path id="Path_41" data-name="Path 41" d="M133.387,28.3l-5.43,17.3a7.34,7.34,0,0,1-7.062,5.218H95.879a4.142,4.142,0,0,1-3.969-5.354l5.43-17.3A7.325,7.325,0,0,1,104.4,22.9h25.02a4.177,4.177,0,0,1,3.969,5.4Zm-7.754,1.064H104.958a2.076,2.076,0,0,0-1.986,1.476l-4,12.645a.707.707,0,0,0,.693.87h20.678a2.073,2.073,0,0,0,1.986-1.476l4-12.59a.725.725,0,0,0-.693-.922Z" transform="translate(47.136 -22.842)" fill="url(#linear-gradient-4)"/>
          <path id="Path_42" data-name="Path 42" d="M108.625,34.253l-1.1,3.554a4.079,4.079,0,0,1-3.974,2.9l-22.93-.067-1.586,5.148,25.881.067-.58,2.029a4.3,4.3,0,0,1-4.2,2.841H77.491l-1.583,5.082h26.18l-1.107,3.508a4.119,4.119,0,0,1-3.969,2.957h-30l7.537-24.113a5.543,5.543,0,0,1,5.261-3.922Z" transform="translate(-24.912 10.209)" fill="url(#linear-gradient-5)"/>
          <path id="Path_43" data-name="Path 43" d="M89.871,34.242A7.409,7.409,0,0,0,82.81,39.5l-5.3,17.416a4.166,4.166,0,0,0,3.969,5.354h10.61L89.6,70.811h6.464l2.487-8.537h10.352a4.111,4.111,0,0,0,3.969-2.957l1.107-3.508H84.355l4.087-13.625a2.073,2.073,0,0,1,1.986-1.476h25.017a4.058,4.058,0,0,0,3.969-2.9l1.107-3.554Z" transform="translate(5.2 10.221)" fill="url(#linear-gradient-6)"/>
          <path id="Path_44" data-name="Path 44" d="M102.059,34.242h30.65l-7.87,25.078a4.11,4.11,0,0,1-3.969,2.957h-3.635l1.618-5.354H95.977l-.852,2.4a4.116,4.116,0,0,1-3.969,2.957H87.782L95,39.506a7.369,7.369,0,0,1,7.062-5.264Zm.557,6.464a2.073,2.073,0,0,0-1.986,1.476l-2.458,8.276H121.1l2.937-9.752Z" transform="translate(35.631 10.221)" fill="url(#linear-gradient-7)"/>
          <path id="Path_45" data-name="Path 45" d="M110.378,45.708l29.441.087-3.461,11.329a7.32,7.32,0,0,1-7.044,5.148H98.675l1.107-3.508a4.111,4.111,0,0,1,3.969-2.957h24.588c.98,0,2.029-3.09,2.319-4.125l.29-.96H102.281l3.531-11.216a7.325,7.325,0,0,1,7.062-5.261h30.473L142.21,37.8a4.157,4.157,0,0,1-3.969,2.9H113.471c-1.707-.014-2.3,2.1-2.635,3.168Z" transform="translate(67.383 10.228)" fill="url(#linear-gradient-8)"/>
          <path id="Path_46" data-name="Path 46" d="M118.24,39.752l-1.986,6.464H109.79l1.986-6.464Z" transform="translate(99.783 26.281)" fill="url(#linear-gradient-9)"/>
          <path id="Path_47" data-name="Path 47" d="M163.651,34.25,162.59,37.8a4.154,4.154,0,0,1-3.969,2.9H146.838l-6.76,21.57h-6.464l6.766-21.57H125.56l1.107-3.508a4.113,4.113,0,0,1,3.969-2.957Z" transform="translate(145.755 10.213)" fill="url(#linear-gradient-10)"/>
          <path id="Path_48" data-name="Path 48" d="M100.8,34.244,95.468,51.153A5.331,5.331,0,0,1,90.357,54.7H65.427l-2.461,7.569H56.258l4.009-12.755L89.6,49.48l2.919-9.326H63.137l1.02-3.206a3.977,3.977,0,0,1,3.821-2.7Z" transform="translate(-56.258 10.224)" fill="url(#linear-gradient-11)"/>
          <path id="Path_49" data-name="Path 49" d="M157.628,34.244,151.911,52.3a5.331,5.331,0,0,1-5.114,3.539h-24.93L119.9,62.259h-6.7l3.508-11.6,29.331-.043,3.3-10.465H120.064l1.02-3.206a3.983,3.983,0,0,1,3.824-2.7Z" transform="translate(109.722 10.224)" fill="url(#linear-gradient-12)"/>
          <path id="Path_50" data-name="Path 50" d="M73.964,22.885h30.652L96.743,47.963a4.111,4.111,0,0,1-3.969,2.951H89.4l1.618-5.351H67.847l-.739,2.4a4.108,4.108,0,0,1-3.969,2.951H59.768L66.9,28.146a7.369,7.369,0,0,1,7.062-5.261Zm.557,6.459a2.081,2.081,0,0,0-1.986,1.478l-2.7,8.276H93.006l3.163-9.755Z" transform="translate(-46.027 -22.885)" fill="url(#linear-gradient-7)"/>
        </g>
        <g id="Group_51" data-name="Group 51">
          <path id="Path_53" data-name="Path 53" d="M111.431,22.9l-8.737,27.913H74.986a4.122,4.122,0,0,1-3.963-5.354l5.9-19.393A4.119,4.119,0,0,1,80.9,23.109h3.371L77.8,44.352H98.218l5.873-18.5a4.108,4.108,0,0,1,3.971-2.954Z" transform="translate(-13.771 -22.842)" fill="url(#linear-gradient-14)"/>
          <path id="Path_54" data-name="Path 54" d="M120.293,22.9l-1.061,3.554a4.157,4.157,0,0,1-3.969,2.9H103.489L97.241,50.8H90.777l6.247-21.452H82.208l1.107-3.511A4.113,4.113,0,0,1,87.287,22.9Z" transform="translate(19.385 -22.842)" fill="url(#linear-gradient-15)"/>
          <path id="Path_55" data-name="Path 55" d="M133.387,28.3l-5.43,17.3a7.34,7.34,0,0,1-7.062,5.218H95.879a4.142,4.142,0,0,1-3.969-5.354l5.43-17.3A7.325,7.325,0,0,1,104.4,22.9h25.02a4.177,4.177,0,0,1,3.969,5.4Zm-7.754,1.064H104.958a2.076,2.076,0,0,0-1.986,1.476l-4,12.645a.707.707,0,0,0,.693.87h20.678a2.073,2.073,0,0,0,1.986-1.476l4-12.59a.725.725,0,0,0-.693-.922Z" transform="translate(47.136 -22.842)" fill="url(#linear-gradient-16)"/>
          <path id="Path_56" data-name="Path 56" d="M108.625,34.253l-1.1,3.554a4.079,4.079,0,0,1-3.974,2.9l-22.93-.067-1.586,5.148,25.881.067-.58,2.029a4.3,4.3,0,0,1-4.2,2.841H77.491l-1.583,5.082h26.18l-1.107,3.508a4.119,4.119,0,0,1-3.969,2.957h-30l7.537-24.113a5.543,5.543,0,0,1,5.261-3.922Z" transform="translate(-24.912 10.209)" fill="url(#linear-gradient-17)"/>
          <path id="Path_57" data-name="Path 57" d="M89.871,34.242A7.409,7.409,0,0,0,82.81,39.5l-5.3,17.416a4.166,4.166,0,0,0,3.969,5.354h10.61L89.6,70.811h6.464l2.487-8.537h10.352a4.111,4.111,0,0,0,3.969-2.957l1.107-3.508H84.355l4.087-13.625a2.073,2.073,0,0,1,1.986-1.476h25.017a4.058,4.058,0,0,0,3.969-2.9l1.107-3.554Z" transform="translate(5.2 10.221)" fill="url(#linear-gradient-18)"/>
          <path id="Path_58" data-name="Path 58" d="M102.059,34.242h30.65l-7.87,25.078a4.11,4.11,0,0,1-3.969,2.957h-3.635l1.618-5.354H95.977l-.852,2.4a4.116,4.116,0,0,1-3.969,2.957H87.782L95,39.506a7.369,7.369,0,0,1,7.062-5.264Zm.557,6.464a2.073,2.073,0,0,0-1.986,1.476l-2.458,8.276H121.1l2.937-9.752Z" transform="translate(35.631 10.221)" fill="url(#linear-gradient-19)"/>
          <path id="Path_59" data-name="Path 59" d="M110.378,45.708l29.441.087-3.461,11.329a7.32,7.32,0,0,1-7.044,5.148H98.675l1.107-3.508a4.111,4.111,0,0,1,3.969-2.957h24.588c.98,0,2.029-3.09,2.319-4.125l.29-.96H102.281l3.531-11.216a7.325,7.325,0,0,1,7.062-5.261h30.473L142.21,37.8a4.157,4.157,0,0,1-3.969,2.9H113.471c-1.707-.014-2.3,2.1-2.635,3.168Z" transform="translate(67.383 10.228)" fill="url(#linear-gradient-20)"/>
          <path id="Path_60" data-name="Path 60" d="M118.24,39.752l-1.986,6.464H109.79l1.986-6.464Z" transform="translate(99.783 26.281)" fill="url(#linear-gradient-21)"/>
          <path id="Path_61" data-name="Path 61" d="M163.651,34.25,162.59,37.8a4.154,4.154,0,0,1-3.969,2.9H146.838l-6.76,21.57h-6.464l6.766-21.57H125.56l1.107-3.508a4.113,4.113,0,0,1,3.969-2.957Z" transform="translate(145.755 10.213)" fill="url(#linear-gradient-22)"/>
          <path id="Path_62" data-name="Path 62" d="M100.8,34.244,95.468,51.153A5.331,5.331,0,0,1,90.357,54.7H65.427l-2.461,7.569H56.258l4.009-12.755L89.6,49.48l2.919-9.326H63.137l1.02-3.206a3.977,3.977,0,0,1,3.821-2.7Z" transform="translate(-56.258 10.224)" fill="url(#linear-gradient-23)"/>
          <path id="Path_63" data-name="Path 63" d="M157.628,34.244,151.911,52.3a5.331,5.331,0,0,1-5.114,3.539h-24.93L119.9,62.259h-6.7l3.508-11.6,29.331-.043,3.3-10.465H120.064l1.02-3.206a3.983,3.983,0,0,1,3.824-2.7Z" transform="translate(109.722 10.224)" fill="url(#linear-gradient-24)"/>
          <path id="Path_64" data-name="Path 64" d="M73.964,22.885h30.652L96.743,47.963a4.111,4.111,0,0,1-3.969,2.951H89.4l1.618-5.351H67.847l-.739,2.4a4.108,4.108,0,0,1-3.969,2.951H59.768L66.9,28.146a7.369,7.369,0,0,1,7.062-5.261Zm.557,6.459a2.081,2.081,0,0,0-1.986,1.478l-2.7,8.276H93.006l3.163-9.755Z" transform="translate(-46.027 -22.885)" fill="url(#linear-gradient-25)"/>
        </g>
      </g>
    </g>
  </g>
</svg>
