<svg xmlns="http://www.w3.org/2000/svg" width="60.906" height="20.435">
    <defs>
        <style>
            .cls-1{fill:#d5d4d4}
        </style>
    </defs>
    <g id="Group_44" data-name="Group 44" transform="translate(-195.456 -22.997)">
        <g id="Group_44-2" data-name="Group 44" transform="translate(195.456 22.997)">
            <path id="Path_9" data-name="Path 9" class="cls-1" d="M195.456 23h9.854v2.884h-3.11v10.069h-3.574V25.846h-3.172z" transform="translate(-195.456 -22.997)"/>
            <path id="Path_10" data-name="Path 10" class="cls-1" d="M218.7 31.589a4.271 4.271 0 0 1-.62 2.253c-1.044 1.693-3.077 2.332-5.4 2.134-2.816-.239-4.258-1.446-4.723-3.815a12.1 12.1 0 0 1-.119-2.225c-.012-2.284 0-4.569 0-6.919h3.52c0 2.2-.01 4.375.006 6.544a11.321 11.321 0 0 0 .136 1.973 1.717 1.717 0 0 0 1.912 1.553 1.643 1.643 0 0 0 1.829-1.539 16.839 16.839 0 0 0 .111-2.47c.017-.993.006-1.986.01-2.98v-.431l3.345 5.658z" transform="translate(-183.779 -22.979)"/>
            <path id="Path_11" data-name="Path 11" class="cls-1" d="M208.692 35.99c-2.278-3.782-4.921-8.167-7.17-11.969v-.983c2.208 0 4.109-.111 6.124.033a3.432 3.432 0 0 1 3.407 2.76 3.871 3.871 0 0 1-1.757 4.227c-.089.066-.173.138-.328.262l3.8 5.681zM205.1 25.611v2.871c.84.023 1.734.187 2.148-.669a1.954 1.954 0 0 0 .019-1.576c-.443-.781-1.331-.671-2.167-.626z" transform="translate(-189.732 -22.997)"/>
            <path id="Path_12" data-name="Path 12" class="cls-1" d="M223.009 35.978v-10.11h-3.141v-2.834h9.817v2.8h-3.042c-.019.395-.047.692-.047.987 0 2.789-.019 6.348.01 9.135z" transform="translate(-172.421 -22.962)"/>
            <path id="Path_13" data-name="Path 13" class="cls-1" d="M205.011 31.189c.01 1.112 0 2.225 0 3.411h-3.491V24.421c1.217 2.031 2.429 3.953 3.491 5.806z" transform="translate(-189.732 -21.653)"/>
            <path id="Path_14" data-name="Path 14" class="cls-1" d="M215.148 29.627c-1.172-1.971-2.486-4.039-3.446-5.862v-.739h3.446z" transform="translate(-180.126 -22.969)"/>
            <path id="Path_15" data-name="Path 15" class="cls-1" d="M214.706 32.386c1.438.258 2.772.564 4.122.7a.994.994 0 0 0 1.207-.667c.218-.6-.315-.886-.775-1.119-.7-.356-1.421-.661-2.115-1.022-1.817-.945-2.61-2.313-2.361-4.023.255-1.741 1.407-2.834 3.516-3.139a8.753 8.753 0 0 1 5.254.847l-1 2.5c-1-.233-1.926-.5-2.871-.653-.546-.089-1.232-.117-1.419.6-.181.688.463.9.923 1.143.641.344 1.314.628 1.963.956 1.944.987 2.571 2.076 2.359 4.066a3.812 3.812 0 0 1-3.16 3.17 7.752 7.752 0 0 1-5.088-.363c-.08-.037-.533-.321-.533-.321-.003-.849-.022-1.997-.022-2.675z" transform="translate(-177.292 -22.979)"/>
        </g>
        <path id="Path_16" data-name="Path 16" class="cls-1" d="M197.1 30.643h18.34l3.469 5.574H197.1zm2.049 4.859h1.086l.29-.787h1.273l.28.787h1.106l-1.246-4.074H200.4zm2.015-3.191.4 1.522h-.793zm2.562 1.493a2.307 2.307 0 0 0 .21 1.069 1.638 1.638 0 0 0 1.5.63 1.835 1.835 0 0 0 1.6-.63 2.307 2.307 0 0 0 .21-1.069v-2.376h-1.076V33.8a1.25 1.25 0 0 1-.1.581c-.107.216-.274.325-.632.325a.5.5 0 0 1-.542-.327 1.331 1.331 0 0 1-.066-.579v-2.372h-1.1zm4.171-2.375v.871h1.013v3.2h1v-3.2h1.018v-.873zm7.543 2.021a2.174 2.174 0 0 0-.632-1.7 2.182 2.182 0 0 0-2.74 0 2.169 2.169 0 0 0-.636 1.7 2.214 2.214 0 0 0 .636 1.7 2.189 2.189 0 0 0 2.74 0 2.219 2.219 0 0 0 .629-1.7zm-1.982 1.2a.7.7 0 0 1-.6-.317 1.935 1.935 0 0 1 0-1.806.723.723 0 0 1 1.2 0 1.965 1.965 0 0 1 0 1.806.694.694 0 0 1-.604.318z" transform="translate(1.548 7.215)"/>
        <g id="Group_45" data-name="Group 45" transform="translate(223.821 39.698)">
            <path id="Path_17" data-name="Path 17" class="cls-1" d="M211.871 32.581a1.128 1.128 0 0 1-.126.546.794.794 0 0 1-.356.346l.587.34-.406.157-.566-.4h-.043a.854.854 0 0 1-.663-.27 1.167 1.167 0 0 1 0-1.438.948.948 0 0 1 1.327 0 1.037 1.037 0 0 1 .246.719zm-1.436 0a.749.749 0 0 0 .144.482.471.471 0 0 0 .383.177.461.461 0 0 0 .383-.177.9.9 0 0 0 0-.964.507.507 0 0 0-.77 0 .76.76 0 0 0-.14.482z" transform="translate(-210.05 -31.59)"/>
            <path id="Path_18" data-name="Path 18" class="cls-1" d="M212.728 32.794a.785.785 0 0 1-1.3.573.719.719 0 0 1-.206-.554v-1.205h.362v1.2a.408.408 0 0 0 .109.319.4.4 0 0 0 .282.1c.262 0 .395-.144.395-.431v-1.188h.36z" transform="translate(-208.944 -31.573)"/>
            <path id="Path_19" data-name="Path 19" class="cls-1" d="M212.513 33.534h-.377l.651-1.926h.466l.651 1.926h-.389l-.138-.437h-.729zm.257-.814-.025.084h.542l-.025-.087q-.1-.306-.157-.519c-.043-.14-.068-.227-.078-.262l-.01-.058c-.017.093-.1.375-.247.842z" transform="translate(-208.082 -31.573)"/>
            <path id="Path_20" data-name="Path 20" class="cls-1" d="M214.3 33.534h-1.112v-1.926h.36v1.605h.752z" transform="translate(-207.088 -31.573)"/>
            <path id="Path_21" data-name="Path 21" class="cls-1" d="M214.272 33.534h-.36v-1.926h.36z" transform="translate(-206.406 -31.573)"/>
            <path id="Path_22" data-name="Path 22" class="cls-1" d="M215.591 31.905h-.49v1.629h-.362v-1.629h-.49v-.3h1.341z" transform="translate(-206.087 -31.573)"/>
            <path id="Path_23" data-name="Path 23" class="cls-1" d="M215.987 33.534h-.36v-.7l-.657-1.223h.42l.128.28a32.472 32.472 0 0 1 .271.612l.016.043a5.735 5.735 0 0 1 .3-.655l.13-.28h.422l-.665 1.211z" transform="translate(-205.408 -31.573)"/>
            <path id="Path_24" data-name="Path 24" class="cls-1" d="M216.808 33.534h-.36v-1.926h.36z" transform="translate(-204.013 -31.573)"/>
            <path id="Path_25" data-name="Path 25" class="cls-1" d="M217.27 33.534h-.36v-1.926h.408l.465.8q.114.2.2.367c.06.113.1.194.121.241l.031.072a8.262 8.262 0 0 1-.021-.68v-.8h.361v1.926h-.41l-.468-.8c-.076-.124-.142-.245-.2-.362l-.124-.249-.035-.082a6.143 6.143 0 0 1 .031.69z" transform="translate(-203.577 -31.573)"/>
            <path id="Path_26" data-name="Path 26" class="cls-1" d="M218.315 33.534h-.36v-1.926h.408l.465.8q.114.2.2.367c.06.113.1.194.121.241l.033.072a7.303 7.303 0 0 1-.023-.68v-.8h.362v1.926h-.41l-.468-.8c-.076-.124-.142-.245-.2-.362l-.124-.249-.035-.082a6.144 6.144 0 0 1 .031.69z" transform="translate(-202.591 -31.573)"/>
            <path id="Path_27" data-name="Path 27" class="cls-1" d="M220.78 32.581a1.03 1.03 0 0 1-.247.719.948.948 0 0 1-1.326 0 1.171 1.171 0 0 1 0-1.438.852.852 0 0 1 .661-.272.864.864 0 0 1 .667.27 1.036 1.036 0 0 1 .245.721zm-1.434 0a.75.75 0 0 0 .144.482.469.469 0 0 0 .383.177.461.461 0 0 0 .383-.177.9.9 0 0 0 0-.964.466.466 0 0 0-.387-.177.461.461 0 0 0-.383.177.76.76 0 0 0-.14.482z" transform="translate(-201.642 -31.59)"/>
            <path id="Path_28" data-name="Path 28" class="cls-1" d="M221.021 33.534h-.412l-.645-1.926h.391l.239.766q.07.227.128.437l.08.3.019.093a9.82 9.82 0 0 1 .231-.834l.241-.766h.385z" transform="translate(-200.695 -31.573)"/>
            <path id="Path_29" data-name="Path 29" class="cls-1" d="M221.269 33.534h-.377l.653-1.926h.465l.653 1.926h-.389l-.138-.437h-.729zm.259-.814-.027.084h.544l-.025-.087c-.066-.2-.119-.377-.159-.519s-.066-.227-.076-.262l-.012-.058c-.018.093-.1.375-.245.842z" transform="translate(-199.82 -31.573)"/>
            <path id="Path_30" data-name="Path 30" class="cls-1" d="M223.188 31.905h-.49v1.629h-.362v-1.629h-.49v-.3h1.341z" transform="translate(-198.918 -31.573)"/>
            <path id="Path_31" data-name="Path 31" class="cls-1" d="M223.049 33.534h-.362v-1.926h.362z" transform="translate(-198.125 -31.573)"/>
            <path id="Path_32" data-name="Path 32" class="cls-1" d="M224.906 32.581a1.039 1.039 0 0 1-.247.719.948.948 0 0 1-1.326 0 1.167 1.167 0 0 1 0-1.438.948.948 0 0 1 1.327 0 1.028 1.028 0 0 1 .246.719zm-1.436 0a.75.75 0 0 0 .144.482.471.471 0 0 0 .383.177.461.461 0 0 0 .383-.177.9.9 0 0 0 0-.964.507.507 0 0 0-.77 0 .761.761 0 0 0-.14.482z" transform="translate(-197.75 -31.59)"/>
            <path id="Path_33" data-name="Path 33" class="cls-1" d="M224.581 33.534h-.36v-1.926h.408l.465.8q.114.2.2.367c.06.113.1.194.12.241l.033.072a7.303 7.303 0 0 1-.023-.68v-.8h.363v1.926h-.412l-.468-.8c-.076-.124-.142-.245-.2-.362l-.124-.249-.035-.082a6.152 6.152 0 0 1 .031.69z" transform="translate(-196.678 -31.573)"/>
            <circle id="Ellipse_1" data-name="Ellipse 1" class="cls-1" cx=".345" cy=".345" r=".345" transform="translate(11.308 .621)"/>
        </g>
        <g id="Group_47" data-name="Group 47" transform="translate(253.505 23.003)">
            <g id="Group_46" data-name="Group 46" transform="translate(.787 .558)">
                <path id="Path_34" data-name="Path 34" class="cls-1" d="M225.728 24.9v-1.613h.688a1.178 1.178 0 0 1 .377.043.377.377 0 0 1 .189.155.468.468 0 0 1 .07.255.433.433 0 0 1-.107.3.514.514 0 0 1-.321.15.675.675 0 0 1 .175.136 1.694 1.694 0 0 1 .187.262l.2.315h-.391l-.237-.352a2.3 2.3 0 0 0-.171-.239.26.26 0 0 0-.1-.066.564.564 0 0 0-.165-.017h-.064v.671zm.328-.933h.241a1.2 1.2 0 0 0 .294-.021.162.162 0 0 0 .091-.068.214.214 0 0 0 .033-.121.2.2 0 0 0-.043-.132.207.207 0 0 0-.124-.064c-.025 0-.1-.006-.237-.006h-.255z" transform="translate(-225.728 -23.287)"/>
            </g>
            <path id="Path_35" data-name="Path 35" class="cls-1" d="M228.18 24.429A1.429 1.429 0 1 1 226.752 23a1.43 1.43 0 0 1 1.428 1.429zm-1.429 1.207a1.207 1.207 0 1 0-1.207-1.207 1.209 1.209 0 0 0 1.207 1.207z" transform="translate(-225.323 -23)"/>
        </g>
    </g>
</svg>
