<svg xmlns="http://www.w3.org/2000/svg" xmlns:xlink="http://www.w3.org/1999/xlink" width="279" height="103" viewBox="0 0 279 103">
  <defs>
    <linearGradient id="linear-gradient" x1="0.168" y1="0.849" x2="0.701" y2="0.007" gradientUnits="objectBoundingBox">
      <stop offset="0" stop-color="#e8e8e8"/>
      <stop offset="0.275" stop-color="#80807f"/>
      <stop offset="0.544" stop-color="#8c8b8b"/>
      <stop offset="0.77" stop-color="#d3d3d2"/>
      <stop offset="1" stop-color="#464545"/>
    </linearGradient>
    <linearGradient id="linear-gradient-2" x1="-0.02" y1="0.585" x2="1.031" y2="0.425" gradientUnits="objectBoundingBox">
      <stop offset="0" stop-color="#6c6a6c"/>
      <stop offset="0" stop-color="#8f8e8e"/>
      <stop offset="0.275" stop-color="#565556"/>
      <stop offset="0.546" stop-color="#6c6a6c"/>
      <stop offset="0.777" stop-color="#7c7b7c"/>
      <stop offset="1" stop-color="#434343"/>
    </linearGradient>
    <linearGradient id="linear-gradient-3" x1="0.023" y1="0.534" x2="1.03" y2="0.39" xlink:href="#linear-gradient-2"/>
    <linearGradient id="linear-gradient-4" x1="-0.019" y1="0.582" x2="1.019" y2="0.418" xlink:href="#linear-gradient-2"/>
    <linearGradient id="linear-gradient-5" x1="-0.029" y1="0.585" x2="1.03" y2="0.419" xlink:href="#linear-gradient-2"/>
    <linearGradient id="linear-gradient-6" x1="-0.01" y1="0.546" x2="1.037" y2="0.416" xlink:href="#linear-gradient-2"/>
    <linearGradient id="linear-gradient-7" x1="-0.027" y1="0.593" x2="1.027" y2="0.415" xlink:href="#linear-gradient-2"/>
    <linearGradient id="linear-gradient-8" x1="-0.027" y1="0.589" x2="1.027" y2="0.412" xlink:href="#linear-gradient-2"/>
    <linearGradient id="linear-gradient-9" x1="-0.034" y1="0.573" x2="1.034" y2="0.427" xlink:href="#linear-gradient-2"/>
    <linearGradient id="linear-gradient-10" x1="0.023" y1="0.533" x2="1.03" y2="0.389" xlink:href="#linear-gradient-2"/>
    <linearGradient id="linear-gradient-11" x1="-0.03" y1="0.539" x2="1.024" y2="0.363" xlink:href="#linear-gradient-2"/>
    <linearGradient id="linear-gradient-12" x1="-0.031" y1="0.539" x2="1.024" y2="0.364" xlink:href="#linear-gradient-2"/>
    <linearGradient id="linear-gradient-14" x1="1.145" y1="4.737" x2="3.349" y2="-0.816" xlink:href="#linear-gradient"/>
    <linearGradient id="linear-gradient-15" x1="0.052" y1="4.737" x2="2.401" y2="-0.816" xlink:href="#linear-gradient"/>
    <linearGradient id="linear-gradient-16" x1="-0.843" y1="4.737" x2="1.295" y2="-0.816" xlink:href="#linear-gradient"/>
    <linearGradient id="linear-gradient-17" x1="1.477" y1="3.132" x2="3.627" y2="-2.396" xlink:href="#linear-gradient"/>
    <linearGradient id="linear-gradient-18" x1="0.487" y1="2.401" x2="2.56" y2="-1.837" xlink:href="#linear-gradient"/>
    <linearGradient id="linear-gradient-19" x1="-0.442" y1="3.132" x2="1.55" y2="-2.396" xlink:href="#linear-gradient"/>
    <linearGradient id="linear-gradient-20" x1="-1.399" y1="3.132" x2="0.604" y2="-2.396" xlink:href="#linear-gradient"/>
    <linearGradient id="linear-gradient-21" x1="-12.549" y1="10.249" x2="-1.957" y2="-13.731" xlink:href="#linear-gradient"/>
    <linearGradient id="linear-gradient-22" x1="-4.406" y1="3.132" x2="-2.056" y2="-2.396" xlink:href="#linear-gradient"/>
    <linearGradient id="linear-gradient-23" x1="2.325" y1="3.134" x2="4.333" y2="-2.398" xlink:href="#linear-gradient"/>
    <linearGradient id="linear-gradient-24" x1="-2.687" y1="3.134" x2="-0.673" y2="-2.398" xlink:href="#linear-gradient"/>
    <linearGradient id="linear-gradient-25" x1="2.003" y1="4.719" x2="3.998" y2="-0.81" xlink:href="#linear-gradient"/>
    <clipPath id="clip-Prancheta_4">
      <rect width="279" height="103"/>
    </clipPath>
  </defs>
  <g id="Prancheta_4" data-name="Prancheta – 4" clip-path="url(#clip-Prancheta_4)">
    <g id="Group_120" data-name="Group 120" transform="translate(-7.932 -5.028)">
      <path id="Path_38" data-name="Path 38" d="M98.856,50.99A19.752,19.752,0,0,0,96.9,48.872q-.345-.311-.7-.6.865-4.65,1.3-9.416c.316-3.4.358-6.822.4-10.234.062-4.236-2.086-7.1-6.27-8.684a91.182,91.182,0,0,0-25.041-5.11c-3.767-.313-7.56-.352-11.34-.516q-2.433.013-4.852.106c-2.128-.94-4.189-1.792-6.1-2.454-2.783-.966-5.585-1.888-8.515-2.858a1.439,1.439,0,0,0-1.727,2.033c.828,1.587,1.672,3.151,2.418,4.534-1.1.163-2.2.334-3.3.523a71.05,71.05,0,0,0-14.19,3.85,8.6,8.6,0,0,0-6.045,8.57c0,2.118.023,4.244.2,6.354.313,3.747.591,7.495,1.173,11.2a86.465,86.465,0,0,0,4.986,18.3A82.915,82.915,0,0,0,38.941,93.616c3.019,2.946,6.209,5.739,9.422,8.5a10.038,10.038,0,0,0,14.012.124,119.768,119.768,0,0,0,13.1-12.275A85.815,85.815,0,0,0,86.229,75.48a79.3,79.3,0,0,0,5.463-11.275A7.189,7.189,0,0,0,92.9,62.957C94.076,61.38,95,59.622,96.12,58a4.055,4.055,0,0,1,1.647-1.592c3.938-1.39,3.193-2.881,1.088-5.416ZM56.8,16.784c2.434.114,6.354.163,10.24.508a86.276,86.276,0,0,1,23.49,4.852c3.611,1.391,4.942,3.213,4.888,7.257q-.065,4.37-.5,8.722Q94.5,42.3,93.838,46.452c-2.729-1.991-5.91-4.073-7.984-5.934-.415-.376-.961-.978-.93-1.427.249-3.7-1.649-6.372-4.1-8.745a38.5,38.5,0,0,0-13.163-8.137c-3.642-1.4-7.86-3.433-12.07-5.409ZM80.125,42.23l-.28.064L71.809,36.6,79.8,37.626,79.765,38l-1.84-.046ZM40.614,47.982v-.07a3.114,3.114,0,0,0-4.269-2.635l-6.134,2.465c-2.993,1.266-8.433,3.659-11.945,5.175q-.518-2.118-.917-4.269c.994-.368,3.371-1.206,3.819-1.4,4.3-1.846,8.588-3.736,12.912-5.54a6.92,6.92,0,0,1,9.613,6.429c0,.792-.013,1.582-.029,2.374a7.006,7.006,0,0,0,5.924,7.332,9.828,9.828,0,0,0,9.6-3.27A9.233,9.233,0,0,1,48.674,60.67a9.592,9.592,0,0,1-8.081-9.813c.024-.958.081-1.919.023-2.874ZM49.8,29.707l-.143-.243C51,28.3,52.335,27.14,54.01,25.686l-10.9-4.435a51,51,0,0,1,17.271,4.5ZM15.545,28.2a6.17,6.17,0,0,1,4.572-5.989,76.406,76.406,0,0,1,16.456-4.095l1.124-.163c.735,1.393,1.4,2.688,1.892,3.76-14.675,5.325-9.176,9.162-23.674,14.421a2.915,2.915,0,0,1-.051.564l-.112-1.269C15.537,33.028,15.544,30.607,15.545,28.2ZM88.05,66.3A80.2,80.2,0,0,1,74.056,87.8,122.483,122.483,0,0,1,60.9,100.275a8.091,8.091,0,0,1-6.151,2.292,8.844,8.844,0,0,1-4.971-2.444c-2.913-2.607-5.866-5.2-8.681-7.9,3.526-6.336,3.259-11.474,7.221-17.947a7.5,7.5,0,0,1,5-3.721,8.241,8.241,0,0,1,8.222,2.138,5.519,5.519,0,0,1,1.03,7.169c5.167,2.061,14.434-2.537,16.433-8.124-.6.132-1.124.262-1.649.357a6.809,6.809,0,0,1-5.895-1.326c-3.2-2.664-5.664-7.534-3.8-11.079,1.835-3.484,7.112-5.975,10.853-4.324a5.307,5.307,0,0,1,.8.446,6.856,6.856,0,0,1,1.844,9.466c-.24.365-.489.73-.71,1.1s-.51.764-.841,1.25a41.6,41.6,0,0,0,8.541-1.55l-.1.222Z" transform="translate(0 0)" fill="url(#linear-gradient)"/>
      <g id="Group_52" data-name="Group 52" transform="translate(108.265 39.519)">
        <g id="Group_50" data-name="Group 50">
          <path id="Path_39" data-name="Path 39" d="M93.652,22.9,88.741,38.589H73.168a2.317,2.317,0,0,1-2.227-3.009l3.319-10.9a2.315,2.315,0,0,1,2.231-1.662h1.895L74.75,34.957H86.226l3.3-10.4a2.309,2.309,0,0,1,2.232-1.66Z" transform="translate(-38.762 -22.867)" fill="url(#linear-gradient-2)"/>
          <path id="Path_40" data-name="Path 40" d="M103.614,22.9l-.6,2a2.336,2.336,0,0,1-2.231,1.629H94.169L90.658,38.584H87.024l3.511-12.057H82.208l.622-1.973A2.312,2.312,0,0,1,85.063,22.9Z" transform="translate(-25.107 -22.867)" fill="url(#linear-gradient-3)"/>
          <path id="Path_41" data-name="Path 41" d="M115.144,25.934l-3.052,9.724a4.125,4.125,0,0,1-3.969,2.933H94.062a2.328,2.328,0,0,1-2.231-3.009l3.052-9.722A4.117,4.117,0,0,1,98.85,22.9h14.063a2.348,2.348,0,0,1,2.231,3.034Zm-4.358.6H99.165a1.167,1.167,0,0,0-1.116.829L95.8,34.468a.4.4,0,0,0,.389.489h11.622a1.165,1.165,0,0,0,1.116-.829l2.248-7.076a.407.407,0,0,0-.389-.518Z" transform="translate(-13.679 -22.867)" fill="url(#linear-gradient-4)"/>
          <path id="Path_42" data-name="Path 42" d="M90.4,34.246l-.621,2a2.292,2.292,0,0,1-2.234,1.629l-12.888-.037-.891,2.894,14.547.037-.326,1.141a2.42,2.42,0,0,1-2.361,1.6H72.9l-.89,2.856H86.727L86.1,48.331a2.315,2.315,0,0,1-2.231,1.662H67.012L71.248,36.44a3.115,3.115,0,0,1,2.957-2.2Z" transform="translate(-43.349 -9.255)" fill="url(#linear-gradient-5)"/>
          <path id="Path_43" data-name="Path 43" d="M84.383,34.242A4.165,4.165,0,0,0,80.414,37.2l-2.977,9.789A2.341,2.341,0,0,0,79.668,50h5.963l-1.4,4.8h3.633l1.4-4.8h5.818a2.31,2.31,0,0,0,2.231-1.662l.622-1.971H81.283l2.3-7.658a1.165,1.165,0,0,1,1.116-.829H98.757a2.281,2.281,0,0,0,2.231-1.629l.622-2Z" transform="translate(-30.948 -9.251)" fill="url(#linear-gradient-6)"/>
          <path id="Path_44" data-name="Path 44" d="M95.806,34.242h17.227l-4.424,14.1A2.31,2.31,0,0,1,106.379,50h-2.043l.909-3.009H92.388l-.479,1.349A2.314,2.314,0,0,1,89.679,50h-1.9l4.055-12.8a4.142,4.142,0,0,1,3.969-2.959Zm.313,3.633A1.165,1.165,0,0,0,95,38.7l-1.382,4.652H106.51l1.651-5.481Z" transform="translate(-18.417 -9.251)" fill="url(#linear-gradient-7)"/>
          <path id="Path_45" data-name="Path 45" d="M105.253,40.688l16.547.049L119.855,47.1A4.114,4.114,0,0,1,115.9,50H98.675l.622-1.971a2.31,2.31,0,0,1,2.231-1.662h13.82c.551,0,1.141-1.737,1.3-2.319l.163-.539H100.7l1.985-6.3a4.117,4.117,0,0,1,3.969-2.957h17.127l-.639,2a2.336,2.336,0,0,1-2.231,1.629H106.991c-.96-.008-1.292,1.181-1.481,1.781Z" transform="translate(-5.341 -9.249)" fill="url(#linear-gradient-8)"/>
          <path id="Path_46" data-name="Path 46" d="M114.54,39.752l-1.116,3.633H109.79l1.116-3.633Z" transform="translate(8.002 -2.638)" fill="url(#linear-gradient-9)"/>
          <path id="Path_47" data-name="Path 47" d="M146.969,34.245l-.6,2a2.335,2.335,0,0,1-2.231,1.629h-6.623L133.72,50h-3.633l3.8-12.124H125.56l.622-1.971a2.312,2.312,0,0,1,2.231-1.662Z" transform="translate(26.935 -9.254)" fill="url(#linear-gradient-10)"/>
          <path id="Path_48" data-name="Path 48" d="M81.3,34.244l-3,9.5a3,3,0,0,1-2.873,1.993H61.412l-1.383,4.254h-3.77l2.253-7.169L75,42.808l1.641-5.242H60.124l.574-1.8a2.235,2.235,0,0,1,2.147-1.517Z" transform="translate(-56.258 -9.25)" fill="url(#linear-gradient-11)"/>
          <path id="Path_49" data-name="Path 49" d="M138.171,34.244,134.958,44.39a3,3,0,0,1-2.874,1.989H118.072l-1.1,3.611H113.2l1.971-6.517,16.486-.024,1.857-5.882H117.058l.574-1.8a2.239,2.239,0,0,1,2.149-1.517Z" transform="translate(12.095 -9.25)" fill="url(#linear-gradient-12)"/>
          <path id="Path_50" data-name="Path 50" d="M67.747,22.885H84.975L80.55,36.98a2.31,2.31,0,0,1-2.231,1.659H76.425l.909-3.008H64.309l-.415,1.349a2.309,2.309,0,0,1-2.231,1.659H59.768l4.01-12.8a4.142,4.142,0,0,1,3.969-2.957Zm.313,3.63a1.17,1.17,0,0,0-1.116.831L65.425,32H78.45l1.778-5.483Z" transform="translate(-52.045 -22.885)" fill="url(#linear-gradient-7)"/>
        </g>
        <g id="Group_51" data-name="Group 51">
          <path id="Path_53" data-name="Path 53" d="M93.652,22.9,88.741,38.589H73.168a2.317,2.317,0,0,1-2.227-3.009l3.319-10.9a2.315,2.315,0,0,1,2.231-1.662h1.895L74.75,34.957H86.226l3.3-10.4a2.309,2.309,0,0,1,2.232-1.66Z" transform="translate(-38.762 -22.867)" fill="url(#linear-gradient-14)"/>
          <path id="Path_54" data-name="Path 54" d="M103.614,22.9l-.6,2a2.336,2.336,0,0,1-2.231,1.629H94.169L90.658,38.584H87.024l3.511-12.057H82.208l.622-1.973A2.312,2.312,0,0,1,85.063,22.9Z" transform="translate(-25.107 -22.867)" fill="url(#linear-gradient-15)"/>
          <path id="Path_55" data-name="Path 55" d="M115.144,25.934l-3.052,9.724a4.125,4.125,0,0,1-3.969,2.933H94.062a2.328,2.328,0,0,1-2.231-3.009l3.052-9.722A4.117,4.117,0,0,1,98.85,22.9h14.063a2.348,2.348,0,0,1,2.231,3.034Zm-4.358.6H99.165a1.167,1.167,0,0,0-1.116.829L95.8,34.468a.4.4,0,0,0,.389.489h11.622a1.165,1.165,0,0,0,1.116-.829l2.248-7.076a.407.407,0,0,0-.389-.518Z" transform="translate(-13.679 -22.867)" fill="url(#linear-gradient-16)"/>
          <path id="Path_56" data-name="Path 56" d="M90.4,34.246l-.621,2a2.292,2.292,0,0,1-2.234,1.629l-12.888-.037-.891,2.894,14.547.037-.326,1.141a2.42,2.42,0,0,1-2.361,1.6H72.9l-.89,2.856H86.727L86.1,48.331a2.315,2.315,0,0,1-2.231,1.662H67.012L71.248,36.44a3.115,3.115,0,0,1,2.957-2.2Z" transform="translate(-43.349 -9.255)" fill="url(#linear-gradient-17)"/>
          <path id="Path_57" data-name="Path 57" d="M84.383,34.242A4.165,4.165,0,0,0,80.414,37.2l-2.977,9.789A2.341,2.341,0,0,0,79.668,50h5.963l-1.4,4.8h3.633l1.4-4.8h5.818a2.31,2.31,0,0,0,2.231-1.662l.622-1.971H81.283l2.3-7.658a1.165,1.165,0,0,1,1.116-.829H98.757a2.281,2.281,0,0,0,2.231-1.629l.622-2Z" transform="translate(-30.948 -9.251)" fill="url(#linear-gradient-18)"/>
          <path id="Path_58" data-name="Path 58" d="M95.806,34.242h17.227l-4.424,14.1A2.31,2.31,0,0,1,106.379,50h-2.043l.909-3.009H92.388l-.479,1.349A2.314,2.314,0,0,1,89.679,50h-1.9l4.055-12.8a4.142,4.142,0,0,1,3.969-2.959Zm.313,3.633A1.165,1.165,0,0,0,95,38.7l-1.382,4.652H106.51l1.651-5.481Z" transform="translate(-18.417 -9.251)" fill="url(#linear-gradient-19)"/>
          <path id="Path_59" data-name="Path 59" d="M105.253,40.688l16.547.049L119.855,47.1A4.114,4.114,0,0,1,115.9,50H98.675l.622-1.971a2.31,2.31,0,0,1,2.231-1.662h13.82c.551,0,1.141-1.737,1.3-2.319l.163-.539H100.7l1.985-6.3a4.117,4.117,0,0,1,3.969-2.957h17.127l-.639,2a2.336,2.336,0,0,1-2.231,1.629H106.991c-.96-.008-1.292,1.181-1.481,1.781Z" transform="translate(-5.341 -9.249)" fill="url(#linear-gradient-20)"/>
          <path id="Path_60" data-name="Path 60" d="M114.54,39.752l-1.116,3.633H109.79l1.116-3.633Z" transform="translate(8.002 -2.638)" fill="url(#linear-gradient-21)"/>
          <path id="Path_61" data-name="Path 61" d="M146.969,34.245l-.6,2a2.335,2.335,0,0,1-2.231,1.629h-6.623L133.72,50h-3.633l3.8-12.124H125.56l.622-1.971a2.312,2.312,0,0,1,2.231-1.662Z" transform="translate(26.935 -9.254)" fill="url(#linear-gradient-22)"/>
          <path id="Path_62" data-name="Path 62" d="M81.3,34.244l-3,9.5a3,3,0,0,1-2.873,1.993H61.412l-1.383,4.254h-3.77l2.253-7.169L75,42.808l1.641-5.242H60.124l.574-1.8a2.235,2.235,0,0,1,2.147-1.517Z" transform="translate(-56.258 -9.25)" fill="url(#linear-gradient-23)"/>
          <path id="Path_63" data-name="Path 63" d="M138.171,34.244,134.958,44.39a3,3,0,0,1-2.874,1.989H118.072l-1.1,3.611H113.2l1.971-6.517,16.486-.024,1.857-5.882H117.058l.574-1.8a2.239,2.239,0,0,1,2.149-1.517Z" transform="translate(12.095 -9.25)" fill="url(#linear-gradient-24)"/>
          <path id="Path_64" data-name="Path 64" d="M67.747,22.885H84.975L80.55,36.98a2.31,2.31,0,0,1-2.231,1.659H76.425l.909-3.008H64.309l-.415,1.349a2.309,2.309,0,0,1-2.231,1.659H59.768l4.01-12.8a4.142,4.142,0,0,1,3.969-2.957Zm.313,3.63a1.17,1.17,0,0,0-1.116.831L65.425,32H78.45l1.778-5.483Z" transform="translate(-52.045 -22.885)" fill="url(#linear-gradient-25)"/>
        </g>
      </g>
    </g>
  </g>
</svg>
