<svg data-name="Group 60" xmlns="http://www.w3.org/2000/svg" width="11.237" height="11.444">
    <path data-name="Path 69" d="M-2793.743-2092.84c.02-.509.025-1.021.064-1.528a13.224 13.224 0 0 1 .633-3.372 1.075 1.075 0 0 1 1.075-.844c.423.006.847.012 1.268.054a10.177 10.177 0 0 1 4.537 1.518 10.748 10.748 0 0 1 1.795 1.449 15.722 15.722 0 0 1 1.52 1.764 1.513 1.513 0 0 1 .345.966 1.513 1.513 0 0 1-.36.921 26.93 26.93 0 0 1-1.053 1.269 10.263 10.263 0 0 1-3.61 2.646 10.055 10.055 0 0 1-2.267.672c-.459.078-.924.116-1.388.158a8.983 8.983 0 0 1-.787.027 1.075 1.075 0 0 1-1.062-.814 10.247 10.247 0 0 1-.477-1.912 19.412 19.412 0 0 1-.233-2.974z" transform="translate(2793.743 2098.585)" style="fill:#e8e8e8"/>
</svg>
