<svg xmlns="http://www.w3.org/2000/svg" width="99.467" height="99.466" viewBox="0 0 99.467 99.466">
   <g transform="translate(-493.463 -514.542)">
      <path class="a" d="M505.615,226.058a49.733,49.733,0,1,0,49.733,49.733A49.734,49.734,0,0,0,505.615,226.058Zm.266,90a40,40,0,1,1,40-40A40,40,0,0,1,505.881,316.058Z" transform="translate(37.582 288.484)"/>
      <g transform="translate(37.582 288.484)">
         <path class="a" d="M495.507,297.731a7.329,7.329,0,0,1-3.618-.965,7.666,7.666,0,0,1-3.724-6.716V261.533a7.666,7.666,0,0,1,3.741-6.727,7.27,7.27,0,0,1,7.272.04l24.978,14.421a7.669,7.669,0,0,1,3.956,6.6,7.266,7.266,0,0,1-3.671,6.279l-25.263,14.586A7.321,7.321,0,0,1,495.507,297.731Zm1.431-31.769v19.657a1.316,1.316,0,0,0,1.974,1.14l17.023-9.829a1.316,1.316,0,0,0,0-2.279l-17.023-9.828A1.315,1.315,0,0,0,496.938,265.962Z"/>
      </g>
   </g>
</svg>