<svg xmlns="http://www.w3.org/2000/svg" width="101.656" height="99.985" viewBox="0 0 101.656 99.985"><g transform="translate(-172.639 -980.819)"><path class="a" d="M108.619,267.6l18.411-.083,2.881-.013a3,3,0,0,0,2.108-.878l2.038-2.037,20.5-20.5a1.5,1.5,0,0,1,2.561,1.061v64.639a1.5,1.5,0,0,1-2.561,1.061L134.29,290.578l-2.05-2.051a3,3,0,0,0-2.122-.878h-21.5a1.5,1.5,0,0,1-1.5-1.5V269.12A1.516,1.516,0,0,1,108.619,267.6Zm-11.5-6.963v34.014a3,3,0,0,0,3,3h27.1L156.3,326.726a3,3,0,0,0,2.107.879l5.7.029a3,3,0,0,0,3.015-3V230.649a3,3,0,0,0-3-3H158.1a3,3,0,0,0-2.122.878l-28.988,28.988-26.866.12A2.945,2.945,0,0,0,97.119,260.635Z" transform="translate(75.52 753.17)"/><path class="a" d="M178.876,309.406l6.485,6.485a6,6,0,0,0,4.243,1.758h1.515a6,6,0,0,0,6-6v-1.515a6,6,0,0,0-1.758-4.243l-6.485-6.485a6,6,0,0,0-4.243-1.757h-1.514a6,6,0,0,0-6,6v1.514A6,6,0,0,0,178.876,309.406Z" transform="translate(75.52 753.17)"/><path class="a" d="M182.533,284.72h9.172a6,6,0,0,0,4.242-1.758l1.071-1.071a6,6,0,0,0,0-8.485l-1.071-1.071a6,6,0,0,0-4.242-1.757h-9.172a6,6,0,0,0-4.243,1.757l-1.071,1.071a6,6,0,0,0,0,8.485l1.071,1.071A6,6,0,0,0,182.533,284.72Z" transform="translate(75.52 753.17)"/><path class="a" d="M188.876,255.891l6.485-6.485a6,6,0,0,0,1.758-4.243v-1.514a6,6,0,0,0-6-6H189.6a6,6,0,0,0-4.243,1.757l-6.485,6.485a6,6,0,0,0-1.757,4.243v1.515a6,6,0,0,0,6,6h1.514A6,6,0,0,0,188.876,255.891Z" transform="translate(75.52 753.17)"/></g></svg>