<svg xmlns="http://www.w3.org/2000/svg" width="100" height="100" viewBox="0 0 100 100"><g transform="translate(-358.602 -979.001)"><path class="a" d="M343.082,290.594v17.373a1.5,1.5,0,0,1-2.561,1.061l-7.187-7.186a1.5,1.5,0,0,0-2.121,0l-4.95,4.949a1.5,1.5,0,0,0,0,2.122l16,16a3,3,0,0,0,2.106.878l5.7.029a3,3,0,0,0,3.016-3V283.594a1.5,1.5,0,0,0-2.561-1.06l-7,7A1.5,1.5,0,0,0,343.082,290.594Z" transform="translate(75.52 753.17)"/><path class="a" d="M286.082,295.831h2.236a1.5,1.5,0,0,0,1.061-.439l7.341-7.342a1.3,1.3,0,0,0-.919-2.219h-1.219a1.5,1.5,0,0,1-1.5-1.5V267.3a1.516,1.516,0,0,1,1.5-1.522l18.411-.082,2.881-.013a3,3,0,0,0,2.108-.879l2.037-2.037,20.5-20.5a1.457,1.457,0,0,1,1.316-.414,1.607,1.607,0,0,0,1.464-.384l9.341-9.341a1.5,1.5,0,0,0,.44-1.06v-2.237a3,3,0,0,0-3-3h-6.025a3,3,0,0,0-2.121.879L312.948,255.7l-26.866.12a2.945,2.945,0,0,0-3,3v34.013A3,3,0,0,0,286.082,295.831Z" transform="translate(75.52 753.17)"/><path class="a" d="M290.6,325.831a6,6,0,0,0,4.243-1.757l86.485-86.486a6,6,0,0,0,1.758-4.242v-1.515a6,6,0,0,0-6-6h-1.515a6,6,0,0,0-4.243,1.757l-86.485,86.486a6,6,0,0,0-1.757,4.242v1.515a6,6,0,0,0,6,6Z" transform="translate(75.52 753.17)"/></g></svg>