<svg xmlns="http://www.w3.org/2000/svg" xmlns:xlink="http://www.w3.org/1999/xlink" width="36" height="50" viewBox="0 0 36 50">
  <defs>
    <clipPath id="clip-Prancheta_2">
      <rect width="36" height="50"/>
    </clipPath>
  </defs>
  <g id="Prancheta_2" data-name="Prancheta – 2" clip-path="url(#clip-Prancheta_2)">
    <g id="Component_12_15" data-name="Component 12 – 15" transform="translate(3 1)">
      <g id="Group_48" data-name="Group 48" transform="translate(0 0)">
        <g id="Group_48-2" data-name="Group 48" transform="translate(0 27.259)">
          <path id="Path_36" data-name="Path 36" d="M-2981.659-2057.023c-1.348-.037-2.7-.046-4.044-.118a48.69,48.69,0,0,1-8.92-1.164c-1.49-.361-2.256-1.011-2.233-1.979a18.96,18.96,0,0,1,.142-2.333,15.28,15.28,0,0,1,4.018-8.34,23.23,23.23,0,0,1,3.834-3.3,40.929,40.929,0,0,1,4.667-2.8,5.182,5.182,0,0,1,2.552-.622,5.137,5.137,0,0,1,2.438.659c1.142.622,2.278,1.266,3.354,1.938a21.046,21.046,0,0,1,7,6.638,14.462,14.462,0,0,1,1.777,4.171,22.857,22.857,0,0,1,.421,2.551,11.586,11.586,0,0,1,.07,1.447q0,1.4-2.153,1.95a37.214,37.214,0,0,1-5.059.876,72.9,72.9,0,0,1-7.864.426Z" transform="translate(2996.857 2077.68)" fill="#d5d4d4"/>
        </g>
        <path id="Path_37" data-name="Path 37" d="M-2979.341-2099.779a12.183,12.183,0,0,1-12.171-12.171,12.182,12.182,0,0,1,12.17-12.168,12.181,12.181,0,0,1,12.171,12.167,12.183,12.183,0,0,1-12.17,12.172Z" transform="translate(2994.489 2124.117)" fill="#d5d4d4"/>
      </g>
    </g>
  </g>
</svg>
