<svg xmlns="http://www.w3.org/2000/svg" viewBox="0 0 14 10">
    <path data-name="Icon simple-youtube" d="M14.017 6.968a1.793 1.793 0 0 0-1.245-1.245 42.969 42.969 0 0 0-5.6-.3 42.009 42.009 0 0 0-5.6.3A1.793 1.793 0 0 0 .319 6.968a18.636 18.636 0 0 0-.312 3.462 18.636 18.636 0 0 0 .311 3.449 1.793 1.793 0 0 0 1.245 1.245 42.875 42.875 0 0 0 5.6.3 42.977 42.977 0 0 0 5.6-.3 1.793 1.793 0 0 0 1.245-1.245 18.636 18.636 0 0 0 .3-3.449 18.636 18.636 0 0 0-.3-3.462zm-8.282 5.6V8.282l3.736 2.148z" transform="translate(-.007 -5.424)" style="fill:#fff"/>
</svg>
