<svg xmlns="http://www.w3.org/2000/svg" width="62.219" height="13.097" viewBox="0 0 62.219 13.097">
    <defs>
        <style>
            .cls-1{fill:#e8e8e8}
        </style>
    </defs>
    <g id="Group_201" data-name="Group 201">
        <path id="Path_72" data-name="Path 72" class="cls-1" d="M90.805 95.913V108.4h-4.353l.24-5.448-2.367 5.448h-2.9l-.829-5.529-1.4 5.517h-4.474l3.652-12.474h4.734l.736 5.071 2.114-5.071z" transform="translate(-74.722 -95.642)"/>
        <path id="Path_73" data-name="Path 73" class="cls-1" d="m209.288 99.853-1.954-.08-1 8.6H201.6l1.078-8.579-1.8.063-3.022-3.964H209.7z" transform="translate(-168.829 -95.624)"/>
        <path id="Path_74" data-name="Path 74" class="cls-1" d="m253.919 95.889-.883 7.752a1.161 1.161 0 0 0 .6 1.136 1.269 1.269 0 0 0 1.3-.227 1.669 1.669 0 0 0 .482-.963l1.054-7.7h4.523l-.976 8.54a4.761 4.761 0 0 1-1.86 3.146 7.792 7.792 0 0 1-5.672 1.029c-1.6-.3-3.436-1.339-3.959-2.971a5.528 5.528 0 0 1-.187-1.938l.937-7.806z" transform="translate(-207.414 -95.624)"/>
        <path id="Path_75" data-name="Path 75" class="cls-1" d="M305.733 104.424h3.717l-1.1 3.946h-7.919l1.646-12.48h4.706z" transform="translate(-247.232 -95.624)"/>
        <path id="Path_76" data-name="Path 76" class="cls-1" d="m157.886 95.491.469.361 2.768 3.558a4.3 4.3 0 0 1 .294 2.088 6.486 6.486 0 0 1-3.785 5.628 7.651 7.651 0 0 1-8.305-1.39 6.408 6.408 0 0 1-1.257-6.982 6.835 6.835 0 0 1 6.5-3.985 7.838 7.838 0 0 1 3.316.722zm-2.862 3.424a2.419 2.419 0 0 0-2.461 1.23 2.634 2.634 0 0 0-.081 2.555 2.156 2.156 0 0 0 1.7 1.15 2.344 2.344 0 0 0 2.22-1.15 2.826 2.826 0 0 0 .12-2.675 2.086 2.086 0 0 0-1.498-1.11z" transform="translate(-130.387 -94.763)"/>
    </g>
</svg>
