<svg id="Group_233" data-name="Group 233" xmlns="http://www.w3.org/2000/svg" width="59.144" height="15.776" viewBox="0 0 59.144 15.776">
    <defs>
        <style>
            .cls-1{fill:#e8e8e8;fill-rule:evenodd}
        </style>
    </defs>
    <path id="Path_286" data-name="Path 286" class="cls-1" d="M1184.108 726.823a3.146 3.146 0 1 0 .778 6.243 3.106 3.106 0 0 0 2.639-3.539 3.069 3.069 0 0 0-3.417-2.7zm-.154.332a2.746 2.746 0 0 1 3.244 2.263 2.829 2.829 0 0 1-2.2 3.331 2.846 2.846 0 0 1-1.047-5.594z" transform="translate(-1139.706 -719.009)"/>
    <path id="Path_287" data-name="Path 287" class="cls-1" d="M1154.418 729.859c.318-.321.617-.386.706-1.03.292-2.088-2.312-1.681-3.595-1.679-.134 1.319-.011 4.058-.027 5.644-.005.5-.083.479.4.471a13.842 13.842 0 0 0 2.745-.121 1.745 1.745 0 0 0 .891-2.464c-.369-.7-.777-.566-1.124-.82zm-2.607-.07.02-2.343a9.831 9.831 0 0 1 2.063 0 1.088 1.088 0 0 1 .935 1.164c0 1.434-1.759 1.274-3.018 1.178zm0 3.19.013-2.9 1.387-.027a2.9 2.9 0 0 1 1.6.271 1.476 1.476 0 0 1-.014 2.422c-.59.377-2.146.255-2.985.234z" transform="translate(-1115.514 -719.266)"/>
    <path id="Path_288" data-name="Path 288" class="cls-1" d="M980.942 733.722c.169.433 1.266.838 1.716 1A7.931 7.931 0 0 0 992 731.47a7.726 7.726 0 0 0 1.186-4.178c-.4 0-.793 0-1.189.006-1.417.007-.223-.175-1.206 2.528a7.374 7.374 0 0 1-2.091 2.9c-3.8 2.929-6.741 1.008-7.758.996z" transform="translate(-977.422 -719.408)"/>
    <path id="Path_289" data-name="Path 289" class="cls-1" d="M962.437 693.732h1.934a6.964 6.964 0 0 1 3.048-5.8c3.49-2.318 6.063-.726 7.122-.705-.324-.8-2.935-1.347-3.99-1.378a8.013 8.013 0 0 0-4.237 1.088 7.73 7.73 0 0 0-3.877 6.795z" transform="translate(-962.437 -685.841)"/>
    <path id="Path_290" data-name="Path 290" class="cls-1" d="M1035.169 694.352a6.174 6.174 0 0 0 .8.022c.187-.017.178-.006.2-.2v-2.173c1.445-.009.88-.283 2.309 1.616.712.947.262.743 1.64.747a9.49 9.49 0 0 0-.871-1.244 9.176 9.176 0 0 1-.89-1.308 1.851 1.851 0 0 0 .683-2.937 2.087 2.087 0 0 0-1.6-.646c-.66-.017-1.6-.043-2.243.008l-.019 6.113zm.991-3.437v-1.8h1.053c1.26 0 1.431.945 1.169 1.455-.366.713-1.335.556-2.21.556z" transform="translate(-1021.336 -687.759)"/>
    <path id="Path_291" data-name="Path 291" class="cls-1" d="m1004.417 729.4-.014 3.661a5.211 5.211 0 0 0 5.125-5.081l-3.649-.019a1.584 1.584 0 0 1-1.462 1.439z" transform="translate(-996.421 -719.954)"/>
    <path id="Path_292" data-name="Path 292" class="cls-1" d="M1004.4 703.5c1.172.069 1.336 1.085 1.489 1.374h3.624a4.636 4.636 0 0 0-.461-2.009 5.217 5.217 0 0 0-4.644-3.03z" transform="translate(-996.42 -697.176)"/>
    <path id="Path_293" data-name="Path 293" class="cls-1" d="m981.416 733.042.028-3.583c-.365-.266-1.2-.273-1.365-1.475l-3.664-.021a5.11 5.11 0 0 0 5 5.079z" transform="translate(-973.757 -719.952)"/>
    <path id="Path_294" data-name="Path 294" class="cls-1" d="m976.5 704.9 3.606.006c.228-.478.07-.507.462-.909a2.087 2.087 0 0 1 .915-.479v-3.645a5.2 5.2 0 0 0-4.52 2.966 4.661 4.661 0 0 0-.463 2.061z" transform="translate(-973.81 -697.208)"/>
    <path id="Path_295" data-name="Path 295" class="cls-1" d="M1091.673 694.024a36.347 36.347 0 0 0 .04-3.753 8.435 8.435 0 0 1 .908 1.1c.16.208.29.372.448.583.213.285.515.849.886.35.087-.117.148-.206.228-.313l1.375-1.765v3.793h.969l-.005-6.229c-.5-.008-.324.052-.847.7l-1.347 1.747a6.763 6.763 0 0 0-.672.9c-.231-.1-.139-.076-.385-.425-.111-.158-.21-.281-.326-.435l-.678-.9-.983-1.3c-.224-.307-.091-.3-.552-.3-.083 1.7 0 3.632-.029 5.392-.012 1.084-.091.854.97.855z" transform="translate(-1066.305 -687.414)"/>
    <path id="Path_296" data-name="Path 296" class="cls-1" d="m1158.868 693.968.981.012v-4.056a11.164 11.164 0 0 1 1.222 1.3 3.087 3.087 0 0 0 .25.294 2.344 2.344 0 0 1 .226.263l1.217 1.389c.083.1.149.145.234.252.415.521.465.675.926.665v-6.228h-.99v4.072l-2.423-2.694c-.157-.191-.332-.357-.483-.549l-.7-.819c-.161-.158-.138-.127-.437-.1z" transform="translate(-1121.508 -687.38)"/>
    <path id="Path_297" data-name="Path 297" class="cls-1" d="M1125.307 694.026h1a5.377 5.377 0 0 0 .234-.529c.074-.189.121-.5.336-.5h2.551c.268.179.321.754.543 1.022h1c-.02-.255-1.962-4.572-2.357-5.518-.1-.249-.183-.682-.444-.718-.336-.047-.581.874-.837 1.453-.328.744-2.025 4.545-2.025 4.784zm1.84-1.874a23.718 23.718 0 0 1 .973-2.449 7.136 7.136 0 0 1 .529 1.21 8.178 8.178 0 0 1 .46 1.243z" transform="translate(-1094.33 -687.417)"/>
    <path id="Path_298" data-name="Path 298" class="cls-1" d="m1219.11 688.618-.016 5.841 4.132.009.009-.9-3.14-.013-.011-1.917 2.291-.018.009-.807a17 17 0 0 0-2.282-.046l-.016-1.551 3.038-.008v-.889h-4.02z" transform="translate(-1170.279 -687.85)"/>
    <path id="Path_299" data-name="Path 299" class="cls-1" d="m1064.548 694.356 4.086.015.013-.866-3.1-.01-.016-1.951 2.294-.011v-.852h-2.279l-.011-1.527 3.037-.032.009-.887c-.6 0-3.695-.069-4.015.042z" transform="translate(-1045.127 -687.759)"/>
    <path id="Path_300" data-name="Path 300" class="cls-1" d="M1248.541 692.724c-.214-.136-.462-.357-.706-.491l-.061.056a3.529 3.529 0 0 1-.378.442 2.275 2.275 0 1 1 .193-3.224l.246.26.709-.5c-.365-1.02-2.166-1.767-3.654-1.273a3.163 3.163 0 0 0 .072 6.038 3.467 3.467 0 0 0 2.192-.084 2.6 2.6 0 0 0 1.387-1.224z" transform="translate(-1189.4 -687.462)"/>
    <path id="Path_301" data-name="Path 301" class="cls-1" d="m1120.035 733.269.024-2.856h1.586c.091.025 1.751 2.259 2.058 2.679.153.209.123.206.471.19a11.352 11.352 0 0 0-1.018-1.434l-1.058-1.419c.355-.175.885-.142 1.26-.84a1.621 1.621 0 0 0-1.441-2.411 15.5 15.5 0 0 0-2.15.015c-.075 1-.031 2.164-.029 3.18l.019 2.445c0 .365-.077.5.277.45zm.09-3.141-.042-.091a15.725 15.725 0 0 1-.018-2.585 9.093 9.093 0 0 1 2.215.06 1.327 1.327 0 0 1-.06 2.568 10.315 10.315 0 0 1-2.095.048z" transform="translate(-1089.809 -719.292)"/>
    <path id="Path_302" data-name="Path 302" class="cls-1" d="M1188.871 689v.213l2.049.008.008 5.225.963.007v-5.2a11.87 11.87 0 0 1 2.09-.044l.005-.889h-5.118z" transform="translate(-1145.805 -687.849)"/>
    <path id="Path_303" data-name="Path 303" class="cls-1" d="M1088.483 727.265c-.337.006-.313-.134-.321.646 0 .337 0 .676.006 1.013.011.656.031 1.318.019 1.974-.023 1.275-.535 2.175-1.778 2.27a1.875 1.875 0 0 1-2.181-1.834c-.115-1.193.007-2.8-.013-4.05l-.292-.017a29.528 29.528 0 0 0 .016 4.216 2.276 2.276 0 0 0 4.519.006c.158-1.202-.007-2.932.025-4.224z" transform="translate(-1060.762 -719.381)"/>
    <path id="Path_304" data-name="Path 304" class="cls-1" d="m1221.634 731.669-.126.121a2.4 2.4 0 0 0 3.037 1.141 1.514 1.514 0 0 0 .051-2.783c-.84-.531-2.654-.854-2.325-2.2.213-.874 1.556-1.071 2.345-.586.268.165.328.355.626.513l.141-.126a2.093 2.093 0 0 0-3.07-.468 1.454 1.454 0 0 0-.2 1.717c.506.8 2.112 1.043 2.789 1.771.779.838-.148 2.512-1.933 1.935-.849-.276-1.023-.935-1.335-1.035z" transform="translate(-1172.234 -719.017)"/>
    <path id="Path_305" data-name="Path 305" class="cls-1" d="M1050.157 727c-.02.117-.054.125.033.276h2.266a21.636 21.636 0 0 1 .018 2.862c-.013.978-.029 1.941.008 2.919.118.121.1.11.308.052v-5.821h2.28l.034-.306a46.806 46.806 0 0 0-4.947.018z" transform="translate(-1033.454 -719.108)"/>
</svg>
