<svg xmlns="http://www.w3.org/2000/svg" width="55.952" height="16.315" viewBox="0 0 55.952 16.315">
    <defs>
        <style>
            .cls-1{fill:#e8e8e8}
        </style>
    </defs>
    <g id="Group_220" data-name="Group 220">
        <g id="Group_142" data-name="Group 142">
            <path id="Path_320" data-name="Path 320" class="cls-1" d="M1515.662 693.661v2.588a16.874 16.874 0 0 0-4.02-.533c-1.065.177-1.021.55-1.04.825-.012.184.093.588 1.339.845 1.7.35 4.367.935 4.367 3.889s-2.807 3.706-5.815 3.706-4.111-.807-4.111-.807v-2.828a13.493 13.493 0 0 0 3.817.956c1.466 0 1.906-.457 1.871-.937-.029-.365-.036-.55-1.853-.862s-3.943-1.211-3.943-3.65 2.238-3.761 4.88-3.633a42.708 42.708 0 0 1 4.508.441z" transform="translate(-1506.274 -693.027)"/>
            <path id="Path_321" data-name="Path 321" class="cls-1" d="m1570.464 693.312-1.63 7.517-1.917-7.517h-3.489l-1.917 7.517-1.629-7.517h-3.755l2.512 11.59h4.7l1.832-7.185 1.833 7.185h4.7l2.514-11.59z" transform="translate(-1545.644 -693.106)"/>
            <path id="Path_322" data-name="Path 322" class="cls-1" d="M1647.634 704.9h4.553l-3.873-11.59h-6.148l-3.872 11.59h4.552l.605-2.4h3.581zm-3.5-5.115 1.1-4.368 1.1 4.368z" transform="translate(-1610.533 -693.106)"/>
            <path id="Path_323" data-name="Path 323" class="cls-1" d="M1711.775 698.126h3.46v4.643c0 .619-1.922 1.536-3.991 1.536-2.336 0-7.213-1.093-7.213-5.823s3.636-6.148 6.682-6.148 4.166.769 4.166.769v2.926a6.575 6.575 0 0 0-4.434-.5 3.089 3.089 0 0 0-2.159 3.37 2.821 2.821 0 0 0 3.491 2.365z" transform="translate(-1662.448 -692.333)"/>
        </g>
        <g id="Group_143" data-name="Group 143" transform="translate(27.758 13.908)">
            <path id="Path_324" data-name="Path 324" class="cls-1" d="m1640.506 758.9-.308.3a.908.908 0 0 0-.68-.309.78.78 0 0 0-.568.224.74.74 0 0 0-.229.546.757.757 0 0 0 .238.563.8.8 0 0 0 .586.231.7.7 0 0 0 .38-.095.658.658 0 0 0 .252-.3h-.665v-.409h1.156v.1a1.11 1.11 0 0 1-.158.569 1.092 1.092 0 0 1-.4.414 1.167 1.167 0 0 1-.583.139 1.279 1.279 0 0 1-.635-.154 1.139 1.139 0 0 1-.443-.442 1.231 1.231 0 0 1-.164-.62 1.156 1.156 0 0 1 .3-.792 1.188 1.188 0 0 1 .93-.4 1.41 1.41 0 0 1 .56.111 1.284 1.284 0 0 1 .431.324z" transform="translate(-1638.284 -758.474)"/>
            <path id="Path_325" data-name="Path 325" class="cls-1" d="M1659.129 758.737h1.253v.429h-.818v.415h.818V760h-.818v.6h.818v.429h-1.253z" transform="translate(-1654.746 -758.682)"/>
            <path id="Path_326" data-name="Path 326" class="cls-1" d="M1674.76 758.737h.462a1.53 1.53 0 0 1 .542.07.545.545 0 0 1 .259.224.7.7 0 0 1 .1.373.644.644 0 0 1-.108.378.654.654 0 0 1-.328.229l.544 1.021h-.479l-.513-.971h-.04v.971h-.437zm.437.9h.136a.539.539 0 0 0 .287-.053.248.248 0 0 0 .039-.313.211.211 0 0 0-.1-.079.737.737 0 0 0-.239-.027h-.12z" transform="translate(-1667.09 -758.682)"/>
            <path id="Path_327" data-name="Path 327" class="cls-1" d="M1690.589 758.737h.424l.533 1.6.535-1.6h.427l.386 2.3h-.424l-.246-1.448-.485 1.448h-.385l-.483-1.448-.253 1.448h-.425z" transform="translate(-1679.278 -758.682)"/>
            <path id="Path_328" data-name="Path 328" class="cls-1" d="M1712.288 758.737h.444l.881 2.3h-.452l-.179-.474h-.938l-.185.474h-.454zm.225.609-.307.787h.614z" transform="translate(-1696.029 -758.682)"/>
            <path id="Path_329" data-name="Path 329" class="cls-1" d="M1731.115 758.737h.42l.982 1.51v-1.51h.436v2.3h-.42l-.98-1.507v1.507h-.438z" transform="translate(-1711.595 -758.682)"/>
            <path id="Path_330" data-name="Path 330" class="cls-1" d="M1749.163 758.737h.47l.427.828.428-.828h.461l-.67 1.3v.993h-.44v-.993z" transform="translate(-1725.848 -758.682)"/>
        </g>
        <g id="Group_144" data-name="Group 144" transform="translate(53.723 .797)">
            <path id="Path_331" data-name="Path 331" class="cls-1" d="M1763.994 697.24a1.084 1.084 0 0 1-.15.554 1.112 1.112 0 0 1-.967.556 1.09 1.09 0 0 1-.555-.149 1.11 1.11 0 0 1-.41-.407 1.119 1.119 0 0 1 0-1.111 1.114 1.114 0 0 1 1.931 0 1.086 1.086 0 0 1 .151.557zm-.231 0a.852.852 0 0 0-.258-.628.886.886 0 0 0-1.511.621.861.861 0 0 0 .118.438.881.881 0 0 0 .322.321.9.9 0 0 0 .887 0 .864.864 0 0 0 .324-.32.836.836 0 0 0 .118-.431zm-1.345-.61h.54a.6.6 0 0 1 .25.039.288.288 0 0 1 .129.116.388.388 0 0 1 .048.2.359.359 0 0 1-.03.159.34.34 0 0 1-.114.12.215.215 0 0 1 .093.085.413.413 0 0 1 .031.166c.008.151.014.238.019.265a.141.141 0 0 0 .053.07h-.306a.476.476 0 0 1-.027-.083.868.868 0 0 1-.007-.114.815.815 0 0 0-.018-.2.1.1 0 0 0-.046-.055.286.286 0 0 0-.13-.019h-.217v.472h-.268zm.268.234v.289h.222a.29.29 0 0 0 .173-.034.169.169 0 0 0 0-.222.306.306 0 0 0-.173-.033z" transform="translate(-1761.765 -696.125)"/>
        </g>
    </g>
</svg>
