<svg xmlns="http://www.w3.org/2000/svg" width="54.635" height="15.436" viewBox="0 0 54.635 15.436">
    <defs>
        <style>
            .cls-2{fill:#e8e8e8;fill-rule:evenodd}
        </style>
    </defs>
    <g id="Group_221" data-name="Group 221">
        <path id="Rectangle_135" data-name="Rectangle 135" transform="translate(32.956)" style="fill:#e8e8e8" d="M0 0h4.99v3.978H0z"/>
        <path id="Path_332" data-name="Path 332" class="cls-2" d="M1853.762 712.035h14.868l-1.483 3.978h-15.56z" transform="translate(-1851.586 -712.035)"/>
        <path id="Path_333" data-name="Path 333" class="cls-2" d="M1858.913 738.022h5.344l-3.145 8.433h-5.344z" transform="translate(-1854.641 -731.019)"/>
        <path id="Path_334" data-name="Path 334" class="cls-2" d="M1900.994 738.022h5.344l-3.145 8.433h-5.343z" transform="translate(-1885.382 -731.019)"/>
        <path id="Path_335" data-name="Path 335" class="cls-2" d="M1922.733 716.014a1.512 1.512 0 0 1 0 3.025h-3.616l4.072 8.433h5.666l-3.258-5.593a4.633 4.633 0 0 0 3.836-3.961 11.853 11.853 0 0 0 0-1.9 4.444 4.444 0 0 0-4.234-3.978h-9.321l-1.483 3.978z" transform="translate(-1897.466 -712.036)"/>
        <path id="Path_336" data-name="Path 336" class="cls-2" d="M1973.875 738.022v8.433h4.99l4.128-8.433z" transform="translate(-1940.919 -731.019)"/>
        <path id="Path_337" data-name="Path 337" class="cls-2" d="M2009.361 738.022v8.433h4.867l3.952-8.433z" transform="translate(-1966.842 -731.019)"/>
        <path id="Path_338" data-name="Path 338" class="cls-2" d="m1999.36 712.035-1.9 3.978h7.362v-3.978z" transform="translate(-1958.148 -712.035)"/>
        <path id="Path_339" data-name="Path 339" class="cls-2" d="M2036.934 712.035h-4.872l-1.543 3.978h4.571z" transform="translate(-1982.298 -712.035)"/>
    </g>
</svg>
