<svg id="Group_219" data-name="Group 219" xmlns="http://www.w3.org/2000/svg" width="41.849" height="19.941" viewBox="0 0 41.849 19.941">
    <defs>
        <style>
            .cls-1{fill:#e8e8e8;fill-rule:evenodd}
        </style>
    </defs>
    <path id="Path_316" data-name="Path 316" class="cls-1" d="M1351.244 754.621v1.507a1.5 1.5 0 0 1-1.5 1.5h-38.858a1.5 1.5 0 0 1-1.5-1.5v-1.507z" transform="translate(-1309.395 -737.682)"/>
    <g id="Group_140" data-name="Group 140">
        <path id="Path_317" data-name="Path 317" class="cls-1" d="M1454.13 728.019a.806.806 0 1 0 .805.806.807.807 0 0 0-.805-.806zm.261 1.277-.139-.217a1.334 1.334 0 0 0-.1-.145.153.153 0 0 0-.057-.042.3.3 0 0 0-.1-.011h-.038v.415h-.193v-.996h.4a.657.657 0 0 1 .222.027.222.222 0 0 1 .11.095.3.3 0 0 1 .041.157.273.273 0 0 1-.063.185.3.3 0 0 1-.187.091.467.467 0 0 1 .1.083 1.182 1.182 0 0 1 .109.162l.117.194z" transform="translate(-1416.759 -717.838)"/>
        <path id="Path_318" data-name="Path 318" class="cls-1" d="M1456.2 729.92a.124.124 0 0 0-.025-.081.117.117 0 0 0-.073-.039H1455.813v.252h.142a.677.677 0 0 0 .172-.012.1.1 0 0 0 .055-.042.142.142 0 0 0 .018-.078z" transform="translate(-1418.616 -719.165)"/>
        <path id="Path_319" data-name="Path 319" class="cls-1" d="M1349.749 687.947h-38.858a1.5 1.5 0 0 0-1.5 1.5V703.9h41.848v-14.458a1.5 1.5 0 0 0-1.49-1.495zm-25.9 7.553v4.082a.3.3 0 0 1-.3.292h-9.349a.3.3 0 0 1-.292-.292v-2.391a.3.3 0 0 1 .292-.293h2.383a.3.3 0 0 1 .3.293v1.5a.2.2 0 0 0 .2.194h3.578a.2.2 0 0 0 .2-.194V696.1a.2.2 0 0 0-.2-.2h-5.465a.3.3 0 0 1-.3-.293v-3.383a.3.3 0 0 1 .3-.3h7.36a.3.3 0 0 1 .292.3v1.39a.3.3 0 0 1-.292.3h-2.392a.3.3 0 0 1-.292-.3v-.5a.2.2 0 0 0-.2-.2h-1.594a.2.2 0 0 0-.2.2v1.594a.2.2 0 0 0 .2.195h5.473a.3.3 0 0 1 .3.3zm11.93 4.082a.3.3 0 0 1-.3.292h-3.507a.368.368 0 0 1-.275-.115l-2.776-2.759a.069.069 0 0 0-.045-.018.059.059 0 0 0-.053.062v2.542a.3.3 0 0 1-.3.292h-2.887a.3.3 0 0 1-.293-.292v-2.489a.3.3 0 0 1 .284-.3.217.217 0 0 0 .213-.221v-1.346a.229.229 0 0 0-.213-.221.287.287 0 0 1-.284-.292v-2.489a.3.3 0 0 1 .293-.3h2.887a.3.3 0 0 1 .3.3v2.542a.059.059 0 0 0 .053.061.07.07 0 0 0 .045-.017l2.771-2.772a.388.388 0 0 1 .275-.115h2.515a.3.3 0 0 1 .292.3v1.39a.3.3 0 0 1-.292.3h-2.551a.3.3 0 0 0-.213.08l-.859.859a.094.094 0 0 0-.017.053.092.092 0 0 0 .017.053l.541.541 1.3 1.311a.388.388 0 0 0 .212.088h2.56a.3.3 0 0 1 .3.293zm8.936-4.082v.584a.3.3 0 0 1-.292.3h-2.391a.3.3 0 0 1-.3-.283.212.212 0 0 0-.222-.213h-1.071a.2.2 0 0 0-.2.195v.576a.218.218 0 0 0 .213.221.3.3 0 0 1 .284.3v2.383a.3.3 0 0 1-.3.3h-2.879a.3.3 0 0 1-.292-.3v-2.48a.3.3 0 0 1 .283-.3.223.223 0 0 0 .2-.221v-1.347a.211.211 0 0 0-.2-.221.3.3 0 0 1-.283-.3v-2.489a.3.3 0 0 1 .292-.293h9.848a.3.3 0 0 1 .292.293v1.39a.3.3 0 0 1-.292.3h-3.383a.3.3 0 0 1-.3-.3v-.5a.2.2 0 0 0-.195-.195h-3.091a.2.2 0 0 0-.2.195v1.595a.2.2 0 0 0 .2.2h1.071a.218.218 0 0 0 .222-.213.309.309 0 0 1 .3-.293h2.391a.3.3 0 0 1 .292.3zm2.055 4.417a.984.984 0 1 1 .984-.984.986.986 0 0 1-.988.984z" transform="translate(-1309.396 -687.947)"/>
    </g>
</svg>
