<svg xmlns="http://www.w3.org/2000/svg" width="53.699" height="23.263" viewBox="0 0 53.699 23.263">
    <defs>
        <style>
            .cls-1{fill:#e8e8e8;fill-rule:evenodd}
        </style>
    </defs>
    <g id="Group_222" data-name="Group 222">
        <path id="Path_340" data-name="Path 340" class="cls-1" d="M2131.085 754.194a219.79 219.79 0 0 0-16.163-.61 149.478 149.478 0 0 0-29.488 2.629 15.676 15.676 0 0 0-6.579-4.895l-.043.088a23.52 23.52 0 0 1 5.561 8.96c13.476-5.025 30.4-5.955 43.169-5.955 1.222 0 2.386.014 3.514.029l.029-.246z" transform="translate(-2078.812 -737.103)"/>
        <path id="Path_341" data-name="Path 341" class="cls-1" d="M2104.845 697.65a62.552 62.552 0 0 1-3.845 10.469h-.029a76.86 76.86 0 0 1-.653-10.469h-4.677a67.827 67.827 0 0 0 2.209 14.868h4.5a94.19 94.19 0 0 0 6.767-14.868zm40.036 7.608c0-2.876-1.862-4.037-4.984-4.037-3.771 0-6.07 1.729-6.07 7.594 0 2.875 1.862 4.037 4.984 4.037 3.772 0 6.07-1.685 6.07-7.595zm-31.264-3.95c-2.816 0-4.341.536-5.576 1.858a8.7 8.7 0 0 0-1.8 5.795c0 2.032.507 3.716 3.02 3.716a6.1 6.1 0 0 0 3.079-.972h.042l-.1.813h3.819l1.365-11.137a98.296 98.296 0 0 0-3.848-.073zm15.872 8.626a11.026 11.026 0 0 0 2.759-.435l-.495 2.7a16.441 16.441 0 0 1-3.733.406c-4.078 0-5.212-1.773-5.212-4.1 0-5.939 2.555-7.289 6.07-7.289 2.759 0 4.47 1.336 4.47 3.892a12.423 12.423 0 0 1-.387 2.817h-6.07c0 1.279.417 2 2.6 2zm-8.207 2.584h-4.035l1.83-14.868h4.038l-1.833 14.868zm19.285-5.344c-.3 2.816-.727 3.4-1.536 3.4-.742 0-1.032-.539-1.032-1.714a18.243 18.243 0 0 1 .145-1.959c.306-2.818.727-3.4 1.537-3.4.742 0 1.032.537 1.032 1.713a18.465 18.465 0 0 1-.145 1.96zm-28.141 2.382a1.925 1.925 0 0 1-1.089.407c-.828 0-.944-.7-.944-1.525a11.813 11.813 0 0 1 .551-3.384 1.866 1.866 0 0 1 1.99-1.336 1.416 1.416 0 0 1 .2.014l-.713 5.823zm17-3.951a4.575 4.575 0 0 0 .132-1.044.986.986 0 0 0-1.018-1.1c-.858 0-1.3.508-1.507 2.149z" transform="translate(-2091.182 -697.65)"/>
    </g>
</svg>
