<svg id="Group_165" data-name="Group 165" xmlns="http://www.w3.org/2000/svg" width="43.447" height="39.352" viewBox="0 0 43.447 39.352">
    <defs>
        <style>
            .cls-1{fill:#e8e8e8}
        </style>
    </defs>
    <path id="Path_128" data-name="Path 128" class="cls-1" d="M515.282 304.319a.157.157 0 0 1-.127.168c-.2-.029-.24-.251-.409-.353.149-.045.544-.135.536.185z" transform="translate(-485.77 -288.348)"/>
    <path id="Path_129" data-name="Path 129" class="cls-1" d="M514.123 309.428c-.2 0-.29-.227-.36-.377l.13-.292a.734.734 0 0 1 .23.668z" transform="translate(-485.013 -291.944)"/>
    <path id="Path_130" data-name="Path 130" class="cls-1" d="M465.582 241.233a12.681 12.681 0 0 0 2.146.613c.308.523 1.047.392 1.382.842l1.019.538c.143.151.238.325.483.331.042.3.439.158.606.358a10.9 10.9 0 0 1 .982 1.127l.163.324c-.386-.279-.645-.727-1.081-1.007-.139-.371-.633-.259-.823-.535a4.67 4.67 0 0 1-.771-.655c-.855-.241-1.578-.822-2.431-1.111a2.023 2.023 0 0 0-1.242-.4 4.492 4.492 0 0 0-1.146-.37c-.146-.028-.223.069-.371.114a1.36 1.36 0 0 1-.876-.388l.05-.048c.689-.058 1.2.371 1.91.265z" transform="translate(-446.421 -239.763)"/>
    <path id="Path_131" data-name="Path 131" class="cls-1" d="M461 243.112c-.248.067-.537-.16-.832-.166.3-.117.536.184.832.166z" transform="translate(-443.762 -241.268)"/>
    <path id="Path_132" data-name="Path 132" class="cls-1" d="M451.549 244.3c.606.358 1.368.326 1.974.683a1.885 1.885 0 0 1 .8.559 2.618 2.618 0 0 1 1.454.818c.12.174.416.058.51.282a1.39 1.39 0 0 0 .5.626.832.832 0 0 1 .592-.158c.2-.021.267.152.338.277a6.7 6.7 0 0 1 1.8 1.736 1.079 1.079 0 0 1 .405.525l.453.6a.7.7 0 0 1 .508.306c-.052.122.07.2.018.3-.1 0-.1-.125-.168-.176-.656-.31-1.01-.98-1.514-1.459a1.325 1.325 0 0 0-.505-.4c-.142-.224-.385-.377-.429-.648-.413-.181-.55-.577-.939-.758a.5.5 0 0 0-.421.113 1.671 1.671 0 0 1-.681-.261c-.191-.226-.282-.547-.524-.7a9.8 9.8 0 0 1-1.36-.645c-.142-.3-.537-.184-.752-.409a5.665 5.665 0 0 0-2.169-.713 6.955 6.955 0 0 1-1.591-.232l-.733-.116-.663-.039h-1.227a7.033 7.033 0 0 0-.986.174 1.925 1.925 0 0 1 .818-.374c.56.234 1.062-.246 1.6-.038a4.67 4.67 0 0 0 2.895.14z" transform="translate(-433.042 -242.182)"/>
    <path id="Path_133" data-name="Path 133" class="cls-1" d="M441.871 246.964c.341.13.806.19.944.585a4.825 4.825 0 0 0 1.857.362c.541-.037.821.657 1.391.4.409.377 1.047.392 1.381.841a4.627 4.627 0 0 0 1.208.838c.262.349.733.115 1.023.391a7.49 7.49 0 0 0 .668.826c.586.161.892.756 1.3 1.159a12.879 12.879 0 0 1 1.253 1.06v.073c-.366-.083-.553-.5-.943-.635-.261-.424-.8-.607-1.032-1.055-.218-.177-.536-.159-.7-.409a8.129 8.129 0 0 1-.794-.8 6.028 6.028 0 0 1-1.841-1.073 20.4 20.4 0 0 0-2.576-1.188 5.644 5.644 0 0 1-1.684-.431 3.944 3.944 0 0 1-1.32-.275l-.861.127c-.387-.278-.785-.042-1.18.023-.392-.058-.887.152-1.2-.151-.219-.078-.3.19-.495.161a14.554 14.554 0 0 0-1.5.261 2.4 2.4 0 0 1-.934.028c-.023-.026 0-.1 0-.147.525-.431 1.281-.168 1.922-.251.3-.141.711-.009 1.033-.1.641-.133 1.352-.042 1.994-.175a4.473 4.473 0 0 1 1.152.05.89.89 0 0 0 .44.059c.1-.046.053-.146.079-.244-.313-.228-.784-.092-1.148-.222a8.322 8.322 0 0 0-1.915-.019c-.449.309-1.06.172-1.6.234a6.239 6.239 0 0 1 .791-.2c.574-.38 1.331-.215 1.971-.274l1.322.178z" transform="translate(-425.023 -244.244)"/>
    <path id="Path_134" data-name="Path 134" class="cls-1" d="M434.839 252.978a1.025 1.025 0 0 1 .713-.008l1.276-.02c.317.13.687.04 1.029.146a4.573 4.573 0 0 0 2.246.566c.362.278.879.192 1.215.568.314.228.7.385 1.018.588.073 0 .2.054.247-.044 1.2.3 1.762 1.317 2.728 2.026.462.182.749.557 1.188.714a3.255 3.255 0 0 0 1.01.908c.167.2.384.425.278.717-.389-.156-.651-.579-.913-.879a7.49 7.49 0 0 1-.965-.783c-.1 0-.123.046-.15.119 0 .221.237.349.332.524.657.26.836 1.026 1.418 1.333.117.223.383.451.255.717l-.434-.377c-.062-.567-.547-.8-.907-1.15-.07-.174-.29-.228-.286-.424-.168-.152-.389-.156-.458-.378-.218-.1-.262-.35-.429-.55a13.67 13.67 0 0 1-1.2-1.182 4.4 4.4 0 0 0-1.428-.843 1.013 1.013 0 0 0-.975-.317l-.074.024a2.632 2.632 0 0 0-1.943-.928 1.887 1.887 0 0 0-1.562-.4c-.564-.037-.919-.586-1.538-.4a4.214 4.214 0 0 1-1.572.014 3.027 3.027 0 0 1-1.154 0c-.372.164-.882-.093-1.185.243.121.1.341.131.461.231l.761.018c1.229-.021 2.476.179 3.629.254.264.227.735.09 1 .317a3.655 3.655 0 0 0 1 .219 4.693 4.693 0 0 0 1.51.574 15.437 15.437 0 0 1 1.528.821c.584.235 1.441.352 1.645 1.069.184.544.945.537 1.1 1.081.242.178.406.5.772.582.237.374.675.58.788 1.024.212.422.372.942.858 1.15.243.1.112.444.132.665-.418.015-.4-.573-.821-.632a3.928 3.928 0 0 1-.516-1.067c-.111-.47-.652-.457-.815-.9a4.544 4.544 0 0 1-.693-.826 7.186 7.186 0 0 1-1.522-1.091c-.091-.271-.412-.2-.606-.332a1.3 1.3 0 0 1-.894-.659 11.621 11.621 0 0 0-1.29-.471 2.282 2.282 0 0 0-1.19-.592c-.691.156-1.172-.272-1.731-.505a13.762 13.762 0 0 1-1.394-.253 6.245 6.245 0 0 1-2.769-.26 13.579 13.579 0 0 1-1.371-.129c-.464-.158-.911.1-1.425.016a3.034 3.034 0 0 0-.668.231l-.811.055c-.023-.05-.147-.027-.1-.125.2-.094.4-.408.668-.206a3.234 3.234 0 0 0 1.185-.292 2.677 2.677 0 0 0 1.756-.549c.322-.092.662.064.984-.1.369.008.685.138 1.053.171z" transform="translate(-419.913 -248.879)"/>
    <path id="Path_135" data-name="Path 135" class="cls-1" d="M429.888 258.8a6.114 6.114 0 0 1 1.664.234c.834.044 1.59.258 2.45.228.437.256.927.266 1.363.522.267.129.637.088.826.363a4.353 4.353 0 0 1 1.533.624c.221-.02.388.2.634.185.142.224.588.111.554.479a3.551 3.551 0 0 0 1.912 1.222c.315.18.6.481.87.658.612.064.57.823 1.106 1.032.5.527.757 1.269 1.36 1.725l.638 1.094a.413.413 0 0 1-.006.295l-.462-.256a1.83 1.83 0 0 0-1-1.421 6.022 6.022 0 0 1-.521-.847c-.287-.35-.774-.509-.962-.906a2.822 2.822 0 0 0-.868-.658c-.141-.3-.51-.257-.726-.483a7.344 7.344 0 0 1-1.642-1.216c-.171-.029-.192-.2-.313-.277a29.735 29.735 0 0 0-3.356-1.451 3.161 3.161 0 0 0-1.735-.334c-.372.138-.608-.259-1-.243a7.281 7.281 0 0 1-1.64-.21 2.5 2.5 0 0 1-.977-.193c-.345.066-.808-.141-1.084.122-.518.136-1.154 0-1.6.283a1.818 1.818 0 0 0-1.111.27l-.515-.037c-.021-.124.127-.169.226-.216a7.043 7.043 0 0 0 1.286-.412 10.868 10.868 0 0 1 2.977-.251l.121.076z" transform="translate(-416.907 -253.397)"/>
    <path id="Path_136" data-name="Path 136" class="cls-1" d="M429.065 262.232c.073.05.022.123 0 .2-.47.087-.855-.24-1.3-.3-.367-.058-.679-.384-1.077-.2-.516.061-1.011.223-1.552.283-.477.456-1.234.267-1.757.6a11.21 11.21 0 0 1-1.579.333c-.05 0-.147-.028-.146-.076a6.234 6.234 0 0 1 1.24-.562 13.082 13.082 0 0 0 1.606-.454 2.831 2.831 0 0 1 1.432-.311 4.907 4.907 0 0 1 2.232.149 5.622 5.622 0 0 1 .9.34z" transform="translate(-414.121 -255.701)"/>
    <path id="Path_137" data-name="Path 137" class="cls-1" d="M442.9 264.617c-.372.188-.76-.042-1.2 0l-.048-.051c.272-.042.594-.182.886-.029a.4.4 0 0 1 .366.082z" transform="translate(-429.512 -257.851)"/>
    <path id="Path_138" data-name="Path 138" class="cls-1" d="M428.081 266c.606.308 1.163.64 1.771.924a7.746 7.746 0 0 1 .939.807c.46.3 1.05.293 1.459.622.436.28.621.8 1.132.934a6.564 6.564 0 0 1 1.1 1.4c.343.057.334.426.552.6.256.6.913.905 1.143 1.573a2.76 2.76 0 0 0 .786 1.05l.043.3.393.033c.045.125.164.274.163.347-.146-.076.69 1.011.426 1.2-.487-.183-1.1-1.923-1.585-2.056a4.865 4.865 0 0 1-.854-1.321c-.333-.475-.866-.806-1.073-1.4a1.749 1.749 0 0 1-.5-.747 5.367 5.367 0 0 0-1.887-1.246c-.242-.128-.334-.4-.5-.576-.1-.1-.246.018-.367-.083a8.33 8.33 0 0 1-1.136-.762c-.656-.285-1.209-.789-1.841-1.1-.267-.178-.613-.063-.879-.242-.512-.134-.921-.536-1.487-.451l-.341-.081a6.275 6.275 0 0 0-2.388.289c-.71-.139-1.473-.033-2.208-.124a3.337 3.337 0 0 0-1.554.333 21.76 21.76 0 0 0-2.37.561 2.221 2.221 0 0 1-1.142.514c-.3.116-.476.431-.795.4.206-.388.648-.4.925-.716a3.132 3.132 0 0 1 1.612-.724c.424-.285.987-.174 1.457-.336a4.164 4.164 0 0 1 2.192-.294 9.916 9.916 0 0 0 1.5.009 2.029 2.029 0 0 1 1.375-.016 1 1 0 0 0 .645-.3c.584.234 1.158-.195 1.692.088.562.111.994.563 1.607.6z" transform="translate(-409.058 -258.495)"/>
    <path id="Path_139" data-name="Path 139" class="cls-1" d="M421.57 269.581c.439.133.7.483 1.114.64a6.167 6.167 0 0 1 1.673.922 1.657 1.657 0 0 0 1.144.468c.516.012.6.6 1.038.785a3.625 3.625 0 0 1 1.4.94c.136.519.746.68.808 1.2.072.051.122.052.168.127l-.148.021a10.122 10.122 0 0 0-1.829-1.588 3.567 3.567 0 0 1-1.208-.886c-.313-.277-.807-.166-1.093-.491a5.839 5.839 0 0 1-1.112-.812c-.565.012-.923-.413-1.385-.645l-1.607-.626c-.169-.1-.247.068-.394.064-1.106.073-2.276-.347-3.221.172-.546.258-1.231.12-1.753.4-.025.048-.026.123-.076.121l-.1-.075c-.738.056-1.383.361-2.122.467-.719.3-1.414.607-2.109.959-.346.115-.765.2-.9.617a2.071 2.071 0 0 0-1.369.829 1.8 1.8 0 0 1-.616.059c.256-.435.843-.325 1.122-.735.205-.389.6-.528.974-.739a21.919 21.919 0 0 0 2.284-1.127c1.013-.3 2.146-.393 3.184-.713a7.527 7.527 0 0 0 1.412-.508 10.917 10.917 0 0 0 2.238-.195c.3-.116.637.039.888-.176a4.835 4.835 0 0 1 1.585.527z" transform="translate(-403.52 -261.383)"/>
    <path id="Path_140" data-name="Path 140" class="cls-1" d="M419.486 269.561a6.776 6.776 0 0 1-1.433.385c-.5.308-1.155.047-1.581.456-.344-.008-.618.157-.96.1-.228.314-.645.3-.966.4a8.193 8.193 0 0 1-1.812.867c-.3.19-.48.6-.869.422a.8.8 0 0 1 .306-.509c.423-.236.988-.248 1.316-.633.621-.3 1.313-.51 1.933-.815.886-.078 1.656-.478 2.519-.606a4.785 4.785 0 0 0 1.328-.093l.22.005v.024z" transform="translate(-406.585 -261.751)"/>
    <path id="Path_141" data-name="Path 141" class="cls-1" d="M416.369 273.683a1.014 1.014 0 0 0 .539.012c.365.13.833.092 1.2.223.563.111.918.684 1.4.94a7.72 7.72 0 0 1 1.631.627 1.7 1.7 0 0 0 .948.438c.045.174.015.418.235.448a1 1 0 0 1 .78.239c.239.251.657.237.9.535a2.936 2.936 0 0 0 1.179 1.083c.091.346.508.355.749.557a9.512 9.512 0 0 0 1.246 1.379c.166.3.454.5.645.8l.456.428c.017.343.382.451.524.724l.231.643a1.212 1.212 0 0 1 .39 1.213h-.073c-.14-.3-.529-.528-.47-.9-.013-.516-.6-.7-.711-1.17-.243-.128-.286-.375-.354-.6a1.379 1.379 0 0 1-.789-.9c-.361-.377-.6-.848-1.081-1.08-.312-.326-.725-.533-1.036-.859-.212-.4-.779-.337-.991-.71-.111-.543-.676-.531-.987-.858-.437-.206-.823-.485-1.261-.667-.263-.325-.654-.383-.944-.635a2.089 2.089 0 0 1-1.456-.72c-.727-.459-1.66-.455-2.436-.867a8.169 8.169 0 0 0-2.678.087 1.114 1.114 0 0 0-.889.226 8.5 8.5 0 0 0-2.415.387c-.518.111-.966.346-1.484.433-.613-.014-.945.519-1.44.7-.768.277-1.347.9-2.09 1.205-.3.434-.921.544-1.25.953-.2.29-.5.382-.727.623.035-.417.459-.751.834-.988.8-.449 1.375-1.1 2.194-1.473.532-.724 1.54-.776 2.239-1.275.421-.163.887-.153 1.333-.289a6.2 6.2 0 0 1 1.952-.57c.787-.055 1.436-.532 2.22-.416a3.21 3.21 0 0 1 1.448.034l.294.031z" transform="translate(-400.421 -264.846)"/>
    <path id="Path_142" data-name="Path 142" class="cls-1" d="m410.385 277.5.492-.038a19.114 19.114 0 0 0 2.053.44 4.5 4.5 0 0 0 1.456.72c.458.355 1.2.126 1.557.65.432.427 1.141.591 1.6.994.286.374.772.557 1.009.98.58.431 1.312.595 1.79 1.195.339.228.5.6.865.829-.106.391.36.377.5.625a8.664 8.664 0 0 0 1.048 1.449c.158.593.739.925.7 1.587a.489.489 0 0 1 .207.594l-.05.048c-.292-.105-.184-.544-.45-.723-.113-.469-.547-.8-.683-1.268-.365-.155-.207-.643-.621-.75-.12-.15-.338-.254-.357-.5-.448-.845-1.421-1.21-1.87-2.031a2.009 2.009 0 0 1-.868-.683 21.946 21.946 0 0 1-2.2-1.523c-.415-.132-.7-.458-1.092-.565-.363-.2-.7-.457-1.04-.662l-.491-.036a1.686 1.686 0 0 0-1.024-.317 5.263 5.263 0 0 0-1.949-.683c-.271.042-.447.235-.694.3a3.938 3.938 0 0 0-1.8.2c-.421.163-.934.053-1.355.215-.248.093-.59-.012-.838.128a3.8 3.8 0 0 1-1.287.438c-.991.42-2.009.887-2.976 1.307-.2.266-.6.331-.751.646-.843.349-1.159 1.276-1.954 1.675a4.945 4.945 0 0 1-1.146.76 19.619 19.619 0 0 0-1.166 1.653 9.65 9.65 0 0 1 .921-1.624c.231-.461.747-.5 1-.91.452-.456 1.243-.634 1.5-1.243a7.781 7.781 0 0 1 1.7-1.287l.8-.473a16.206 16.206 0 0 0 1.513-.654 2.4 2.4 0 0 1 1.037-.247 6.326 6.326 0 0 1 2.544-.605c.687-.033 1.354-.19 2.017-.174l.174-.12c-.162-.446-.734-.115-1.052-.2-.2.118-.44-.059-.639.035-.4.286-.958.028-1.4.165l-1.111.245c-.57.233-1.163.367-1.684.624l-.369.017a12.7 12.7 0 0 0-2.24 1.3 12.49 12.49 0 0 0-1.5 1.021 3.4 3.4 0 0 1-.949.74 8.838 8.838 0 0 1-1.3 1.223h-.049c.184-.536.827-.766 1.182-1.225.232-.511.8-.645 1.177-1.029a10.159 10.159 0 0 0 1.823-1.333c.991-.42 1.746-1.213 2.878-1.286l1.926-.472c.737-.032 1.381-.312 2.118-.32a6.175 6.175 0 0 1 1.372.179z" transform="translate(-395.145 -267.749)"/>
    <path id="Path_143" data-name="Path 143" class="cls-1" d="M410.366 282.981c.582.333 1.321.227 1.852.656.536.184.919.659 1.454.868l.072.075c-.024 0-.048 0-.05.024.1.051.269.055.415.132.19.275.557.333.7.606a12.764 12.764 0 0 1 2.266 1.867c.194.1.287.375.48.478a2.857 2.857 0 0 1 1.076 1.276c.707.237.711 1.1 1.193 1.5.142.273.135.593.251.865l.429.55a1.925 1.925 0 0 0 .421.967c0 .172-.008.343-.2.339-.2-.029-.141-.3-.285-.424-.292-.154-.185-.52-.3-.792-.14-.3-.407-.476-.571-.775-.013-.54-.5-.846-.608-1.339-.02-.246-.337-.3-.355-.549-.243-.177-.207-.642-.55-.7a1.578 1.578 0 0 0-.65-.555 4.237 4.237 0 0 0-1.515-1.434c-.81-1.074-2.077-1.5-3.089-2.354a6.351 6.351 0 0 1-1.651-.8 4.257 4.257 0 0 1-1.366-.423 5.719 5.719 0 0 0-2.252-.3 14.789 14.789 0 0 0-1.505.335 6.28 6.28 0 0 0-1.793.008c-.821.448-1.8.5-2.625.972-.795.424-1.684.65-2.431 1.1-.878.815-1.85 1.456-2.656 2.345a4.023 4.023 0 0 0-1.355 1.295c-.526.431-.715 1.188-1.169 1.717-.279.387-.362.826-.666 1.213a13.81 13.81 0 0 1 .905-2.067 6.483 6.483 0 0 1 .914-1.33c.15-.094.228-.314.4-.433.323-.19.381-.605.751-.645 1.3-.806 2.062-2.163 3.453-2.844.866-.275 1.638-.8 2.552-1 .2-.216.543-.11.768-.277.738-.057 1.266-.61 2.1-.469.445-.161.933.046 1.4-.016l.938-.25a8.862 8.862 0 0 1 2.4.349l.461.231z" transform="translate(-392.315 -271.64)"/>
    <path id="Path_144" data-name="Path 144" class="cls-1" d="M415.3 286.375a6.477 6.477 0 0 1 2.14.933 4.57 4.57 0 0 1 .511.233c.467.01.677.457 1.066.612a7.668 7.668 0 0 1 1.306.89c.5.649 1.177 1.156 1.678 1.757.219.1.336.376.5.526a11.93 11.93 0 0 1 1.409 1.776c.093.223.135.494.353.645.041.37.43.55.495.92.119.175.336.377.479.551a.653.653 0 0 0 .281.645c.111.469.423.8.411 1.311a.117.117 0 0 1-.172.02 1.427 1.427 0 0 1-.347-.891.354.354 0 0 0-.265-.227c-.46-.28-.374-.818-.686-1.17-.039-.442-.451-.7-.588-1.118-.245-.055-.115-.346-.259-.521-.191-.226-.507-.38-.648-.628-.27-.032-.214-.35-.284-.523a11.529 11.529 0 0 1-1.218-1.475 7.352 7.352 0 0 1-1.275-1.183c-.384-.4-.922-.512-1.23-.961a12.3 12.3 0 0 0-1.429-.866 5.509 5.509 0 0 0-1.727-.678 3.142 3.142 0 0 1-1.783-.458c-.463-.158-.813.1-1.278.044a15.886 15.886 0 0 0-2.876.13c-.3.215-.662.01-.985.15a3.949 3.949 0 0 0-.72.377c-.759-.141-1.023.688-1.732.574-.493.062-.7.6-1.146.735-.248.093-.328.337-.575.43a14.071 14.071 0 0 0-2.217 1.4c-.523.307-.831.89-1.282 1.3a4.961 4.961 0 0 1-.978.911.543.543 0 0 1 .256-.486 6.96 6.96 0 0 0 1.231-1.175c.627-.624 1.227-1.077 1.9-1.675.574-.405 1.1-.81 1.7-1.166.468-.087.823-.521 1.291-.609.548-.356 1.212-.439 1.736-.746a7.758 7.758 0 0 0 1.5-.286 1.321 1.321 0 0 0 .764-.081 7.1 7.1 0 0 0 2.068-.248 22.615 22.615 0 0 1 2.62.3z" transform="translate(-397.628 -274.479)"/>
    <path id="Path_145" data-name="Path 145" class="cls-1" d="M404.992 289.976a4.208 4.208 0 0 1 2.928.8 10.456 10.456 0 0 1 2.155 1.35 1.956 1.956 0 0 0 1 .342l.654.432c.42-.138.582.259.848.462a1.885 1.885 0 0 1 1.371 1.234 4.73 4.73 0 0 0 1.2 1.4c.574.626.971 1.5 1.522 2.17a2.537 2.537 0 0 0 .78 1.3 4.9 4.9 0 0 0 .805 1.319c.022.123-.125.12-.173.069a6.956 6.956 0 0 1-1.5-1.9c.127-.17-.094-.2-.166-.3-.213-.373-.351-.769-.538-1.166-.361-.3-.4-.893-.884-1.1a13.118 13.118 0 0 0-2.055-2.478c-.207-.569-.821-.608-1.334-.717a2.535 2.535 0 0 0-1.069-.515 7.2 7.2 0 0 0-2.135-1.154c-.242-.177-.533-.307-.649-.6-.511-.183-.843-.706-1.459-.647a11.778 11.778 0 0 0-1.3.069 3.1 3.1 0 0 0-.958.027 6.424 6.424 0 0 0-1.2-.149 2.24 2.24 0 0 1-1.337.486l-1.015.369c-.586-.136-.844.375-1.289.536-.277.338-.742.277-1.092.539-.868.325-1.618.947-2.462 1.345-.48.578-1.1.932-1.508 1.512-.782.94-1.9 1.553-2.394 2.7-.674.525-.672 1.507-1.106 2.21a4.087 4.087 0 0 1-.164.758c.005-.222.111-.563.143-.857a4.29 4.29 0 0 1 .262-.73c.107-.366-.006-.811.3-1.1a4.8 4.8 0 0 0 1.216-1.667c.578-.577 1.2-1.078 1.805-1.654.254-.314.363-.8.832-.938l.546-.258c.256-.436.725-.573 1.124-.834a6.122 6.122 0 0 0 .97-.518c.249-.166.569-.208.724-.524a2.152 2.152 0 0 0 .722-.425l.493-.087a1 1 0 0 1 1.113-.392c.176-.193.47-.137.669-.231.4-.236.913-.225 1.311-.437a7.454 7.454 0 0 1 1.645.012l.664-.059z" transform="translate(-390.109 -277.481)"/>
    <path id="Path_146" data-name="Path 146" class="cls-1" d="M467.384 291.673a2.207 2.207 0 0 1 1.215.544c.173-.021.216.226.388.254l.562.111c.4.623 1.111.787 1.617 1.265v.049c-.319-.007-.46-.28-.755-.288-.652-.481-1.357-.792-2.034-1.273a3.235 3.235 0 0 1-1.119-.491.429.429 0 0 1-.41-.3c.223-.069.341.13.537.135z" transform="translate(-448.904 -278.678)"/>
    <path id="Path_147" data-name="Path 147" class="cls-1" d="M427.935 293.164a4.7 4.7 0 0 0 1.013.833l.463.134a1.089 1.089 0 0 0 .68.358c.458.379 1.115.64 1.346 1.21.643.947 1.736 1.415 2.279 2.385a5.864 5.864 0 0 1 1.021 1.521c.24.276.6.431.744.778a13.327 13.327 0 0 0 1.538 2.563c.155.74.881 1.248.862 2.034.144.175.015.418.06.615-.213-.373-.5-.821-.734-1.22a1.672 1.672 0 0 0-.443-1.017 6.092 6.092 0 0 0-.942-1.764 5.5 5.5 0 0 0-1.234-1.894 26.183 26.183 0 0 0-2.077-2.6c-.533-.307-.742-.876-1.3-1.134-.06-.566-.7-.557-.96-.98a3.172 3.172 0 0 0-1.4-.842 8.077 8.077 0 0 0-1.552-.87c-.167-.25-.466-.036-.684-.163l-1.078-.122a10.486 10.486 0 0 1-1.256.144 13.36 13.36 0 0 1-2.221.538.621.621 0 0 0-.52.136c-.418.014-.719.351-1.161.366-.3.191-.528.5-.826.62-.079.243-.347.164-.52.234-.651.5-1.059 1.18-1.824 1.382.106-.365.524-.381.727-.646.433-.7 1.416-.754 1.848-1.431.47-.137.56-.871 1.169-.661a2.148 2.148 0 0 0 .917-.372c.27.03.66.138.886-.078 1.013-.247 2.093-.271 3.106-.519l.786-.032c.439.158.954.169 1.291.5z" transform="translate(-410.696 -279.559)"/>
    <path id="Path_148" data-name="Path 148" class="cls-1" d="M407.076 296.242c.315.155.782.19.946.512-.47.186-.6-.431-1.071-.417a2.693 2.693 0 0 1-1.4-.155c-.541.012-1.176-.15-1.528.26.933.021 1.736.309 2.618.4.736.091 1.442.328 2.177.418.439.108.648.652 1.163.664.5.674 1.356.84 1.806 1.588-.516.037-.747-.632-1.234-.789-.118-.224-.361-.3-.578-.455a9.868 9.868 0 0 0-4.194-1.372c-.315-.18-.76-.017-1.126-.1a8.434 8.434 0 0 1-1.076-.221l-1.28.143a9.352 9.352 0 0 1-1.187.366c-.526.454-1.195.709-1.745 1.163a28.6 28.6 0 0 0-3.588 2.276c-.648.427-1.007 1.082-1.581 1.511-.422.187-.458.677-.782.915-.459.726-.941 1.427-1.376 2.2a16.338 16.338 0 0 1-.568 2.27 14 14 0 0 0-.143 2.034 5.137 5.137 0 0 0 .081 1.843 8.554 8.554 0 0 0 .437 2.366 9.444 9.444 0 0 0 .8 1.664v.2c-.293-.13-.357-.524-.522-.8-.423-.894-.5-1.926-.869-2.844.056-.294-.137-.469-.205-.692a15.117 15.117 0 0 0 .048-2.112 2.674 2.674 0 0 0 .028-1.25c.109-.415.29-.828.421-1.218a3.256 3.256 0 0 1 .485-1.9c.451-.407.491-1.069.918-1.477.154-.316.381-.58.56-.871.186-.634.93-.936 1.287-1.493a6.853 6.853 0 0 1 1.473-1.071 2.633 2.633 0 0 1 .922-.618 5 5 0 0 0 1.893-1.16 16.466 16.466 0 0 0 1.892-1.086 4.372 4.372 0 0 0 1.164-.44 5.814 5.814 0 0 0 1.876-.448c.614.014 1.186-.268 1.793-.033.389.156.857.093 1.272.225z" transform="translate(-390.562 -282.064)"/>
    <path id="Path_149" data-name="Path 149" class="cls-1" d="M509.186 298.906c-.146-.052-.215-.226-.286-.374l.052-.122a.732.732 0 0 1 .234.5z" transform="translate(-481.271 -283.978)"/>
    <path id="Path_150" data-name="Path 150" class="cls-1" d="M407.784 300.753a10.6 10.6 0 0 1 2.662.625 9.416 9.416 0 0 1 2.471 1.5c.341.106.508.355.823.51.392.034.631.333.972.465.413.205.425.721.787 1 .278.769 1.174 1.328 1.476 2.072.389.181.4.673.64.972a5.5 5.5 0 0 1 .918 1.715c.383.45.368 1.089.7 1.563a.815.815 0 0 1 .129.814c.116.322.058.664.149.96 0 .049-.074.047-.075.1-.147-.052-.168-.2-.189-.324.053-.17-.141-.273-.163-.421-.117-.248-.061-.566-.326-.769.132-.414-.18-.741-.172-1.084a4.539 4.539 0 0 0-.8-1.663c-.159-.568-.664-1.022-.873-1.542-.219-.079-.214-.324-.332-.523-.235-.448-.891-.758-.953-1.3l-.888-.88c-.157-.667-.866-.805-1.4-.99a3.812 3.812 0 0 0-1.206-.961c-.459-.329-.975-.341-1.408-.743-.437-.182-.823-.535-1.34-.448a4.121 4.121 0 0 0-2.374-.4 12.012 12.012 0 0 0-1.606.479c-.727.671-1.9.4-2.58 1.144-.1.12-.27-.007-.395.089-.59.085-.7.721-1.246.856a2 2 0 0 1-.7.4c-.355.508-.947.617-1.4.951-.2.019-.227.265-.376.335-.3.288-.7.549-.807.963a3.852 3.852 0 0 1-.909 2.141 6.417 6.417 0 0 0-.627 1.656c-.376.36-.267.976-.45 1.438-.515 1.045-.027 2.259-.27 3.284a7.827 7.827 0 0 0 .35 1.875 1.3 1.3 0 0 0 .181.666 12.423 12.423 0 0 0 .6 1.586 11.865 11.865 0 0 1 .685 1.219c-.075.047-.173-.005-.269-.032-.24-.25-.231-.668-.444-.991l-.474-.747-.6-1.708a6.189 6.189 0 0 1-.156-1.772c-.141-.322-.009-.687-.1-1.034l-.07-1.253c.058-.392.287-.755.2-1.174.206-.437.218-.952.375-1.391a12.876 12.876 0 0 1 1.178-2.135.936.936 0 0 1 .283-.582c-.065-.394.356-.556.316-.951-.44-.108-.478.457-.679.7-.213.707-1.008 1.131-1.051 1.94a6.839 6.839 0 0 0-.808 2.069c.029.885-.432 1.709-.232 2.622a8.692 8.692 0 0 0 .171 1.109c-.032.318-.188.732.051.983a9.847 9.847 0 0 0 .959 3.19 3.163 3.163 0 0 1 .449.8 5.6 5.6 0 0 0 1.223 1.3l.642.9c-.486-.231-.743-.8-1.1-1.2a.751.751 0 0 1-.528-.552 13.2 13.2 0 0 1-1.233-1.967 1.386 1.386 0 0 0-.37-.991 4.222 4.222 0 0 1-.311-2.536c-.288-.3-.079-.861-.167-1.256-.128-.863.21-1.714.008-2.553.523-.308.343-1.023.7-1.482a10.62 10.62 0 0 1 .926-1.82c.3-.411.44-.973.89-1.331a1.743 1.743 0 0 0 .827-.743 4.237 4.237 0 0 1 1.549-1.143c.574-.429 1.174-.906 1.773-1.311.2-.192.523-.332.724-.548.519-.136.969-.518 1.537-.653.37-.065.717-.2 1.087-.27.32-.091.6-.306.917-.421a.746.746 0 0 0 .52-.185c0-.171-.242-.152-.364-.179-.611-.161-.827.742-1.458.409a3.485 3.485 0 0 0-1.588.725 13.246 13.246 0 0 0-2.115 1.229 2.38 2.38 0 0 1-.922.593 9.105 9.105 0 0 1-1.6 1.093c-.2.167-.354.434-.555.626-1 .591-1.364 1.712-2.022 2.533a10.086 10.086 0 0 0-1.15 4.147 4.775 4.775 0 0 0 .011 1.67 9.394 9.394 0 0 0 .851 4.661c.1 1.009 1.047 1.522 1.518 2.366a5.962 5.962 0 0 0 2.412 1.922 14.242 14.242 0 0 0 1.4.989 7.936 7.936 0 0 0 1.07.491 5.26 5.26 0 0 0-.66-.113 9.112 9.112 0 0 0-1.5-.846c-.411-.279-.644-.824-1.208-.886-.433-.379-1.018-.588-1.349-1.136-.431-.5-.911-1-1.317-1.479-.344-1.063-.962-1.986-1.256-3.048l-.279-1.749-.018-1.376a1.146 1.146 0 0 1-.006-.81.884.884 0 0 0-.037-.565l.212-1.738a9.756 9.756 0 0 0 .3-1.467c.556-.7.82-1.528 1.377-2.252a22.541 22.541 0 0 1 1.588-1.829c.28-.461.774-.6 1.2-.906.345-.066.524-.358.8-.572a39.5 39.5 0 0 1 3.458-2.007 1.607 1.607 0 0 1 1.194-.661c.709.163 1.213-.415 1.874-.326a5.969 5.969 0 0 0 1.737.285z" transform="translate(-392.84 -285.555)"/>
    <path id="Path_151" data-name="Path 151" class="cls-1" d="m395.242 302.756-.358.581a16.109 16.109 0 0 0-1.924 1.479c-.1.169-.206.413-.429.48-.333.632-1.1.835-1.287 1.543-.15.119-.2.289-.376.361a17.767 17.767 0 0 0-1.059 2.283 18.234 18.234 0 0 0-.641 2.318c-.286.706.014 1.522-.1 2.233-.19-.225-.034-.615-.1-.911a5.153 5.153 0 0 1-.021-.445v-.06a5.757 5.757 0 0 1 .373-1.991 9.394 9.394 0 0 1 .816-2.462c.039-.588.56-.847.817-1.332a5.035 5.035 0 0 1 1.516-1.882l.757-.891c.253-.314.672-.378 1-.665a8.381 8.381 0 0 1 2.077-1.745l.52-.185a7.934 7.934 0 0 1-1.576 1.29z" transform="translate(-388.944 -286.33)"/>
    <path id="Path_152" data-name="Path 152" class="cls-1" d="M482.945 306.136c.192.176.109.592.451.673l.648.653a.941.941 0 0 1 .355.6c.215.251.578.5.744.754.14.347.352.7.468 1.066l.379.6c.363.278.5.8.811 1.075.159.568.816.8.876 1.394l.157.667c-.051.1-.148.046-.221.02-.5-.675-.8-1.418-1.3-2.092.009-.393-.379-.6-.544-.9-.108-.64-.637-1.119-.92-1.665a13.1 13.1 0 0 1-1.264-1.626 15.154 15.154 0 0 0-2.065-2.108c-.1-.076-.24-.2-.188-.324.708.163 1.062.785 1.618 1.216z" transform="translate(-460.04 -288.989)"/>
    <path id="Path_153" data-name="Path 153" class="cls-1" d="M448.272 304.632c.591-.061.9.413 1.387.572a11.952 11.952 0 0 1 2.181 1.252 4.993 4.993 0 0 1 1.832 1.515l.171.029c.794.705 1.189 1.722 1.934 2.426a4.573 4.573 0 0 1 .345 2.119c.3.719.383 1.556.659 2.3a22.334 22.334 0 0 1 .869 2.843c0 .074-.03.27-.175.169-.336-.352-.224-.938-.511-1.313-.311-.351-.25-.89-.387-1.311-.484-.33-.152-.887-.363-1.333.08-.293-.334-.451-.2-.741-.215-.275-.012-.59-.128-.887a7.481 7.481 0 0 0-.119-1.279c-.385-.328-.423-.821-.784-1.123-.068-.3-.333-.475-.475-.723-.194-.127-.236-.423-.5-.552-.161-.519-.823-.559-1.081-1.056-.438-.182-.671-.728-1.187-.739a11.475 11.475 0 0 0-1.961-1.222 1.12 1.12 0 0 0-.637-.04 2.088 2.088 0 0 1-.535-.232c.1-.047.342.081.443-.064a.7.7 0 0 0-.559-.234c-.343-.057-.656-.285-1-.366a13.744 13.744 0 0 0-2.508.139c.051-.121.249-.117.349-.237a4.754 4.754 0 0 0 .791-.228 8.786 8.786 0 0 1 2.153.319z" transform="translate(-432.072 -288.521)"/>
    <path id="Path_154" data-name="Path 154" class="cls-1" d="M414.882 307.595c.093.223.341.131.51.232a5.544 5.544 0 0 0 1.589.306 10.518 10.518 0 0 0 1.6.921l.582.332c.481.478 1.111.787 1.442 1.408a26.271 26.271 0 0 1 2.337 4.129c.133.641.365 1.237.448 1.876a12.013 12.013 0 0 1 .516 2.173 12.166 12.166 0 0 0 .061 1.621 1.1 1.1 0 0 1-.375-.769 1.379 1.379 0 0 0-.071-1.205 10.894 10.894 0 0 0-.718-2.963c-.094-1.279-.881-2.279-1.347-3.419l-.645-.751c-.207-.644-.765-.951-1.2-1.452-.272.044-.339-.228-.433-.4-.267-.153-.636-.113-.75-.459a3.166 3.166 0 0 1-.685-.138 5.278 5.278 0 0 0-1.6-.848 4.771 4.771 0 0 0-1.176-.075c-.193-.176-.639-.015-.606-.383a1.4 1.4 0 0 0-.833-.116 22.8 22.8 0 0 0-2.933.522c-.524.382-1.188.366-1.688.8-.458.7-1.3 1.076-1.857 1.774-.648.453-.863 1.233-1.486 1.662a13.051 13.051 0 0 0-1.1 2.086 2.272 2.272 0 0 0-.588.993c.01.615-.368 1.048-.43 1.635a2.283 2.283 0 0 0-.44 1c-.087.612.293 1.209.083 1.769a4.37 4.37 0 0 1 .27 1.111c-.128 1.25.812 2.031.934 3.189.064.393.45.673.44 1.115a5.233 5.233 0 0 0 1.624 2.026c.532.331.991.661 1.5 1.04.778.361 1.426 1.016 2.227 1.4.223-.045.292.13.363.278v.049a2.967 2.967 0 0 1-1.528-.8 23.247 23.247 0 0 1-2.47-1.554c-.262-.35-.775-.484-.986-.907a2.462 2.462 0 0 1-.683-1.267c-.425-.747-.8-1.517-1.152-2.286-.431-.451-.266-1.209-.474-1.8-.212-.4-.078-.886-.166-1.33.11-.513-.151-.911-.09-1.45a2.012 2.012 0 0 0-.034-.664 5.463 5.463 0 0 1 .351-1.416 2.841 2.841 0 0 1 .55-1.534c.179-.267.112-.612.436-.8.565-1.068 1.322-1.984 1.935-3.05a19.815 19.815 0 0 0 1.488-1.734c.591-.085.9-.692 1.4-.951a2.218 2.218 0 0 0 1.166-.539c.574-.4 1.358-.312 2-.519a6.156 6.156 0 0 1 1.352-.043c.246-.043.47-.186.738-.082a1.123 1.123 0 0 0 .608.26z" transform="translate(-399.655 -290.818)"/>
    <path id="Path_155" data-name="Path 155" class="cls-1" d="m458.187 307.9-.341-.105.293.08.048.026z" transform="translate(-441.975 -291.205)"/>
    <path id="Path_156" data-name="Path 156" class="cls-1" d="M417.458 310.81a11.758 11.758 0 0 1 3.008 1.591 1.3 1.3 0 0 0 .607.308c.338.278.549.724.988.881.12.1.043.271.138.4.14.3.505.478.645.8.423.868.868 1.787 1.266 2.631.034.664.416 1.189.4 1.85.262.35.153.839.292 1.211.212.421.075.982.337 1.382-.284.558.223 1.012.358 1.506a3.649 3.649 0 0 1 .316 1.235c-.3.041-.46-.281-.578-.481-.1-.886-.5-1.632-.557-2.517-.256-.6.005-1.3-.2-1.92-.162-.421-.521-.822-.51-1.338a20.188 20.188 0 0 0-1.065-2.823 4.114 4.114 0 0 1-.5-.821 12.9 12.9 0 0 0-1.268-1.528c-.556-.381-1.111-.761-1.642-1.191a1.884 1.884 0 0 0-.972-.44l-.873-.511a3.782 3.782 0 0 1-1.736-.334 1.418 1.418 0 0 0-1.007 0c-.176.168-.392-.009-.588-.013a1.786 1.786 0 0 0-.87.422 1.193 1.193 0 0 1-.588-.063c-.691.157-1.122.736-1.788.892a1.583 1.583 0 0 0-.555.651 5.941 5.941 0 0 0-1.378 1.221 10.534 10.534 0 0 0-1.186 1.373.7.7 0 0 0-.306.508 17.485 17.485 0 0 0-1 1.721 8.283 8.283 0 0 0-.373 1.342c-.451.407-.323 1.171-.773 1.554a1.816 1.816 0 0 1 .05 1.081 7.237 7.237 0 0 0 .26 1.528 6.129 6.129 0 0 0 .177 1.895c.023.1.094.2.193.176.124-.047.128-.243.132-.39a12.03 12.03 0 0 1-.141-1.355 11.6 11.6 0 0 0 .425-2.495 3.888 3.888 0 0 0 .1-1.3c-.025-.025-.024-.074-.073-.1-.476.431-.3 1.2-.555 1.755a1.581 1.581 0 0 1-.047.957c-.242-.128-.086-.469-.057-.689a7.075 7.075 0 0 1 .341-2.031c.5-.357.539-1.019.723-1.58a2.69 2.69 0 0 0 .365-.9c.4-.532.64-1.165 1.044-1.646a24.402 24.402 0 0 0 1.487-1.686c.473-.308.853-.815 1.35-1.075.868-.4 1.523-1.119 2.532-1.194a5.931 5.931 0 0 1 1.5-.26v.024a13.512 13.512 0 0 1-2.2.711 3.672 3.672 0 0 1-1.019.542 3.355 3.355 0 0 1-1.122.711 9.13 9.13 0 0 0-1.5 1.414 11.134 11.134 0 0 0-1.751 2.49c-.207.436-.316.95-.547 1.387.012.565-.2 1.15-.138 1.74a14.463 14.463 0 0 0-.47 2.347 6.16 6.16 0 0 0-.1 1.349 3.572 3.572 0 0 0 .223 2.043 4.972 4.972 0 0 0 1.142 2.678c.318.031.285.423.577.529.175-.144.108-.44.064-.638a15.833 15.833 0 0 1-.548-1.829 5.906 5.906 0 0 1-.512-2.32 2.361 2.361 0 0 0 .3-1.368c-.1-.1.027-.123.007-.246.04-.736.278-1.442.319-2.2a4.744 4.744 0 0 1 .355-1.564c-.116-.3.134-.512.31-.679l.408-.629c-.134.463-.267.951-.377 1.415a5.652 5.652 0 0 0-.533 1.9c-.162.635-.154 1.346-.292 2.007.037.565-.148 1.125-.161 1.715a9.563 9.563 0 0 0 .462 2.393c.277.766.405 1.6.708 2.349.218.1.311.35.555.405.1.149.09.345.235.448l-.025.048c-.5-.625-1.382-.817-1.784-1.514a6.841 6.841 0 0 1-.911-.953 9.162 9.162 0 0 0-.578-1.561c.113-.635-.643-.9-.653-1.511 0-.173-.142-.249-.188-.423a1.625 1.625 0 0 0-.144-1.231c-.018-.27.089-.636-.177-.814a.736.736 0 0 1 .205-.388c-.139-.372-.01-.663-.15-1.01-.067-.248.109-.464.212-.682-.056-.739.421-1.243.535-1.9.082-.366.117-.807.464-1 .26-.632.665-1.139.876-1.8a7.68 7.68 0 0 0 1.161-1.374 9.8 9.8 0 0 0 .933-1.084c.319.032.424-.308.624-.476a1.871 1.871 0 0 0 .627-.526c.2-.045.349-.262.547-.331.2-.094.376-.335.645-.28.275-.24.668-.255.92-.519a9.148 9.148 0 0 0 1.111-.27.656.656 0 0 0 .568-.111 2.218 2.218 0 0 0 .811-.055c.786-.007 1.311.643 2.127.441z" transform="translate(-401.488 -293.183)"/>
    <path id="Path_157" data-name="Path 157" class="cls-1" d="M422.8 314.168a2.16 2.16 0 0 1 .581.382c-.1.144-.294-.032-.44-.035a4.31 4.31 0 0 0-1.589-.33c-.124.022-.3.042-.371.139a.2.2 0 0 0 .045.173l1.177.076c.847.535 2.057.243 2.8.972a6.784 6.784 0 0 1 2.209 2.211c.187.422.646.751.783 1.22.274.916.647 1.808.945 2.7a6.026 6.026 0 0 0 .465 1.164 6.693 6.693 0 0 0 .445 3.079c.162.445.075 1.009.486 1.312.042.3.208.594.127.887-.269-.031-.411-.28-.579-.455a11.381 11.381 0 0 0-.506-1.558 5.471 5.471 0 0 0-.642-2l-.283-1.6c-.023-.075.051-.073.077-.121.219.079.04.393.234.52.187.4-.023 1.007.313 1.309.245.005.179-.292.207-.437a11.134 11.134 0 0 0-.683-2.4c-.015-.418-.53-.429-.5-.871l-.085-.591c-.406-.525-.464-1.215-.943-1.716-.384-.4-.444-.968-.853-1.394-.014-.467-.6-.5-.791-.853-.638-.015-.892-.758-1.56-.527-.172.021-.265-.2-.412-.255-.663.034-1.171-.346-1.783-.409-.146-.076-.289-.277-.488-.158-.2.143-.54-.012-.764.105a7.844 7.844 0 0 0-2.9 1.137c-.155.34-.547.331-.8.547a7.132 7.132 0 0 0-1.5 1.217c-.825.62-.923 1.7-1.409 2.547a3.357 3.357 0 0 0-.736 1.04l-.078 1.274c-.275.215-.064.662-.143.906.034.615-.345 1.121-.187 1.74a1.385 1.385 0 0 0-.075 1.127 4.656 4.656 0 0 0-.033 2.529c.383.451.269 1.136.628 1.585l.16.471c-.123.02-.218-.153-.29-.229-.289-.252-.106-.715-.445-.894a8.942 8.942 0 0 0-.508-1.436 6.735 6.735 0 0 1 .072-2.11l.008-1.423c.408-.678.258-1.615.5-2.347a6.411 6.411 0 0 1 .535-1.952 20.211 20.211 0 0 1 1.078-2.038c.437-.825 1.307-1.345 1.913-2.044.317.08.277-.289.57-.282a9.154 9.154 0 0 0 1.323-.9c.3-.214.74-.179.992-.469.888-.152 1.64-.847 2.618-.628a2.008 2.008 0 0 0 1.078.1z" transform="translate(-406.744 -295.999)"/>
    <path id="Path_158" data-name="Path 158" class="cls-1" d="M426.643 318.734c.812-.08 1.34.472 2.023.709.525.674 1.253 1.01 1.728 1.758.455.5.612 1.144 1.043 1.669.331.523.267 1.185.625 1.659.252.767-.013 1.646.289 2.389.112.469.421.967.188 1.478-.011.467.376.746.514 1.166.111.543.47.895.506 1.484.212.374.6.677.513 1.191-.051.073-.147.021-.2-.029a5.049 5.049 0 0 1-.939-1.887c.133-.464-.5-.576-.493-.993.112-.661-.419-.993-.578-1.561-.393-1.114-.462-2.344-.929-3.434a1.464 1.464 0 0 0-.468-1.017c-.189-.323-.179-.766-.443-1.041a9.656 9.656 0 0 0-2.719-2.492 5.909 5.909 0 0 0-3.267.1 6.034 6.034 0 0 0-2.187 1.177c-.2.34-.648.379-.9.643a2.471 2.471 0 0 0-1.262 1.543 9.4 9.4 0 0 0-.735.99c-.03.269-.232.486-.287.755-.185.585-.127 1.275-.508 1.781a8.127 8.127 0 0 0-.108 1.544c-.128.218-.037.564-.142.807-.421.236-.188.757-.3 1.172a4.966 4.966 0 0 0 .39 2.267 6.178 6.178 0 0 0 1.194 2.605c.114.4.551.627.539 1.092.219.079.312.352.531.454a32.362 32.362 0 0 0 3.344 1.942l-.344.017a9.428 9.428 0 0 1-3.345-1.893c-.245-.03-.314-.2-.385-.377-.152-.862-.95-1.4-1.278-2.141-.133-.616-.441-1.163-.524-1.8a3.744 3.744 0 0 1-.329-1.727c.085-.465.022-.982.107-1.445a6.439 6.439 0 0 0 .346-1.22l.069-.883a9.8 9.8 0 0 1 1.165-3.73c.5-.5.546-1.363 1.242-1.691.476-.406.834-1.013 1.308-1.345h.124c-.132.317-.5.358-.631.7a.16.16 0 0 0 .144.15 9.939 9.939 0 0 0 1.376-1.1 5.978 5.978 0 0 1 1.609-.576c.2-.168.517-.013.694-.279-.07-.173-.29-.154-.438-.157-.42.089-.815.251-1.236.34-.322.165-.7.4-1.043.542l-.024-.026a3.8 3.8 0 0 1 2.211-1.1c.42-.114.679.36 1.1.246a4.574 4.574 0 0 0 1.028.171 4.5 4.5 0 0 1 1.264.544c.289.277.706.287.919.66.505.429.785 1.074 1.368 1.406a9.542 9.542 0 0 1 1.461 3.791 2.486 2.486 0 0 1 .155.739 4.7 4.7 0 0 0 .557 1.413c.148-.021.1-.194.131-.316a5.469 5.469 0 0 1-.442-2.2c-.257-.571-.34-1.235-.572-1.83-.26-.448-.445-.919-.68-1.366.006-.344-.359-.426-.427-.722-.507-.38-.961-.93-1.443-1.334a3.133 3.133 0 0 0-2.648-1.239 2.06 2.06 0 0 1-.951-.291 6.352 6.352 0 0 0-1.672.109 7.268 7.268 0 0 1-1.593.921c-.252.314-.7.4-1 .689-.231.437-.68.746-.911 1.183-.573.33-.81 1.037-1.239 1.518l-.173.095c-.061-.541.437-.849.692-1.261.056-.318.355-.508.386-.826a6.419 6.419 0 0 0 1.525-1.168l.945-.519a3.794 3.794 0 0 1 2.208-.981 6.086 6.086 0 0 1 2.225.394z" transform="translate(-410.838 -299.318)"/>
    <path id="Path_159" data-name="Path 159" class="cls-1" d="M413.536 320.512c-.325.263-.457.628-.829.792-.178.29-.335.7-.658.844-.064-.369.358-.581.488-.922a2.613 2.613 0 0 1 1.052-.886l-.053.171z" transform="translate(-406.722 -300.858)"/>
    <path id="Path_160" data-name="Path 160" class="cls-1" d="M483.406 324.5c-.084.465.455.551.544.946.187.4.546.8.51 1.288a1.361 1.361 0 0 1-.425-.721c-.3-.744-.806-1.3-1.182-2.016-.1-.149-.338-.253-.259-.5a4.039 4.039 0 0 1 .812 1z" transform="translate(-461.012 -303.288)"/>
    <path id="Path_161" data-name="Path 161" class="cls-1" d="M431.667 325.733a14.9 14.9 0 0 1 1.443 1.359c.045.148.265.227.286.4.507.38.663 1.047 1.021 1.522a2.635 2.635 0 0 0 .514 1.165 4.92 4.92 0 0 1 .261 1.5 7.006 7.006 0 0 1 .614 2.15c.185.5.246 1.086.7 1.44a11.98 11.98 0 0 0 .995 2.675l.044.222c-.488-.134-.5-.7-.762-1.049-.378-.647-.608-1.339-.937-2.01-.215-.251-.057-.664-.173-.986a17.991 17.991 0 0 0-.471-1.976 4.75 4.75 0 0 1-.379-1.678 15.8 15.8 0 0 0-1.87-3.112c-.482-.355-.64-1.021-1.2-1.328a4.187 4.187 0 0 0-1.043-.539 8.843 8.843 0 0 0-2.139.1 4.61 4.61 0 0 0-2.341 1.469c-.2.216-.45.309-.6.576-.71.941-.859 2.117-1.422 3.136a6.337 6.337 0 0 0-.413 1.906c-.157.463-.145 1-.3 1.442a9.7 9.7 0 0 1-.1 2.232 3.338 3.338 0 0 0 .387 2.464c.133.642.711 1.121.72 1.834l-.122-.077a8.181 8.181 0 0 1-1.316-2.607 1.729 1.729 0 0 1-.339-1.261 8.781 8.781 0 0 0 .149-2.255.718.718 0 0 1 .083-.391l.034 1.768c.037.516-.2 1.052.038 1.548.253-.289.166-.807.224-1.174a5.352 5.352 0 0 0 .049-1.079c-.09-.346.043-.834-.021-1.228a2.052 2.052 0 0 1 .2-1.322 9.457 9.457 0 0 1 .96-3.293 6.25 6.25 0 0 1 1.829-2.733 1.311 1.311 0 0 1 .573-.355 7.019 7.019 0 0 0 .9-.569c.549-.38 1.332-.265 1.95-.447.685.04 1.522-.015 1.976.561z" transform="translate(-414.918 -304.576)"/>
    <path id="Path_162" data-name="Path 162" class="cls-1" d="M434.445 328.173c.606.334 1.055 1.1 1.636 1.462.4.77.875 1.492 1.3 2.24 0 1.031.871 1.616.847 2.7.108.64.316 1.235.374 1.9-.147-.028-.24-.25-.31-.4-.06-.616-.268-1.185-.352-1.8a3 3 0 0 1-.58-1.51c-.316-.131-.087-.493-.254-.694a5.632 5.632 0 0 0-.8-1.638c-.507-.38-.741-.876-1.2-1.28-.183-.594-.871-.585-1.331-.841-.489-.084-1.074-.269-1.5.04a2.7 2.7 0 0 0-1.513.7c-.251.215-.429.506-.776.621a12.237 12.237 0 0 0-1.273 2.009 7.838 7.838 0 0 0-.772 2.635 2.933 2.933 0 0 0 .161 1.551c.059.615.022 1.2.105 1.82-.028.17-.132.413.013.565.047.074.1 0 .147-.022.276-.288.139-.709.074-1.054l.055-.294-.07-1.229-.073-1.106c-.042-.37.187-.684.221-1.076.057-.342-.01-.663.193-.952-.018-.271.255-.412.333-.632l.02.221c-.207.486-.293 1-.525 1.486.092.273-.062.54-.116.808a.418.418 0 0 0 .064.419c.563.037.234-.609.414-.924a6.938 6.938 0 0 1 .632-1.9c.155-.316-.236-.424-.131-.691.379-.507.541-1.142 1.139-1.521.23-.412.751-.622 1.125-.859.472-.259 1.083-.123 1.579-.357l.659.212.892.683a4.9 4.9 0 0 1 .911.978c.138.444.6.651.687 1.119a5.216 5.216 0 0 1 .478 1.632c.192.2.136.494.328.67a3.382 3.382 0 0 1 .511 1.313c.185.519.071 1.2.554 1.584.315.179.182.593.374.843a10.34 10.34 0 0 1 1.089 1.793 8.023 8.023 0 0 0 .581 1.437c-.567.086-.673-.63-.935-.979-.208-.568-.541-1.068-.773-1.638l-.939-1.936c-.209-.52-.244-1.11-.5-1.607a4.738 4.738 0 0 0-.55-1.756l-.121-.077a7.524 7.524 0 0 0-.884-2.155c-.579-.481-.807-1.247-1.538-1.509-.514-.085-.946-.536-1.514-.353a2.76 2.76 0 0 1-1.065.369c-.72.376-1.056 1.1-1.536 1.708-.256.486-.172 1.126-.429 1.587a6.855 6.855 0 0 0-.346 1.22c-.33.483-.176 1.223-.6 1.656a5.245 5.245 0 0 1 .124 1.06c.036.565-.026 1.128.01 1.694-.354.458-.1 1.029-.085 1.545.259.472.221 1.086.555 1.536a2.823 2.823 0 0 0 .636 1.193l.022.123a5.175 5.175 0 0 0 1.078 1.228c.122.026.221-.068.273-.19-.018-.222-.289-.228-.384-.377a7.82 7.82 0 0 1-1.116-1.695c.054-.245-.188-.349-.233-.57-.287-.3-.2-.767-.465-1.116-.043-.272-.16-.5-.2-.741a7.127 7.127 0 0 0 .211-1.763 6.372 6.372 0 0 0-.063-1.524 15.035 15.035 0 0 0 .539-2.124 2.9 2.9 0 0 1 .574-1.46 5.864 5.864 0 0 1 .9-1.993c.3-.238.6-.429.874-.667.322-.116.642-.109.988-.224a2.464 2.464 0 0 1 2.156 1.277l.857 1.173a4.109 4.109 0 0 0 .647 1.783c.281.6.192 1.306.5 1.877-.081.293.237.4.206.668a10.639 10.639 0 0 0 1.476 3.1 7.509 7.509 0 0 0 1.06 2.013l-.057.342a2.989 2.989 0 0 1-.572-.75c.085-.539-.547-.774-.61-1.241-.313-.277-.276-.817-.64-1.046a2.016 2.016 0 0 0-.786-1.073c-.211-.4.02-.858-.341-1.211-.078-.837-.282-1.627-.362-2.464a12.829 12.829 0 0 1-.865-1.862 4.372 4.372 0 0 0-.588-1.167c-.338-.277-.571-.823-1.06-.908l-1.1-.27c-1.48.31-2.026 1.673-2.471 2.891-.013.565-.148 1.1-.21 1.665.027.983-.165 1.887-.213 2.893.154.789.014 1.547.168 2.361a15.142 15.142 0 0 0 1.332 2.85c.377.646 1.006 1.078 1.386 1.7.388.181.65.531 1.038.76l.532.381c-.323.14-.612-.087-.854-.215l-1.041-.688a22.078 22.078 0 0 0-1.5-1.875 3.165 3.165 0 0 1-.588-1.142 4.994 4.994 0 0 1-.7-1.76c-.311-.375.067-.784-.046-1.229.17-1-.1-2.016.141-2.992.254-.339.117-.858.2-1.248a2.5 2.5 0 0 1 .12-.955c0-.049-.047-.1-.071-.124a4.539 4.539 0 0 0-.516 2.174c-.231.436-.023.981-.156 1.47.116.3-.086.538-.02.884a6.16 6.16 0 0 1-.026 1.154 11.328 11.328 0 0 0 .464 2.244c.618.9.761 2.178 1.854 2.743.264.228.33.573.57.824.387.278.823.533 1.234.789.047.1.17.127.191.25a.218.218 0 0 1-.271.042 6.272 6.272 0 0 1-1.737-1.39 1.8 1.8 0 0 1-.928-.241l-.936-.955c-.234-.545-.715-.973-.8-1.566l-.237-.323a19.958 19.958 0 0 1-.443-2.171 4.943 4.943 0 0 1-.237-2.534.445.445 0 0 0-.162-.446c-.32.042-.208.462-.261.682a9.152 9.152 0 0 1 .134 1.648c.151.887.527 1.657.605 2.567a10.1 10.1 0 0 0 1.388 2.659c.482.4.886 1 1.546 1.09.294.082.385.378.653.506.239.3.654.383.894.634-.346.066-.605-.407-1-.44a8.2 8.2 0 0 0-1.767-1.1 7.927 7.927 0 0 1-2.087-3.289 11.937 11.937 0 0 1-.451-2.834 2.9 2.9 0 0 0-.142-1.3c-.124.023-.176.169-.2.291a18.8 18.8 0 0 0 .051 2.039 1.159 1.159 0 0 0 .252.816 6.7 6.7 0 0 0 .849 2.621c.256.6.788.977 1.07 1.547a2.014 2.014 0 0 0 1.136.763c.485.306.944.659 1.451.99-.346.139-.609-.21-.951-.292a10.137 10.137 0 0 0-1.627-.822c-.12-.126-.115-.347-.185-.5a3.235 3.235 0 0 0-.936-.979c-.144-.15-.04-.417-.159-.568-.284-.474-.393-1.041-.653-1.513-.063-.468-.5-.821-.461-1.313.091-.758-.016-1.5.1-2.231-.2-1.109.463-1.929.437-2.961.081-.341.042-.76.317-1.024-.037-.492.338-.8.349-1.294.15-.119.107-.365.208-.51a4.2 4.2 0 0 0 .591-1.141c.677-.6 1.041-1.5 1.862-1.946a3.378 3.378 0 0 1 1.483-.458 2.337 2.337 0 0 1 1.819-.008c.072.075.2.005.268.08z" transform="translate(-418.244 -306.685)"/>
    <path id="Path_163" data-name="Path 163" class="cls-1" d="M495.555 336.909c.194 1.207.808 2.253.779 3.554-.051.072-.005.2-.128.193-.119-.2-.086-.517-.179-.764-.238-.349-.1-.813-.268-1.209-.428-.574-.213-1.429-.717-1.957a5.164 5.164 0 0 0-.418-1.016 4.25 4.25 0 0 0-.076-.959 13.3 13.3 0 0 1 1.007 2.159z" transform="translate(-470.224 -311.948)"/>
    <path id="Path_164" data-name="Path 164" class="cls-1" d="M422.535 334.85a3.837 3.837 0 0 1-.768 1.382 12.932 12.932 0 0 0-.966 2.509 6.183 6.183 0 0 1-.28 1.514 5.063 5.063 0 0 0-.418 2.2l.048.051v1.252c-.1.022-.07-.15-.142-.2-.113-.444.168-.953-.068-1.352-.1-.027-.15.119-.2.193l-.029 1.275a4.237 4.237 0 0 1 .315 1.284c.45.722.5 1.632 1.053 2.308.544.9 1.538 1.484 2.107 2.331-.243-.054-.484-.3-.753-.36l-.385-.3-.5-.724c-.094-.223-.385-.328-.429-.574a4.068 4.068 0 0 1-.758-1.221 4.915 4.915 0 0 0-.416-1.139 6.475 6.475 0 0 1-.388-2.391 1.319 1.319 0 0 1 .269-1.049 11.552 11.552 0 0 0 .459-1.806c-.091-.3.109-.514.116-.783-.067-.321.208-.535.264-.829a.6.6 0 0 1 .159-.536c-.013-.468.313-.8.421-1.218.3-.435.442-1.071.916-1.379l.256-.461.122.027z" transform="translate(-412.479 -312.004)"/>
    <path id="Path_165" data-name="Path 165" class="cls-1" d="M443.8 336.658c-.106.318-.477.456-.68.746-.42.089-.505.627-.757.892a6.987 6.987 0 0 0 .076 1.009l-.1 1.3a17.576 17.576 0 0 0 0 3.413 6.6 6.6 0 0 0 .864 3.039c.36.352.445.9.706 1.318a6.593 6.593 0 0 1 .541.995 5.376 5.376 0 0 0 2 1.863c-.274.19-.588-.063-.88-.144a4.2 4.2 0 0 0-.594-.872l-.506-.405c-.236-.448-.7-.752-.806-1.27-.19-.3-.554-.5-.692-.851a3.03 3.03 0 0 0-.541-1.043 16.52 16.52 0 0 0-.483-2.541c.016-.712-.12-1.254-.079-1.966a4.044 4.044 0 0 1 .245-1.1c-.009-.639.079-1.3.093-1.914a.131.131 0 0 0-.12-.125c-.275.215-.036.515-.238.78-.109.415.029.884-.1 1.3-.011.54-.221 1.051-.207 1.566.115.372-.042.834.072 1.2a4.976 4.976 0 0 0 .329 1.7 6.573 6.573 0 0 0 .288 1.382c.273.963 1.07 1.57 1.443 2.439.36.352.546.8 1.007 1.029.044.2.239.3.258.5-.36-.377-.8-.534-1.182-.911-.115-.346-.408-.426-.573-.725-.28-.645-.809-1.147-1.089-1.793-.232-.595-.464-1.19-.647-1.808a28.07 28.07 0 0 1-.106-2.875c.2-1.076.123-2.183.343-3.233.152-.193.061-.49.237-.682.431-.555.229-1.419.9-1.845.251-.265.571-.283.847-.522.123-.046.121.077.144.15z" transform="translate(-429.263 -313.293)"/>
    <path id="Path_166" data-name="Path 166" class="cls-1" d="M449.907 338.848a10.885 10.885 0 0 1 1.316 3.664 3.177 3.177 0 0 1 .125.985c.087.468.324.891.385 1.384a1.5 1.5 0 0 0 .172 1.084c.384.4.395.991.754 1.417.53.405.487 1.239 1.069 1.572a.642.642 0 0 1 .433.4c-.251.264-.391-.107-.585-.185-.288-.3-.6-.75-1.037-.884-.462-.207-.6-.749-.933-1.076-.164-.347-.5-.7-.416-1.139.611.113.324.867.659 1.219.316.179.4.647.77.7.058-.416-.278-.743-.492-1.067a11.479 11.479 0 0 0-.849-1.518 3.7 3.7 0 0 1-.241-1.282c-.192-.2-.087-.542-.228-.766a4.25 4.25 0 0 0-.09-1.45 13.991 13.991 0 0 0-1.083-3.143c-.363-.253-.548-.749-1.037-.833-.1.046-.319.016-.348.187.045.174.295.032.389.181a5.9 5.9 0 0 1 .722.655c.2.741.559 1.363.714 2.1a11.774 11.774 0 0 1 .413 2.366c-.094.882.5 1.508.437 2.367a2.806 2.806 0 0 0 .833 2.229 2.61 2.61 0 0 0 1.157.96 4.311 4.311 0 0 1 .641 1c-.2.02-.338-.253-.559-.283a2.231 2.231 0 0 0-.7-.482c-.072-.1-.02-.27-.191-.25-.8-.559-.876-1.445-1.376-2.144a3.186 3.186 0 0 1-.1-1.18c.212-.683-.394-1.04-.553-1.608a11.017 11.017 0 0 0-.546-2.984c-.064-.443.022-.982-.264-1.332-.1-.076-.173.07-.2.143a4.874 4.874 0 0 0 .345 2.094c.131.69.165 1.4.271 2.118l.487 1.264a5.474 5.474 0 0 0 1.2 3.243c.263.3.65.53.788.926a8.15 8.15 0 0 1 .843.733c0 .1-.1.144-.176.167-.736-.017-.816-.828-1.324-1.183a1.112 1.112 0 0 1-.5-.651 10.571 10.571 0 0 1-1.3-3.173c-.009-.687-.39-1.236-.349-1.922a12.492 12.492 0 0 0-.575-1.708c.035-.441-.054-.861.005-1.3a1.108 1.108 0 0 0-.024-1.105c-.068-.247-.084-.591-.378-.672-.172.02-.152.218-.156.365a1.479 1.479 0 0 1 .067 1.4l.155.74a1.757 1.757 0 0 0 .241 1.331 25.639 25.639 0 0 0 .768 2.89 7 7 0 0 0 .729 2.5c.381.549.609 1.34 1.189 1.7.292.129.383.45.6.676a6.718 6.718 0 0 1-1.139-.64 4.038 4.038 0 0 1-.845-1.714c-.33-.6-.488-1.239-.792-1.859a.685.685 0 0 0-.209-.545 7.669 7.669 0 0 1-.344-2.144.885.885 0 0 0-.308-.523c-.171.02-.079.243-.13.366.011.589.219 1.158.28 1.75.277.743.5 1.558.831 2.3.442 1.115.731 2.4 1.845 3.087a10.577 10.577 0 0 1 1.14.64c-.026.048-.026.073-.075.073-.384-.377-1.052-.172-1.437-.574a2.2 2.2 0 0 1-.935-.954c.026-.1-.1-.075-.1-.149a3.74 3.74 0 0 1-.371-.99 8.867 8.867 0 0 0-.794-1.786 18.81 18.81 0 0 1-.635-2.3c.15-.119-.068-.247-.016-.393a4.051 4.051 0 0 1 .114-1.79 21.361 21.361 0 0 1-.2-2.215c-.015-.418.265-.828.028-1.226 0-.1.078-.17.006-.27-.146-.028-.224.118-.3.215-.055.245-.206.412-.285.655a1.348 1.348 0 0 0 .268 1.186l-.094.882.182.667-.177 1.321.228 1.847a8.23 8.23 0 0 0 .747 1.711 1.946 1.946 0 0 0 .325.843c.233.519.27 1.086.529 1.584l.641.922a5.16 5.16 0 0 0 1.7.9.086.086 0 0 1 .022.124c-.766.2-1.391-.4-1.97-.807a14.063 14.063 0 0 1-1.5-3.054c-.07-.149-.115-.371-.184-.545a5.058 5.058 0 0 1-.753-2.546 4.641 4.641 0 0 1-.061-1.646 8.875 8.875 0 0 1 .091-1.814c-.143-.2.089-.686-.306-.6-.1.243.087.493.007.785-.285.682-.009 1.474-.125 2.233a4.748 4.748 0 0 0 .118 1.328 10.257 10.257 0 0 0 .279 1.749c.408.4.419 1.041.726 1.539a9.341 9.341 0 0 0 1.033 2.111 3.212 3.212 0 0 0 1.371 1.258 4.447 4.447 0 0 1 .8.51l-.027.073a2.46 2.46 0 0 1-1.144-.468 4.4 4.4 0 0 1-1.058-.982c-.36-.376-.321-1.014-.83-1.3a18.879 18.879 0 0 1-.845-1.713 2.77 2.77 0 0 1-.393-1.041c-.129-.788-.284-1.577-.413-2.366-.031-.788.132-1.494.149-2.256-.2-.939.287-1.762.38-2.62.134-.511.683-.892.744-1.456.319.032.718-.228 1.058-.05a2.621 2.621 0 0 1 1.077 1.228z" transform="translate(-433.24 -314.109)"/>
    <path id="Path_167" data-name="Path 167" class="cls-1" d="M496.055 360.121c.264.252.086.542.053.862-.073 0-.1.12-.223.068a4 4 0 0 1-.076-.96 1.787 1.787 0 0 1-.075-1.009c.239.276.155.717.32 1.039z" transform="translate(-471.096 -330.675)"/>
    <path id="Path_168" data-name="Path 168" class="cls-1" d="m389.353 358.36-.05.023.03-.221c.073.026.046.123.02.2z" transform="translate(-389.22 -329.968)"/>
    <path id="Path_169" data-name="Path 169" class="cls-1" d="m484.7 362.359-.024.024a.222.222 0 0 1-.02-.247c.1 0 .022.149.044.223z" transform="translate(-462.591 -333.026)"/>
    <path id="Path_170" data-name="Path 170" class="cls-1" d="M471.129 371.71a19.14 19.14 0 0 1 1.178 2.211l.043.272a8.3 8.3 0 0 0-.9-1.323c-.227-.791-1.074-1.325-.981-2.207.388.254.352.744.664 1.046z" transform="translate(-451.683 -339.59)"/>
    <path id="Path_171" data-name="Path 171" class="cls-1" d="M557.487 236.178h2.668v.725h-1.872v2.997h1.676v.742h-1.676v3.493h1.872v.716h-2.668v-8.67z" transform="translate(-518.666 -236.08)"/>
    <path id="Path_172" data-name="Path 172" class="cls-1" d="M542.922 236.178v6.285a5.808 5.808 0 0 1-.147 1.714 1.54 1.54 0 0 1-1.512.758 1.521 1.521 0 0 1-1.356-.661 2.784 2.784 0 0 1-.195-1.3l.006-6.793h.8v6.849c.024.421-.026.954.445 1.11a1.209 1.209 0 0 0 .707 0c.472-.155.424-.7.448-1.126v-6.832h.806z" transform="translate(-504.986 -236.08)"/>
    <path id="Path_173" data-name="Path 173" class="cls-1" d="M528.95 244.133h1.511v.716h-2.312v-8.67h.8v7.955z" transform="translate(-496.086 -236.08)"/>
    <path id="Path_174" data-name="Path 174" class="cls-1" d="M514.318 236.6a2.591 2.591 0 0 1 .5 2.68 2.034 2.034 0 0 1-.669.874 1.776 1.776 0 0 1 .636.7 3.763 3.763 0 0 1 .1 2.9 1.684 1.684 0 0 1-1.328 1.1l-.381.029-1.168-.011-.011-.01v-3.843l-.006-4.811c.461-.012.944 0 1.4.022a1.508 1.508 0 0 1 .922.377zm-.542.647a1.008 1.008 0 0 0-.922-.3c-.019 0-.053 0-.048.015v2.861a1.935 1.935 0 0 0 .5-.029 1.037 1.037 0 0 0 .659-.615 2.243 2.243 0 0 0-.1-1.8l-.092-.135zm.092 3.7a.935.935 0 0 0-.676-.349 1.46 1.46 0 0 0-.386.013v3.521a1.809 1.809 0 0 0 .454-.02 1.012 1.012 0 0 0 .806-.612 3.009 3.009 0 0 0-.094-2.41l-.1-.144z" transform="translate(-483.653 -236.093)"/>
    <path id="Path_175" data-name="Path 175" class="cls-1" d="M558.851 282.075v-5.3h-.886v-.675h2.558v.675h-.87v5.3z" transform="translate(-519.035 -266.809)"/>
    <path id="Path_176" data-name="Path 176" class="cls-1" d="M546.917 276.1h.712v5.972H547c-.165-.441-.305-.889-.464-1.331-.3-.875-.6-1.746-.87-2.634v3.964h-.728V276.1h.728c.434 1.242.87 2.524 1.264 3.778l-.007-.138v-3.64z" transform="translate(-509.005 -266.809)"/>
    <path id="Path_177" data-name="Path 177" class="cls-1" d="M538.182 282.075h.8V276.1h-.8v5.972z" transform="translate(-503.808 -266.809)"/>
    <path id="Path_178" data-name="Path 178" class="cls-1" d="M525.134 279.427v2.648h-.791v-5.971c.463 0 .917 0 1.366.02a1.134 1.134 0 0 1 1.04.7 2.6 2.6 0 0 1 .1 1.6 1.342 1.342 0 0 1-.545.764c0 .034.041.046.069.07a1.7 1.7 0 0 1 .314.753c.17.682.331 1.373.483 2.061h-.8c-.031-.026-.013-.075-.03-.106-.18-.708-.311-1.436-.525-2.13-.065-.157-.123-.355-.3-.415a.745.745 0 0 0-.349-.02c-.009 0-.023.012-.023.021zm0-.742a1.8 1.8 0 0 0 .46-.022.668.668 0 0 0 .468-.434 1.505 1.505 0 0 0-.092-1.138c-.137-.259-.456-.294-.743-.3-.018.012-.085 0-.093.022v1.875z" transform="translate(-493.156 -266.809)"/>
    <path id="Path_179" data-name="Path 179" class="cls-1" d="M511.995 276.079c.447-.012.83-.007 1.282 0a1.318 1.318 0 0 1 .612.161 1.838 1.838 0 0 1 .645 1.889 1.356 1.356 0 0 1-.783 1.127 2.79 2.79 0 0 1-.925.109c-.029 0-.02.046-.02.077v2.608h-.81v-5.972zm.81 2.561a1.5 1.5 0 0 0 .457-.021.678.678 0 0 0 .434-.433c.007-.018.005-.042.019-.056a1.559 1.559 0 0 0-.094-1.065.661.661 0 0 0-.633-.3c-.056.012-.133-.008-.184.017v1.854z" transform="translate(-483.653 -266.785)"/>
    <path id="Path_180" data-name="Path 180" class="cls-1" d="M557.487 236.178h2.668v.725h-1.872v2.997h1.676v.742h-1.676v3.493h1.872v.716h-2.668v-8.67z" transform="translate(-518.666 -236.08)"/>
    <path id="Path_181" data-name="Path 181" class="cls-1" d="M542.922 236.178v6.285a5.808 5.808 0 0 1-.147 1.714 1.54 1.54 0 0 1-1.512.758 1.521 1.521 0 0 1-1.356-.661 2.784 2.784 0 0 1-.195-1.3l.006-6.793h.8v6.849c.024.421-.026.954.445 1.11a1.209 1.209 0 0 0 .707 0c.472-.155.424-.7.448-1.126v-6.832h.806z" transform="translate(-504.986 -236.08)"/>
    <path id="Path_182" data-name="Path 182" class="cls-1" d="M528.95 244.133h1.511v.716h-2.312v-8.67h.8v7.955z" transform="translate(-496.086 -236.08)"/>
    <path id="Path_183" data-name="Path 183" class="cls-1" d="M514.318 236.6a2.591 2.591 0 0 1 .5 2.68 2.034 2.034 0 0 1-.669.874 1.776 1.776 0 0 1 .636.7 3.763 3.763 0 0 1 .1 2.9 1.684 1.684 0 0 1-1.328 1.1l-.381.029-1.168-.011-.011-.01v-3.843l-.006-4.811c.461-.012.944 0 1.4.022a1.508 1.508 0 0 1 .922.377zm-.542.647a1.008 1.008 0 0 0-.922-.3c-.019 0-.053 0-.048.015v2.861a1.935 1.935 0 0 0 .5-.029 1.037 1.037 0 0 0 .659-.615 2.243 2.243 0 0 0-.1-1.8l-.092-.135zm.092 3.7a.935.935 0 0 0-.676-.349 1.46 1.46 0 0 0-.386.013v3.521a1.809 1.809 0 0 0 .454-.02 1.012 1.012 0 0 0 .806-.612 3.009 3.009 0 0 0-.094-2.41l-.1-.144z" transform="translate(-483.653 -236.093)"/>
    <path id="Path_184" data-name="Path 184" class="cls-1" d="M558.851 282.075v-5.3h-.886v-.675h2.558v.675h-.87v5.3z" transform="translate(-519.035 -266.809)"/>
    <path id="Path_185" data-name="Path 185" class="cls-1" d="M546.917 276.1h.712v5.972H547c-.165-.441-.305-.889-.464-1.331-.3-.875-.6-1.746-.87-2.634v3.964h-.728V276.1h.728c.434 1.242.87 2.524 1.264 3.778l-.007-.138v-3.64z" transform="translate(-509.005 -266.809)"/>
    <path id="Path_186" data-name="Path 186" class="cls-1" d="M538.182 282.075h.8V276.1h-.8v5.972z" transform="translate(-503.808 -266.809)"/>
    <path id="Path_187" data-name="Path 187" class="cls-1" d="M525.134 279.427v2.648h-.791v-5.971c.463 0 .917 0 1.366.02a1.134 1.134 0 0 1 1.04.7 2.6 2.6 0 0 1 .1 1.6 1.342 1.342 0 0 1-.545.764c0 .034.041.046.069.07a1.7 1.7 0 0 1 .314.753c.17.682.331 1.373.483 2.061h-.8c-.031-.026-.013-.075-.03-.106-.18-.708-.311-1.436-.525-2.13-.065-.157-.123-.355-.3-.415a.745.745 0 0 0-.349-.02c-.009 0-.023.012-.023.021zm0-.742a1.8 1.8 0 0 0 .46-.022.668.668 0 0 0 .468-.434 1.505 1.505 0 0 0-.092-1.138c-.137-.259-.456-.294-.743-.3-.018.012-.085 0-.093.022v1.875z" transform="translate(-493.156 -266.809)"/>
    <path id="Path_188" data-name="Path 188" class="cls-1" d="M511.995 276.079c.447-.012.83-.007 1.282 0a1.318 1.318 0 0 1 .612.161 1.838 1.838 0 0 1 .645 1.889 1.356 1.356 0 0 1-.783 1.127 2.79 2.79 0 0 1-.925.109c-.029 0-.02.046-.02.077v2.608h-.81v-5.972zm.81 2.561a1.5 1.5 0 0 0 .457-.021.678.678 0 0 0 .434-.433c.007-.018.005-.042.019-.056a1.559 1.559 0 0 0-.094-1.065.661.661 0 0 0-.633-.3c-.056.012-.133-.008-.184.017v1.854z" transform="translate(-483.653 -266.785)"/>
    <path id="Path_189" data-name="Path 189" class="cls-1" d="M571.07 235.85h-.241v-.1h.593v.1h-.241v.678h-.111v-.678z" transform="translate(-528.935 -235.752)"/>
    <path id="Path_190" data-name="Path 190" class="cls-1" d="M573.892 235.755h.182l.243.644.239-.644h.184v.775h-.112v-.671l-.256.671h-.108l-.256-.671v.671h-.111v-.775z" transform="translate(-531.293 -235.754)"/>
</svg>
