<svg id="Group_226" data-name="Group 226" xmlns="http://www.w3.org/2000/svg" width="46.242" height="30.151" viewBox="0 0 46.242 30.151">
    <defs>
        <style>
            .cls-1{fill:#e8e8e8;fill-rule:evenodd}
        </style>
    </defs>
    <g id="Group_210" data-name="Group 210">
        <path id="Path_212" data-name="Path 212" class="cls-1" d="m1292.5 483.215-2.422-.139c-.131.085-.268.242-.4.346a17.885 17.885 0 0 1-3.052 2.105 23.76 23.76 0 0 1-4.123 1.792 32.007 32.007 0 0 1-10.269 1.526 31.251 31.251 0 0 1-10.064-1.732 21.153 21.153 0 0 1-6.189-3.37 12.768 12.768 0 0 1-1.176-1.054l-.825-.9a10.073 10.073 0 0 1-1.86-3.322 8.189 8.189 0 0 1 .323-5.815c1.311-2.977 4.13-5.215 7.135-6.7 6.588-3.254 15.364-3.661 22.561-1.417.23.072.469.172.693.221a7.236 7.236 0 0 0 .7.263 22.945 22.945 0 0 1 3.418 1.607c.465.272.828.529 1.226.769.128.1.263.185.388.275l.923.718c.093.083.088.1.247.09.822-.038 1.647-.113 2.478-.158a12.361 12.361 0 0 0-1.69-1.594c-.74-.6-1.156-.852-1.918-1.375-.245-.14-.481-.3-.741-.445a28.328 28.328 0 0 0-9.713-3.339 32.272 32.272 0 0 0-4.307-.414 31.86 31.86 0 0 0-3.223.035c-1 .057-1.962.153-2.957.3-5.086.733-10.111 2.682-13.657 5.875-1.881 1.693-4.326 4.724-4.268 8.777.054 3.843 2.431 7.135 5.314 9.346.316.242.609.454.949.693a23.715 23.715 0 0 0 4.226 2.286 32.67 32.67 0 0 0 13.883 2.35 32.023 32.023 0 0 0 10.755-2.275c.862-.345 1.417-.646 2.219-1.037a21.6 21.6 0 0 0 2.036-1.219 24.947 24.947 0 0 0 1.848-1.408c.314-.256.564-.519.847-.793.38-.369.488-.525.784-.831a.158.158 0 0 0-.014-.012z" transform="translate(-1249.745 -460.684)"/>
        <path id="Path_213" data-name="Path 213" class="cls-1" d="M1272.938 535.454a16.3 16.3 0 0 0 2.989 1.845c6.1 3 14.072 3.322 20.627 1.552a22.292 22.292 0 0 0 3.576-1.293c.551-.26 1.077-.529 1.6-.818a10.592 10.592 0 0 0 1.479-.971l-2.939-.165-28.955-1.673a10.318 10.318 0 0 0 1.623 1.523z" transform="translate(-1265.401 -513.523)"/>
        <path id="Path_214" data-name="Path 214" class="cls-1" d="M1301.211 477.307c-.223-.092-.457-.211-.674-.309s-.438-.189-.678-.285a24.806 24.806 0 0 0-1.429-.525 30.471 30.471 0 0 0-10.2-1.444 26.062 26.062 0 0 0-13.774 3.864 12.668 12.668 0 0 0-2.215 1.85l31.079-1.945a16.778 16.778 0 0 0-2.109-1.206z" transform="translate(-1266.068 -470.554)"/>
        <path id="Path_215" data-name="Path 215" class="cls-1" d="m1384.288 495.463 2.8-.084a11.137 11.137 0 0 1 .578 1.465 6.783 6.783 0 0 1 .267 1.788c-.415 0-3.06.04-3.23-.02a15.363 15.363 0 0 0-.258-2.428c-.024-.119-.166-.677-.158-.721zm-3.414-2.171a13.125 13.125 0 0 1 .6 1.851 14.877 14.877 0 0 1 .114 5.7c-.049.295-.177.776-.195 1.03-.118.413-.2.816-.325 1.208-.053.17-.384 1.075-.384 1.135l2.566.149c.1-.236.217-.453.333-.693a11.182 11.182 0 0 0 .783-2.32l3.136.057a10.812 10.812 0 0 1-.921 2.371c-.133.25-.282.487-.393.735.028.016-.025 0 .054.024a.181.181 0 0 0 .061.012c.051.006.123.005.177.007.715.028 1.59.126 2.264.137.113-.2.25-.405.375-.615s.228-.416.345-.643a10.57 10.57 0 0 0 .587-1.417 9.855 9.855 0 0 0-.181-6.755 11.528 11.528 0 0 0-1.411-2.573l-7.638.466z" transform="translate(-1344.768 -483.592)"/>
        <path id="Path_216" data-name="Path 216" class="cls-1" d="m1303.941 505.394-4.19-.184a4.651 4.651 0 0 1-.279-1.356l4.7.013a5.023 5.023 0 0 0 0-2.1l-4.765.006a7.458 7.458 0 0 1 .293-1.463l4.284-.245c-.03-.469-.362-1.407-.466-1.913h-.13l-5.569.344c-.132.3-.29.581-.418.891a8.372 8.372 0 0 0-.413 5.615 8.58 8.58 0 0 0 .762 1.892l5.766.336a16.386 16.386 0 0 0 .425-1.836z" transform="translate(-1283.809 -487.559)"/>
        <path id="Path_217" data-name="Path 217" class="cls-1" d="M1268.647 500.257c-.125.411-.259.793-.374 1.234-.094.361-.242 1.212-.28 1.335-.173.038-1.9.013-2.222.012a9.343 9.343 0 0 1 .773-2.512c-.049-.039-.033-.026-.114-.019l-1.956.12a11.084 11.084 0 0 0-.723 1.6 6.609 6.609 0 0 0-.107 4.063 6.919 6.919 0 0 0 .711 1.623l2.16.126c-.034-.116-.343-.8-.465-1.17a5.52 5.52 0 0 1-.29-1.3h2.227c.115.449.19.9.312 1.352a6.868 6.868 0 0 0 .442 1.253l2.509.151a16.629 16.629 0 0 1-.67-1.807 9.35 9.35 0 0 1 .608-6.287l-2.492.145z" transform="translate(-1259.636 -488.915)"/>
        <path id="Path_218" data-name="Path 218" class="cls-1" d="M1355.567 495.586c.015.2.156.657.208.89.067.305.125.621.178.938a19.554 19.554 0 0 1 .135 5.231c-.035.316-.108.69-.123.985-.08.333-.128.726-.2 1.067-.063.317-.2.75-.227 1.04.9.036 1.838.1 2.73.162.359.025 2.592.177 2.752.146a20.207 20.207 0 0 0 .661-2.081c.038-.184.027-.093-.036-.133l-2.486-.14.163-1.013a17.464 17.464 0 0 0 .053-3.433 13.7 13.7 0 0 0-.76-3.74c-.036-.1-.033-.152-.122-.165-.491.013-1.008.059-1.5.09l-1.293.074c-.165.014-.137-.01-.133.082z" transform="translate(-1326.52 -485.518)"/>
        <path id="Path_219" data-name="Path 219" class="cls-1" d="M1329.642 497.158c.076.263.18.526.254.794a14.791 14.791 0 0 1 .368 4.806l-.208 1.846c-.077.3-.12.645-.185.958-.057.273-.185.675-.208.929l5.481.319a9.714 9.714 0 0 0 .5-2.1c-.02-.074-.008-.05-.269-.058l-2.151-.088c-.012-.125.119-.756.145-.95.044-.334.078-.677.1-1.014a12.985 12.985 0 0 0-.709-5.352c-.11-.262-.089-.312-.221-.3-.322.02-2.831.152-2.897.21z" transform="translate(-1307.725 -486.687)"/>
        <path id="Path_220" data-name="Path 220" class="cls-1" d="M1403.323 460.128a1.768 1.768 0 1 1-1.537 1.98 1.774 1.774 0 0 1 1.537-1.98zm-.891-.306a.859.859 0 0 0-.253.146 2.345 2.345 0 0 0-.946 2.352 2.313 2.313 0 0 0 1.558 1.781 2.347 2.347 0 1 0 .76-4.571 2.229 2.229 0 0 0-1.119.293z" transform="translate(-1359.647 -459.532)"/>
        <path id="Path_221" data-name="Path 221" class="cls-1" d="M1407.25 465.18c-.033-.042-.034-.036-.036-.138l.013-.461a1.41 1.41 0 0 1 .381-.018c.1 0 .29-.026.334.049.246.029.255.421.067.52a2.175 2.175 0 0 1-.759.048zm-.469 1.25h.447v-.855c.178-.041.683-.045.782.08a4.8 4.8 0 0 1 .109.777h.515c-.032-.131-.027-.047-.065-.146a2.423 2.423 0 0 1-.031-.486.416.416 0 0 0-.169-.376l-.045-.036a.217.217 0 0 1-.043-.041.6.6 0 0 0-.256-1.136h-1.247z" transform="translate(-1363.703 -462.928)"/>
    </g>
</svg>
