<svg xmlns="http://www.w3.org/2000/svg" width="270" height="48.002">
    <defs>
        <style>
            .cls-1,.cls-2{fill:#fff}.cls-1{fill-rule:evenodd}.cls-2{stroke:#fff;stroke-miterlimit:22.926;stroke-width:.427px}
        </style>
    </defs>
    <g id="Group_164" data-name="Group 164" transform="translate(-767 -1753)">
        <path id="Path_111" data-name="Path 111" class="cls-1" d="m579.265 515.71 4.211.053 2.026-9.995.536 9.962 3.444.037c.843-1.926 4.3-8.748 4.582-9.975.091 1.615-1.9 7.9-2.054 9.961l4.225.018 3.2-14.9-6.47.058c-.85 1.084-3.506 7.382-4.146 7.765l-.076-7.794c-7.472.042-6.277-.7-6.871 2.234z" transform="translate(389.65 1268.646)"/>
        <path id="Path_112" data-name="Path 112" class="cls-1" d="M617.5 515.73c2.668.175 9.56.3 11.654-.547 3.053-1.23 4.418-5.426.981-7.388 1.086-.92 2.055-.726 2.392-2.77.309-1.876-.325-3.084-1.588-3.68-1.456-.688-8.156-.576-10.267-.431L617.5 515.73zm5.229-3.631.582-2.495a6.842 6.842 0 0 1 4.027.317c.565 2.769-2.273 2.308-4.609 2.178zm1.139-5.46.492-2.078c1.264-.161 4-.465 3.564 1.213-.335 1.301-2.768.895-4.055.865z" transform="translate(370.732 1268.665)"/>
        <path id="Path_113" data-name="Path 113" class="cls-1" d="m475.658 515.667 4.569.033 1.093-5.129c5.619-.21 2.852 1.407 3.555 5.046l4.357.106c.016-1.118-.066-2.657-.084-3.895-.028-1.85-.247-2.272-1.379-2.986 4.877-1.6 3.349-6.147 1.921-7.174-1.576-1.133-8.334-.994-10.931-.773l-3.1 14.77zm6.265-8.436.664-2.748c1.216-.01 3.075-.219 3.587.535.887 1.6-.683 2.275-2.186 2.275z" transform="translate(440.911 1268.694)"/>
        <path id="Path_114" data-name="Path 114" class="cls-1" d="M547.3 515.8h4.629c.478-.789.766-1.418 1.2-2.06l4.56-.067.33 2.113 4.415.024c.144-1.243-1.774-12.989-2.2-14.874l-4.4.035c-.333.355-8.42 14.176-8.544 14.832zm6.623-5.977c.67-1.489 2.688-4.3 3.236-5.9a2.714 2.714 0 0 1 .441 1.415l.623 4.516z" transform="translate(405.463 1268.601)"/>
        <path id="Path_115" data-name="Path 115" class="cls-1" d="m534.924 509.714-4.325.058c-.225.4-.73 2.928-3.333 2.176-1.552-.448-1.688-2.565-1.416-4.225.51-3.1 2.737-4.313 4.417-3.424.861.456.524 1.156 1.006 1.905l4.127.02c.766-7.961-13.341-8.457-14.226 1.685-.407 4.663 1.6 7.8 6.029 7.912 5.008.125 8.244-3.421 7.721-6.107z" transform="translate(418.417 1268.929)"/>
        <path id="Path_116" data-name="Path 116" class="cls-1" d="M396.555 515.677a8.4 8.4 0 0 0 2.641-.12c.843-1.469.533-4.1 1.391-5.775 1.058-.408 4.571-.462 5.356.439.7.8-.044 4.026.19 5.45l2.7.02c-.043-4.144.793-5.53-1.328-7.014 1.52-.565 2.419-.852 2.966-2.407a4.086 4.086 0 0 0-.963-4.438c-1.536-1.3-7.3-1.259-9.858-.936l-3.093 14.781zm4.4-8.116.932-4.446a25.606 25.606 0 0 1 4.424.01c1.423.209 2.025 1.1 1.633 2.6-.603 2.329-4.59 1.984-6.99 1.836z" transform="translate(480.049 1268.713)"/>
        <path id="Path_117" data-name="Path 117" class="cls-1" d="M341.78 515.771a7 7 0 0 0 2.614-.1c.559-.932 1.907-8.625 2.214-10.379.694.625 4.226 9.75 4.529 10.5h2.972l3.026-14.79-2.635-.019c-.663 1.746-1.492 7.658-2.115 10.022-.111.421.06-.1-.09.309s-.058.23-.2.4l-4.374-10.762-2.881.031z" transform="translate(507.15 1268.594)"/>
        <path id="Path_118" data-name="Path 118" class="cls-1" d="m297.1 514.134.018 1.35 1.725.029a52.979 52.979 0 0 0 1.557-7.913l-6.263.061-.468 1.962 3.96.079c-.692 5.529-8.845 5.645-8.248-1.153.639-7.285 8.286-7.669 8.682-3.1l2.621.028c.723-6.323-10.8-7.288-13.331-.158-1.927 5.43.175 10.422 5.505 10.546 2.249.061 3.018-.755 4.242-1.731z" transform="translate(534.427 1268.888)"/>
        <path id="Path_119" data-name="Path 119" class="cls-1" d="m422.83 515.791 2.675.047 2.352-3.846 5.761-.05.547 3.773 2.708.122-2.5-14.825-2.779-.016-7.684 12.838c-.658 1.114-1 1.38-1.079 1.958zm6.176-5.938c.67-1.489 2.689-4.3 3.236-5.9a2.713 2.713 0 0 1 .441 1.415l.624 4.516z" transform="translate(467.049 1268.57)"/>
        <path id="Path_120" data-name="Path 120" class="cls-1" d="m371.036 515.72 10.818.045.505-2.353-8.236.04.885-4.108c1.176-.494 5.749 0 7.44-.181a4.254 4.254 0 0 0 .514-2.224l-7.493.111.81-3.794 8.138-.024.453-2.385-10.806.08z" transform="translate(492.675 1268.644)"/>
        <path id="Path_121" data-name="Path 121" class="cls-1" d="m316.185 515.791 10.821.032.5-2.347-8.237.041.9-4.12c1.262-.513 5.694.042 7.444-.176a4.494 4.494 0 0 0 .52-2.221l-7.507.112.822-3.8 8.123-.022.474-2.324-10.759.065z" transform="translate(519.813 1268.583)"/>
        <g id="Group_86" data-name="Group 86" transform="translate(767 1753)">
            <path id="Path_122" data-name="Path 122" class="cls-1" d="M199.855 468.318c-13 2.662-22.081 13.311-19.919 27.408a23.943 23.943 0 0 0 27.942 19.823c20.307-3.39 27.212-29.805 10.526-42.595-4.4-3.375-11.346-6.111-18.549-4.636zm.4 1.5c13.157-2.136 23.94 7.431 25.694 18.9 1.968 12.874-7.774 24.05-18.9 25.333-13.4 1.545-23.788-7-25.6-18.887a22.34 22.34 0 0 1 18.809-25.345z" transform="translate(-179.618 -467.909)"/>
            <path id="Path_123" data-name="Path 123" class="cls-1" d="M220.655 515.323h7.225l1.62-7.623c9.2-1.714 3.414 5.681 5.527 7.442 1.161.569 5.015.224 6.637.169.147-1.036.579-9.4-2.034-10.409 6.787-1.985 5.353-9.235 2.71-10.956-2.807-1.827-12.686-1.4-16.832-1.192l-4.857 22.572zm9.9-12.911 1.032-3.93c2.172-.243 6.483-.582 5.478 2.413-.644 1.919-4.256 1.697-6.511 1.517z" transform="translate(-199.922 -480.252)"/>
            <path id="Path_124" data-name="Path 124" class="cls-1" d="m199.873 513.475.583 1.757 1.889.1c.455-1.27 2.364-10.629 2.248-11.87l-9.288.024-.526 2.744h6.536c-.673 8.45-14.038 10.405-13.007-1.465.592-6.81 5.864-10.891 11.041-8.764 2.729 1.121 1.952 2.222 2.8 4.235l2.924.088c.924-9.251-14.535-11.007-18.768-.381-1.7 4.258-1.89 10.244 1.287 13.452 2.769 2.794 9.766 3.711 12.281.08z" transform="translate(-182.328 -480.303)"/>
        </g>
        <path id="Path_125" data-name="Path 125" class="cls-1" d="m505.727 515.737 4.566.074c.479-1.284 3.007-13.511 3.044-14.876l-3.433.032h-1.07z" transform="translate(426.034 1268.6)"/>
        <path id="Path_126" data-name="Path 126" class="cls-1" d="M647.565 515.729h4.563c.428-1.2 3.054-13.883 3.006-14.943l-4.459.12z" transform="translate(355.857 1268.676)"/>
        <path id="Path_127" data-name="Path 127" class="cls-1" d="m453.074 515.768 10.033.018.485-2.316-7.418-.019c.408-2.248 2.523-11.038 2.576-12.466a8.569 8.569 0 0 0-2.335-.018c-.7.24-1.415 5.279-1.573 6.117-.307 1.622-.587 2.788-.9 4.346a44.064 44.064 0 0 0-.868 4.338z" transform="translate(452.085 1268.621)"/>
        <path id="Rectangle_101" data-name="Rectangle 101" class="cls-2" transform="translate(881.33 1790.182)" d="M0 0h51.71v3.679H0z"/>
        <path id="Rectangle_102" data-name="Rectangle 102" class="cls-2" transform="translate(984.291 1790.182)" d="M0 0h51.709v3.679H0z"/>
        <path id="Rectangle_103" data-name="Rectangle 103" class="cls-2" transform="translate(932.419 1790.182)" d="M0 0h51.71v3.679H0z"/>
        <text id="S.p.A." transform="rotate(19.14 -4781.828 3897.288)" style="font-family:ArialMT,Arial;font-size:6px;fill:#fff"><tspan x="0" y="0">S.p.A.</tspan></text>
        <text id="MADE_IN_ITALY" data-name="MADE IN ITALY" transform="translate(1008 1800)" style="font-size:4px;font-family:ArialMT,Arial;fill:#fff"><tspan x="0" y="0">MADE IN ITALY</tspan></text>
    </g>
</svg>
