<svg id="Group_202" data-name="Group 202" xmlns="http://www.w3.org/2000/svg" width="62.219" height="16.075" viewBox="0 0 62.219 16.075">
    <defs>
        <style>
            .cls-1{fill:#e8e8e8;fill-rule:evenodd}
        </style>
    </defs>
    <path id="Path_77" data-name="Path 77" class="cls-1" d="m258.373 301.363-3.565 11.459h-4.024l4.983-15.947h6.371c1.469 0 2.345.671 1.693 2.763l-2.1 6.767a3.333 3.333 0 0 1-3.393 2.224h-1.219l2.04-6.5c.087-.441.495-.822-.786-.766z" transform="translate(-216.972 -296.78)"/>
    <path id="Path_78" data-name="Path 78" class="cls-1" d="m331.36 300.5-2.532 8.1h2.572l2.06-6.61c.154-.458.145-.632.737-.652h.5l-1.68 5.378c-.467 1.456.167 1.874 1.138 1.873l1.644.007.727-2.329c-.312.071-.852.07-.673-.4l1.406-4.532h.812l.717-2.289h-.812l.688-2.2h-2.559l-.695 2.205h-1.807a2.071 2.071 0 0 0-2.243 1.449z" transform="translate(-276.57 -296.752)"/>
    <path id="Path_79" data-name="Path 79" class="cls-1" d="m189.366 306.3-.727 2.323H187c-.971 0-1.6-.423-1.142-1.877l1.685-5.381h-1.023l-1.812 5.805a2.061 2.061 0 0 1-2.229 1.453h-2.648c-.971 0-1.6-.423-1.142-1.877l2.4-7.673h2.578l-2.13 6.808c-.1.3.014.421.357.454.568-.018.568-.21.666-.457l2.129-6.805h3.574l.689-2.2h2.548l-.688 2.2h.812l-.717 2.289h-.807l-1.406 4.532c-.1.286.017.422.361.441a1.751 1.751 0 0 0 .311-.035z" transform="translate(-161.798 -296.78)"/>
    <path id="Path_80" data-name="Path 80" class="cls-1" d="M303.7 313.435c.589-.017.568-.21.666-.457l1.415-4.516h-3.6l.719-2.291h4.419c.974 0 1.6.424 1.141 1.877l-2.392 7.67h-4.425c-.971 0-1.6-.423-1.142-1.877l1.008-3.233a2.075 2.075 0 0 1 2.245-1.452h.787l-1.2 3.835c-.097.289.016.428.359.444z" transform="translate(-254.821 -303.879)"/>
    <path id="Path_81" data-name="Path 81" class="cls-1" d="m229.727 307.63-1.941 6.218c-.458 1.454.171 1.877 1.142 1.877h2.632a2.072 2.072 0 0 0 2.245-1.452l.78-2.448.59-1.909.571-1.861c.456-1.452-.171-1.893-1.142-1.877h-2.632a2.072 2.072 0 0 0-2.245 1.452zm1.26 5.81c-.343-.032-.457-.155-.362-.44l1.276-4.08c.095-.245.076-.441.666-.457.342.032.455.155.361.44l-1.275 4.079c-.098.248-.077.439-.666.458z" transform="translate(-199.293 -303.884)"/>
    <path id="Path_82" data-name="Path 82" class="cls-1" d="m122.683 309.3 4.031-12.827h-6.306l-12.684 16.043h4.55l9.137-11.571-3.619 11.571h22.736l.986-3.216zm12.4 2.246h-4.173l.389-1.283h4.174zm4.744 0h-4.237l.389-1.283h4.236z" transform="translate(-107.724 -296.472)"/>
    <path id="Path_83" data-name="Path 83" class="cls-1" d="M273.587 352.638h.2c.329 0 .551-.115.576-.331.021-.184-.132-.265-.35-.265a1.039 1.039 0 0 0-.238.017l-.183.579zm-.406 1.273a1.624 1.624 0 0 0 .231.01c.32 0 .616-.12.647-.389s-.2-.337-.494-.338h-.165l-.222.717zm-.031-2.387a4.739 4.739 0 0 1 .894-.074 1.683 1.683 0 0 1 .781.136.563.563 0 0 1 .354.594.858.858 0 0 1-.688.7v.009a.577.577 0 0 1 .407.656.966.966 0 0 1-.533.726 2.585 2.585 0 0 1-1.279.244 4.823 4.823 0 0 1-.841-.06z" transform="translate(-233.359 -338.456)"/>
    <path id="Path_84" data-name="Path 84" class="cls-1" d="m285.344 353.31.027-.557c.01-.171.026-.422.033-.61h-.009c-.1.188-.218.444-.321.614l-.3.551h.57zm-.859.577-.392.708h-.848l1.831-3.021h1.033l-.014 3.025h-.834l.045-.709z" transform="translate(-241.761 -338.549)"/>
    <path id="Path_85" data-name="Path 85" class="cls-1" d="M298.618 352.207h-.783l.211-.668 2.372.005-.211.668h-.8l-.73 2.355h-.788z" transform="translate(-252.903 -338.523)"/>
    <path id="Path_86" data-name="Path 86" class="cls-1" d="M310.935 352.29h-.783l.211-.668 2.372.005-.211.668h-.8l-.73 2.354h-.787z" transform="translate(-262.309 -338.586)"/>
    <path id="Path_87" data-name="Path 87" class="cls-1" d="M321.849 353.455h-1.1l-.181.57h1.237l-.2.65h-2.025l.941-3.023h1.96l-.2.65h-1.168l-.16.507h1.107z" transform="translate(-269.506 -338.607)"/>
    <path id="Path_88" data-name="Path 88" class="cls-1" d="M332.1 352.925h.245a.553.553 0 0 0 .6-.434c.024-.211-.16-.3-.387-.3a1.383 1.383 0 0 0-.234.013l-.226.722zm-.389-1.258a4.373 4.373 0 0 1 .913-.079 1.813 1.813 0 0 1 .835.155.6.6 0 0 1 .321.634 1.009 1.009 0 0 1-.788.842l-.007.018c.162.086.215.269.217.53a5.405 5.405 0 0 0 .03.871h-.811a4.858 4.858 0 0 1-.015-.709c.012-.346-.1-.431-.34-.431h-.143l-.354 1.139h-.783z" transform="translate(-278.067 -338.561)"/>
    <path id="Path_89" data-name="Path 89" class="cls-1" d="m345.167 354.613.381-1.22-.409-1.805h.848l.075.677c.022.247.038.4.051.566h.009c.122-.179.229-.345.376-.565l.462-.677h.945l-1.562 1.778-.384 1.243z" transform="translate(-289.026 -338.561)"/>
    <path id="Path_90" data-name="Path 90" class="cls-1" d="m244.659 359.926.139.2-.146.21h.082l.06-.093c.015-.025.03-.047.043-.071.014.025.028.047.044.071l.06.093h.085l-.145-.213.14-.2h-.081l-.058.088a2.035 2.035 0 0 0-.041.068c-.014-.023-.026-.044-.042-.067l-.059-.088z" transform="translate(-212.289 -344.929)"/>
</svg>
