<svg xmlns="http://www.w3.org/2000/svg" width="61.713" height="20.863" viewBox="0 0 61.713 20.863">
    <defs>
        <style>
            .cls-1{fill:#e8e8e8}
        </style>
    </defs>
    <g id="Group_234" data-name="Group 234" transform="translate(-269 -1397.5)">
        <path id="Path_402" data-name="Path 402" class="cls-1" d="M945.407 305.187a3.567 3.567 0 0 1 2.723 1.047 3.612 3.612 0 0 1 .933 1.878 7.062 7.062 0 0 1-.233 3.866 3.384 3.384 0 0 1-3.033 2.336 3.991 3.991 0 0 1-2.186-.352 3.519 3.519 0 0 1-1.842-2.354 7.207 7.207 0 0 1-.255-1.868 5.291 5.291 0 0 1 .52-2.569 3.5 3.5 0 0 1 2.712-1.945 2.3 2.3 0 0 1 .25-.038c.137-.006.274-.001.411-.001zm1.224 4.312a2.406 2.406 0 0 0-.483-1.523.919.919 0 0 0-1.575 0c-.032.041-.061.085-.09.128a3.013 3.013 0 0 0 .09 3.092.914.914 0 0 0 1.62-.052 3.033 3.033 0 0 0 .438-1.644z" transform="translate(-660.674 1098.345)"/>
        <path id="Path_403" data-name="Path 403" class="cls-1" d="M922.2 308.424c-.1-.128-.176-.217-.247-.308a1.227 1.227 0 0 0-1.989.188 3.022 3.022 0 0 0-.338 1.153 3.834 3.834 0 0 0 .183 1.789 1.027 1.027 0 0 0 1.044.721c.163 0 .327 0 .489-.01a1.368 1.368 0 0 0 .889-.455v2.488a.166.166 0 0 1-.083.125 3.634 3.634 0 0 1-1.223.378 3.848 3.848 0 0 1-3.665-1.694 4.377 4.377 0 0 1-.476-1.717 8.634 8.634 0 0 1 .141-2.778 3.713 3.713 0 0 1 .95-1.893 3.755 3.755 0 0 1 2.268-.982 3.163 3.163 0 0 1 1.912.328c.081.042.153.071.152.194-.007.806-.007 1.615-.007 2.473z" transform="translate(-642.705 1098.183)"/>
        <g id="Group_204" data-name="Group 204" transform="translate(269 1397.5)">
            <path id="Path_101" data-name="Path 101" class="cls-1" d="M916.907 279.469c.763 0 1.526-.019 2.289 0a91.9 91.9 0 0 1 2.967.147c.864.054 1.728.113 2.589.2 1.048.108 2.095.23 3.137.383 1.2.177 2.4.36 3.6.6a40.722 40.722 0 0 1 8.064 2.394 17.217 17.217 0 0 1 4.244 2.459 6.546 6.546 0 0 1 2.113 2.712 3.889 3.889 0 0 1-.234 3.316 7.956 7.956 0 0 1-2.527 2.7 21.231 21.231 0 0 1-4.678 2.438 32.317 32.317 0 0 1-4.17 1.348c-1.427.348-2.859.687-4.3.952s-2.93.466-4.4.648c-1.227.152-2.46.253-3.693.35-.837.066-1.677.1-2.517.124a133.25 133.25 0 0 1-3.284.074q-1.241.011-2.483-.039a93.101 93.101 0 0 1-3.257-.188c-1.2-.091-2.4-.183-3.6-.332-1.342-.167-2.677-.389-4.012-.605a43.863 43.863 0 0 1-4.981-1.135 30.676 30.676 0 0 1-6.091-2.385 12.856 12.856 0 0 1-3.185-2.274 5.34 5.34 0 0 1-1.393-2.208 3.871 3.871 0 0 1 .3-2.989 8.087 8.087 0 0 1 2.749-2.858 21.133 21.133 0 0 1 3.726-2 34.041 34.041 0 0 1 5.434-1.808 79.074 79.074 0 0 1 4.594-.971c1.42-.255 2.855-.439 4.287-.617a50.587 50.587 0 0 1 2.86-.249 92.02 92.02 0 0 1 3.279-.167c.86-.027 1.72-.005 2.581-.005zm-3.389 1.107v.021h-.176c-1.143.075-2.287.14-3.429.232-.986.08-1.973.162-2.953.3q-2.079.283-4.146.645a44.538 44.538 0 0 0-6.2 1.55 23.352 23.352 0 0 0-5.537 2.533 7.306 7.306 0 0 0-2.558 2.506 3.24 3.24 0 0 0-.387 2.3 4.378 4.378 0 0 0 1.309 2.221 12.117 12.117 0 0 0 3.061 2.111 29.4 29.4 0 0 0 5.769 2.143 48.436 48.436 0 0 0 6.384 1.294q2.263.3 4.536.528c1 .1 2.013.15 3.02.2.95.045 1.9.084 2.852.075 1.811-.016 3.623-.042 5.433-.112 1.353-.052 2.7-.157 4.052-.279q1.574-.142 3.139-.385a96.116 96.116 0 0 0 4.131-.722 40.2 40.2 0 0 0 5.156-1.389 23.534 23.534 0 0 0 4.5-2.008 8.976 8.976 0 0 0 2.782-2.365 3.423 3.423 0 0 0 .5-3.516 5.6 5.6 0 0 0-1.738-2.154 15.844 15.844 0 0 0-3.814-2.2 34.212 34.212 0 0 0-5.059-1.656 59.862 59.862 0 0 0-8.725-1.489 72.805 72.805 0 0 0-3.583-.275q-2.176-.111-4.356-.141c-1.316-.022-2.64.018-3.963.033z" transform="translate(-886.924 -279.462)"/>
            <path id="Path_102" data-name="Path 102" class="cls-1" d="M1135.277 293.272a1.747 1.747 0 1 1 1.769 1.681 1.73 1.73 0 0 1-1.769-1.681zm1.727 1.38a1.393 1.393 0 1 0-1.328-1.4 1.351 1.351 0 0 0 1.324 1.4z" transform="translate(-1077.057 -288.735)"/>
            <path id="Path_103" data-name="Path 103" class="cls-1" d="M1084.916 308.931a6.336 6.336 0 0 1-.5 2.646 3.333 3.333 0 0 1-2.813 2.041 3.551 3.551 0 0 1-4.139-2.769 6.458 6.458 0 0 1 .14-4.045 3.458 3.458 0 0 1 2.911-2.269 3.97 3.97 0 0 1 2.706.513 3.314 3.314 0 0 1 1.49 2.182c.127.555.174 1.128.257 1.693zm-5.105-.122a2.858 2.858 0 0 0 .516 1.744.872.872 0 0 0 1.458.048 2.558 2.558 0 0 0 .532-1.442 2.518 2.518 0 0 0-.481-1.88.9.9 0 0 0-1.531 0 2.326 2.326 0 0 0-.495 1.53z" transform="translate(-1032.599 -298.621)"/>
            <path id="Path_105" data-name="Path 105" class="cls-1" d="M983.527 314.1c-.866 0-1.68 0-2.494-.008a.3.3 0 0 1-.2-.164c-.326-.723-.641-1.45-.958-2.176-.078-.179-.155-.358-.235-.535-.071-.157-.206-.194-.47-.151-.173.029-.126.158-.126.259q0 1.29.012 2.581c0 .136-.031.208-.18.207h-2.393v-.723q-.014-3.971-.033-7.942c0-.191.036-.255.244-.253 1.076.008 2.152-.007 3.228 0a4.322 4.322 0 0 1 1.8.37 2.128 2.128 0 0 1 1.349 1.517 2.9 2.9 0 0 1-.909 2.914c-.138.1-.279.188-.433.29zm-4.516-6.864c0 .6 0 1.2.006 1.808a.162.162 0 0 0 .123.1 3.85 3.85 0 0 0 .73-.185.7.7 0 0 0 .439-.662 1.056 1.056 0 0 0-1.298-1.062z" transform="translate(-955.463 -299.158)"/>
            <path id="Path_106" data-name="Path 106" class="cls-1" d="M1036.3 308.1v2.085h-2.067v1.387h2.209v2.076h-4.642v-.2l-.027-5.772c0-.919-.006-1.838-.017-2.757 0-.155.043-.2.2-.2.638.006 1.276 0 1.913 0 .775-.005 1.551-.009 2.326-.026.192 0 .244.06.24.246q-.016.782 0 1.565c0 .177-.065.223-.225.222-.606 0-1.213 0-1.819-.006-.153 0-.207.044-.2.2.01.319.012.64 0 .959-.007.184.063.23.239.227.614-.013 1.226-.006 1.87-.006z" transform="translate(-997.806 -298.775)"/>
            <path id="Path_107" data-name="Path 107" class="cls-1" d="M1057.893 307.731c-.051-.064-.093-.11-.127-.162a1.236 1.236 0 0 0-2.193.291 3.893 3.893 0 0 0-.038 2.749.993.993 0 0 0 1.021.7h.274a1.279 1.279 0 0 0 1.107-.518v.5c0 .659 0 1.318-.006 1.977a.25.25 0 0 1-.1.192 3.933 3.933 0 0 1-4.232-.549 2.861 2.861 0 0 1-1.021-1.882 8.259 8.259 0 0 1 .138-3.733 3.164 3.164 0 0 1 1.519-2.042 4.621 4.621 0 0 1 1.807-.507 3.055 3.055 0 0 1 1.749.359.242.242 0 0 1 .121.164c.008.8.007 1.592.006 2.387a.345.345 0 0 1-.025.074z" transform="translate(-1013.629 -298.809)"/>
            <path id="Path_109" data-name="Path 109" class="cls-1" d="M1010.987 304.7v2.14c-.343 0-.68-.005-1.017 0-.621.012-.518-.056-.516.521q.009 3.079.028 6.157c0 .1-.01.174-.142.173h-2.434c0-.09-.011-.171-.011-.253v-2.016c-.007-1.454-.018-2.908-.02-4.362 0-.159-.05-.2-.2-.2-.475.009-.95 0-1.434 0-.005-.056-.012-.093-.012-.131v-1.879c0-.108.014-.167.146-.167h5.479c.029.002.067.008.133.017z" transform="translate(-977.489 -298.772)"/>
            <path id="Path_110" data-name="Path 110" class="cls-1" d="M1141.322 296.588a.322.322 0 0 1-.443-.171 3.584 3.584 0 0 0-.334-.527.3.3 0 0 0-.218-.1c-.035 0-.093.122-.1.192-.013.2 0 .4 0 .618h-.314a.992.992 0 0 1-.028-.165v-1.584c0-.049.068-.139.1-.139a7.247 7.247 0 0 1 .915.033.415.415 0 0 1 .411.418c.023.341-.048.458-.345.57l-.139.053zm-.868-1.048a2.837 2.837 0 0 0 .3-.032.275.275 0 0 0 0-.545 3.854 3.854 0 0 0-.426-.022c-.028 0-.08.025-.081.041a2.081 2.081 0 0 0 0 .479c.01.044.161.063.207.079z" transform="translate(-1080.581 -291.135)"/>
        </g>
    </g>
</svg>
