<svg id="Group_203" data-name="Group 203" xmlns="http://www.w3.org/2000/svg" width="61.713" height="15.755" viewBox="0 0 61.713 15.755">
    <defs>
        <style>
            .cls-1{fill:#e8e8e8;fill-rule:evenodd}
        </style>
    </defs>
    <path id="Path_91" data-name="Path 91" class="cls-1" d="M614.375 290.892c-.383.1-.442.423-.442.878v9.724a3.242 3.242 0 0 0 .118 1.236c.236.325.59.26 1.032.26.56 0 7.342.033 7.578-.032a.588.588 0 0 0 .354-.26 11.24 11.24 0 0 0 .059-2.017v-8.326a2.966 2.966 0 0 0-.089-1.268c-.236-.293-.649-.228-1.062-.228-.823 0-7.341-.032-7.548.033z" transform="translate(-608.862 -290.78)"/>
    <path id="Path_92" data-name="Path 92" class="cls-1" d="M592.307 291.315v14.733a.783.783 0 0 0 .177.26c.088.13.118.1.236.2h3.686l.177-.13c.059-.032.088-.1.147-.162a10.521 10.521 0 0 0 .059-1.951v-12.1c0-.488.089-.878-.177-1.171-.236-.26-.708-.162-1.061-.162H593.1c-.236 0-.354-.033-.531.1s-.144.188-.262.383z" transform="translate(-592.307 -290.748)"/>
    <path id="Path_93" data-name="Path 93" class="cls-1" d="M672.164 297.164a31.418 31.418 0 0 1 3.509.033 2.191 2.191 0 0 1 0 4.228 31.439 31.439 0 0 1-3.509.033v-4.293zm0-5.464a16.624 16.624 0 0 1 1.8 0 10.246 10.246 0 0 1 1.74.033 2.217 2.217 0 0 1-.029 4.26 15.43 15.43 0 0 1-1.74.033c-.56 0-1.238.032-1.769 0V291.7zm-1.12 10.9c.236-.033 3.125 0 3.745 0a3.365 3.365 0 0 0 2.211-.46 3.323 3.323 0 0 0 .295-5.236l-.383-.325a3.928 3.928 0 0 0 .944-.911 3.216 3.216 0 0 0 .531-1.4 3.42 3.42 0 0 0-1.032-2.992 3.63 3.63 0 0 0-2.713-.715c-1.179 0-2.418-.033-3.6 0z" transform="translate(-652.586 -290.547)"/>
    <path id="Path_94" data-name="Path 94" class="cls-1" d="M744.93 307.008a1.576 1.576 0 0 1 1.71.651 4.2 4.2 0 0 1 .472 2.081c.059 1.626-.118 3.35-1.5 3.545-1.681.228-2.123-1.073-2.182-2.732-.059-1.366-.03-3.285 1.5-3.545zm-2.3 9.789a3.379 3.379 0 0 0 1.445.943 3.035 3.035 0 0 0 4.069-2.8c.118-.78.059-4 .059-5.008 0-1.659-.236-3.025-1.268-3.643a3.454 3.454 0 0 0-3.627.293 3.117 3.117 0 0 0-.8 1.659 10.161 10.161 0 0 0-.177 2.342c.088 1.3.236 2.83 1.474 3.447a2.408 2.408 0 0 0 3.037-.423 1.539 1.539 0 0 1 .265-.358 7.81 7.81 0 0 1-.118 2.049 1.889 1.889 0 0 1-2.418 1.5 3.023 3.023 0 0 1-1.3-.715 4.758 4.758 0 0 0-.641.717z" transform="translate(-707.159 -302.311)"/>
    <path id="Path_95" data-name="Path 95" class="cls-1" d="M614.353 348.3h8.347c.177-.162.383-.2.383-.65.029-.325 0-.683 0-1.041 0-.78.088-1.2-.8-1.2h-7.607c-.767 0-.737.488-.737 1.268 0 .325 0 .716.03 1.041a.638.638 0 0 0 .236.488z" transform="translate(-608.869 -332.547)"/>
    <path id="Path_96" data-name="Path 96" class="cls-1" d="M780.042 310.391a10.613 10.613 0 0 1-.088 1.691 1.978 1.978 0 0 1-2.123 1.236 1.952 1.952 0 0 1-1.15-.488 1.4 1.4 0 0 1 .324-2.244 2.636 2.636 0 0 1 1.445-.2 12.957 12.957 0 0 1 1.592 0zm-4.511-3.317a3.741 3.741 0 0 0 .354.358c.177.162.059.13.354.357a2.358 2.358 0 0 1 1.062-.748c.826-.293 2.123-.227 2.565.683a4.231 4.231 0 0 1 .177 1.756h-1.858a3.871 3.871 0 0 0-1.622.228 2.478 2.478 0 0 0-.943 3.61 1.764 1.764 0 0 0 .472.488 1.968 1.968 0 0 0 1 .455 4.788 4.788 0 0 0 3.126-.488c1.061-.781.885-1.789.885-3.057V308.7a2.967 2.967 0 0 0-.354-1.659c-.767-1.268-2.8-1.431-4.157-.845a2.3 2.3 0 0 0-1.062.878z" transform="translate(-732.335 -302.279)"/>
    <path id="Path_97" data-name="Path 97" class="cls-1" d="M716.215 305.869h-1.091c.03 1.561 0 3.09 0 4.651a3.551 3.551 0 0 1-.324 1.984 1.734 1.734 0 0 1-1.445.748 1.57 1.57 0 0 1-1.415-.748 2.97 2.97 0 0 1-.354-1.951c0-1.561-.03-3.122 0-4.683H710.5c-.03.26 0 2.439 0 2.894 0 .943-.03 1.952.029 2.862a2.571 2.571 0 0 0 2.8 2.7c1.769 0 2.654-.846 2.86-2.634.03-.39 0-3.707 0-4.358a11.953 11.953 0 0 1 .026-1.465z" transform="translate(-682.779 -302.277)"/>
    <path id="Path_98" data-name="Path 98" class="cls-1" d="M832.865 306.359v-1.008c-.649 0-1.268.1-1.651-.325s-.265-1.2-.265-1.886c0-1.431-.059-2.96 0-4.358h1.563v-.882a12.505 12.505 0 0 0-1.563 0v-2.439h-1.091c-.03.683 0 2.732 0 3.545v3.545c0 1.561-.236 3.317 1.445 3.74a8.282 8.282 0 0 0 1.562.068z" transform="translate(-774.159 -294.311)"/>
    <path id="Path_99" data-name="Path 99" class="cls-1" d="M812.741 306.359v-1.008c-.649 0-1.268.13-1.651-.325-.383-.423-.265-1.171-.265-1.886 0-1.431-.059-2.96 0-4.358h1.563v-.882h-1.563v-2.439h-1.091c-.03.553 0 1.2 0 1.756v5.334c0 1.561-.236 3.35 1.445 3.74a12.349 12.349 0 0 0 1.562.068z" transform="translate(-758.753 -294.311)"/>
    <path id="Path_100" data-name="Path 100" class="cls-1" d="M850.9 313.429v3.87h1.1v-7.545h-1.1z" transform="translate(-790.282 -305.251)"/>
    <path id="Rectangle_100" data-name="Rectangle 100" transform="translate(60.622 1.153)" style="fill:#e8e8e8" d="M0 0h1.091v1.203H0z"/>
</svg>
