<svg id="Group_227" data-name="Group 227" xmlns="http://www.w3.org/2000/svg" width="59.248" height="12.66" viewBox="0 0 59.248 12.66">
    <defs>
        <style>
            .cls-1{fill:#e8e8e8;fill-rule:evenodd}
        </style>
    </defs>
    <path id="Path_222" data-name="Path 222" class="cls-1" d="M1054 488.178c.375.47 1.426 3.277 1.677 3.33h2.018c.238-.046 1.34-2.878 1.677-3.275l.014 3.276 2.334-.014v-7.113l-2.826-.008a14.216 14.216 0 0 0-1.122 2.151 23.29 23.29 0 0 1-.539 1.1 9.628 9.628 0 0 1-.548 1.049l-2.047-4.295-2.878.008.013 7.122h2.225z" transform="translate(-1027.963 -484.009)"/>
    <path id="Path_223" data-name="Path 223" class="cls-1" d="m939.346 485.9-.011 1.681h1.965c-.378.958-2.023 1.137-3.1.648-3.081-1.394.057-5.214 2.8-3.29.376.264.228.247.849.243h2.2c-1.118-3.233-7.73-3.7-9.217.019a3.318 3.318 0 0 0 .769 3.612c1.782 2.03 6.915 2.144 8.283-.887.117-.259.6-1.79.277-2-.128-.081-4.289-.026-4.815-.026z" transform="translate(-934.578 -482.575)"/>
    <path id="Path_224" data-name="Path 224" class="cls-1" d="m1144.748 491.484 2.253.026.011-3.86a8.98 8.98 0 0 1 .877.975c.083.1.112.112.212.222l1.963 2.236c.142.157.242.425.493.425l2.1-.009.013-7.115-2.28-.009c0 .837.036 3.3-.015 3.962l-3.412-3.961h-2.218z" transform="translate(-1102.06 -484.009)"/>
    <path id="Path_225" data-name="Path 225" class="cls-1" d="M1189.059 491.508c.19-1.059-.091-2.72.051-3.846l1.119 1.259c.1.119.18.184.286.311l1.971 2.226a10.381 10.381 0 0 0 2.255.026c.071-1.145-.14-6.553.048-7.107h-2.317l-.011 3.958-1.706-1.955c-.389-.491-1.536-1.689-1.705-2l-2.226.01.013 7.122z" transform="translate(-1135.59 -484.009)"/>
    <path id="Path_226" data-name="Path 226" class="cls-1" d="M984.987 488.952a2.538 2.538 0 0 0 .985 1.989c1.5 1.109 5.968 1.054 5.968-1.935v-4.69c-.516 0-1.837-.046-2.263.027-.005 1.1 0 2.2 0 3.3 0 1.178.153 2.118-1.227 2.1s-1.155-.969-1.155-2.152v-3.264a21.175 21.175 0 0 0-2.308.019z" transform="translate(-974.749 -483.951)"/>
    <path id="Path_227" data-name="Path 227" class="cls-1" d="M1104.31 491.508c.206-.094.52-.963.641-1.176h2.519c.093.19.191.421.286.631.054.119.093.238.143.349.066.145.049.2.229.2l2.3-.008-2.953-7.125h-2.293c-.162 0-.216.238-.275.379l-1.377 3.15c-.256.624-1.48 3.253-1.556 3.6zm1.329-2.845.581-1.5a11.408 11.408 0 0 1 .579 1.505l-.2.016h-.764z" transform="translate(-1067.975 -484.009)"/>
    <path id="Path_228" data-name="Path 228" class="cls-1" d="M1021.643 486.071h1.662l.007 5.333 2.284-.022v-5.311a13.829 13.829 0 0 0 1.691-.026v-1.733c-.361-.121-4.867-.04-5.645-.04v1.8z" transform="translate(-1003.96 -483.907)"/>
    <path id="Path_229" data-name="Path 229" class="cls-1" d="M1048.7 529.241c.119.044.063-.03.236.249l.544.871c.732 1.181.518 1.164 1.376 1.1l.028-3.283-.642.013v2.24a7.629 7.629 0 0 1-.8-1.173c-.778-1.244-.5-1.09-1.327-1.091a28.1 28.1 0 0 0-.027 3.307h.611z" transform="translate(-1025.006 -518.901)"/>
    <path id="Path_230" data-name="Path 230" class="cls-1" d="M939.349 531.382a5.347 5.347 0 0 0 2.14-.136 1.81 1.81 0 0 0-.034-3.005 5.726 5.726 0 0 0-2.112-.118l.006 3.259zm.685-.525-.021-2.195c.99 0 1.558.042 1.568 1.117.01 1.055-.59 1.076-1.547 1.078z" transform="translate(-938.375 -518.834)"/>
    <path id="Path_231" data-name="Path 231" class="cls-1" d="M1019.421 529.889c.1 1.022-1.681 1.194-1.758-.252-.062-1.161 1.019-1.815 1.634-.877l.023.034.671.094c-.233-1.507-2.56-1.529-2.956.143a1.661 1.661 0 0 0 1.652 2.2 1.008 1.008 0 0 0 .69-.3l.088-.085c.094-.088.007-.017.1-.086.063.441.037.394.485.394v-1.749l-1.353.015v.458z" transform="translate(-1000.239 -518.589)"/>
    <path id="Path_232" data-name="Path 232" class="cls-1" d="M1077.492 529.512a1.628 1.628 0 1 0 3.247-.054 1.628 1.628 0 1 0-3.247.054zm1.372-1.16c1.34-.421 1.625 1.939.551 2.265-1.393.422-1.7-1.904-.551-2.265z" transform="translate(-1048.465 -518.567)"/>
    <path id="Path_233" data-name="Path 233" class="cls-1" d="M1212.6 530.152c.126.926.817 1.189 1.68 1.1 1.165-.12 1.256-1.086.947-1.544-.394-.585-1.778-.425-1.849-.925-.059-.408.474-.546.853-.427.291.091.228.129.357.352.117.2.249.121.648.119.208-1.087-1.83-1.378-2.383-.53a.86.86 0 0 0 .467 1.3c.743.3.794.072 1.391.549.06.824-1.108.783-1.393.216l-.128-.23z" transform="translate(-1156.132 -518.617)"/>
    <path id="Path_234" data-name="Path 234" class="cls-1" d="M1108.181 530.121c-.191 1.684 3.39 1.387 2.679-.275-.307-.717-1.339-.52-1.8-.869-.35-.265-.038-.655.359-.676.565-.03.585.18.773.519l.615-.047c.055-.709-.816-1.113-1.647-.951-.738.144-1.252.965-.652 1.544.446.43 1.716.371 1.76.9.032.382-.456.519-.842.468a.674.674 0 0 1-.449-.2c-.384-.41.184-.414-.796-.413z" transform="translate(-1072.915 -518.603)"/>
    <path id="Path_235" data-name="Path 235" class="cls-1" d="M1185.368 529.928c-.309 1.244-1.71.886-1.751-.339-.042-1.243 1.158-1.784 1.728-.663h.624c-.106-1.616-3.125-1.678-3.021.722.092 2.137 3.032 2.024 3.055.28z" transform="translate(-1132.5 -518.591)"/>
    <path id="Path_236" data-name="Path 236" class="cls-1" d="M988.124 531.458c.086-.215.132-.631.346-.745h1.145c.2.106.259.533.337.751l.7.022-1.251-3.325-.705-.008-1.224 3.315.648-.01zm.453-1.225a7.569 7.569 0 0 1 .483-1.306 9.57 9.57 0 0 1 .449 1.306z" transform="translate(-976.732 -518.896)"/>
    <path id="Path_237" data-name="Path 237" class="cls-1" d="M1135.725 528.794a3.425 3.425 0 0 1 .972-.041l.014 2.741.674-.011v-2.73a3.577 3.577 0 0 1 .993.041v-.6h-2.685z" transform="translate(-1094.844 -518.926)"/>
    <path id="Path_238" data-name="Path 238" class="cls-1" d="m969.347 531.507.674-.01.027-3.29-.714.01z" transform="translate(-962.275 -518.939)"/>
    <path id="Path_239" data-name="Path 239" class="cls-1" d="m1164.021 531.523.652-.022a32.425 32.425 0 0 1 .044-3.276l-.707.006z" transform="translate(-1117.41 -518.953)"/>
</svg>
