<svg id="Group_228" data-name="Group 228" xmlns="http://www.w3.org/2000/svg" width="59.247" height="12.736" viewBox="0 0 59.247 12.736">
    <defs>
        <style>
            .cls-1{fill:#e8e8e8;fill-rule:evenodd}
        </style>
    </defs>
    <path id="Path_240" data-name="Path 240" class="cls-1" d="M1548.061 489.6h1.438c2.455 0 3.745-1.44 3.745-3.93 0-2.364-1.248-3.7-3.58-3.7h-3.976v12.213h2.373V489.6zm0-2.064v-3.5h.6c1.522 0 2.153.279 2.153 1.729 0 1.355-.672 1.771-2.153 1.771z" transform="translate(-1531.216 -481.704)"/>
    <path id="Path_241" data-name="Path 241" class="cls-1" d="m1577.71 489.914 1.614-4.767 1.582 4.767zm-.383 1.938h4.186l.655 2.332h2.78l-4.346-12.213h-2.062l-4.665 12.213h2.8l.655-2.332z" transform="translate(-1553.079 -481.704)"/>
    <path id="Path_242" data-name="Path 242" class="cls-1" d="M1635.642 486.687h-5.206v2.159h2.44a2.551 2.551 0 0 1-2.588 2.419c-1.828 0-3.3-1.615-3.3-4.121 0-2.49 1.406-4.006 3.217-4.006a2.816 2.816 0 0 1 2.572 1.6l2.211-1.093a5.649 5.649 0 0 0-9-1.114 6.634 6.634 0 0 0-1.633 4.617 6.526 6.526 0 0 0 1.633 4.586 5.535 5.535 0 0 0 4.189 1.783 5.146 5.146 0 0 0 4.965-3.233 6.449 6.449 0 0 0 .534-2.8c0-.252-.016-.52-.032-.788z" transform="translate(-1592.231 -480.778)"/>
    <path id="Path_243" data-name="Path 243" class="cls-1" d="M1681.612 494.185h2.528v-12.213h-2.528v12.213z" transform="translate(-1636.644 -481.704)"/>
    <path id="Path_244" data-name="Path 244" class="cls-1" d="M1702.4 494.185h2.908a7.775 7.775 0 0 0 4.165-.772 6.878 6.878 0 0 0-.146-10.795 7.535 7.535 0 0 0-3.653-.646h-3.274v12.213zm3.551-9.866c2.338 0 3.478 1.261 3.478 3.736 0 2.49-1.169 3.887-3.478 3.887h-1.037v-7.623z" transform="translate(-1652.768 -481.704)"/>
    <path id="Path_245" data-name="Path 245" class="cls-1" d="M1520.281 522.041h-4.081a4.084 4.084 0 0 1 4.077-4.077v4.077z" transform="translate(-1508.347 -509.621)"/>
    <path id="Path_246" data-name="Path 246" class="cls-1" d="M1516.2 522.041h4.077v-4.077a4.084 4.084 0 0 0-4.077 4.077z" transform="translate(-1508.347 -509.621)"/>
    <path id="Path_247" data-name="Path 247" class="cls-1" d="M1520.281 522.041h-4.081a4.084 4.084 0 0 1 4.077-4.077v4.077z" transform="translate(-1508.347 -509.621)"/>
    <g id="Group_113" data-name="Group 113" transform="translate(0 .486)">
        <path id="Path_248" data-name="Path 248" class="cls-1" d="M1500.1 509.548h2.576a5.124 5.124 0 0 1 5.115-5.115v-2.576a7.705 7.705 0 0 0-7.691 7.691z" transform="translate(-1495.854 -497.614)"/>
        <path id="Path_249" data-name="Path 249" class="cls-1" d="M1481.184 482.944v11.934h2.446a9.506 9.506 0 0 1 9.488-9.488v-2.446z" transform="translate(-1481.184 -482.944)"/>
    </g>
</svg>
