<svg id="Group_230" data-name="Group 230" xmlns="http://www.w3.org/2000/svg" width="59.144" height="22.581" viewBox="0 0 59.144 22.581">
    <defs>
        <style>
            .cls-1{fill:#e8e8e8;fill-rule:evenodd}
        </style>
    </defs>
    <path id="Path_250" data-name="Path 250" class="cls-1" d="m111.257 681.045 1.349.051a68.958 68.958 0 0 1 0 7.416l-1.338.024.015 4.315h5.391l-.007-5.665 2.66-.015.006 5.672 5.372.007-.008-4.325h-1.309c-.133-.307-.115-7.136-.01-7.424l1.327-.019-.009-4.322-5.365.015.008 5.661h-2.662l-.013-5.706h-5.391z" transform="translate(-111.225 -675.383)"/>
    <path id="Path_251" data-name="Path 251" class="cls-1" d="M206.5 672.522c-.08.163-.552.085-.949.085-11.289 0-22.759-.079-34 0v1.936c8.619-.1 17.565 0 26.249 0h8.23c.559-.005.415.043.474.117l-.011 10.711 2.707-.006-.014-10.74c.129-.079-.187-.034.226-.082h2.456l-.011-1.945a17.069 17.069 0 0 1-2.65-.048l-.006-1.313-2.709-.017z" transform="translate(-156.709 -671.223)"/>
    <path id="Path_252" data-name="Path 252" class="cls-1" d="m191.736 692.407 1.986.006-.019 5.354h-1.973l.006-5.357zm1.985 8.68-5.455.083c-5.435 0-11.4.107-16.712 0v1.972l23.9-.034c1.268-1.076.983-1.05.983-2.409v-10.315c-1.78-.009-3.562 0-5.342 0-1.261 0-.966-.152-1.9.809-.321.33-.179 1.981-.179 2.524v4.01c0 1.248-.148.992.8 1.9.3.284.685.184 1.212.184.884 0 1.8-.024 2.682.007z" transform="translate(-156.71 -685.665)"/>
    <path id="Path_253" data-name="Path 253" class="cls-1" d="M174.2 692.419h1.986l.005 1.676-2-.021.006-1.654zm4.693 5.389-4.708-.018a5.481 5.481 0 0 1 .027-1.691h4.663l-.021-4.733a6.59 6.59 0 0 0-.726-.773c-.2-.2-.185-.207-.562-.214h-4.782c-.354.013-.353.058-.531.244s-.7.632-.751.833l-.023 7.039c.007.383.05.367.257.564 1.179 1.121.439.756 3.957.756h3.211z" transform="translate(-156.658 -685.676)"/>
    <path id="Path_254" data-name="Path 254" class="cls-1" d="m207.07 699.8 2.709-.008v-7.4h2v7.4l2.7-.007-.019-8.35a5.212 5.212 0 0 0-1.026-1.044c-.222-.08-5.837-.029-6.374-.034z" transform="translate(-183.499 -685.651)"/>
    <path id="Path_255" data-name="Path 255" class="cls-1" d="m282.875 695.991-.02 1.663-4.683.014v2c.628.1 4.115.027 5.233.027 1.44 0 .955.149 1.89-.751.193-.186.29-.2.3-.57v-3.531a1.214 1.214 0 0 0-.875-.874h-3.842l.005-1.679h4.707v-1.99a40.7 40.7 0 0 0-4.4-.034c-2.246 0-1.725-.252-2.662.672-.294.289-.366.224-.362.791.006.739 0 1.478 0 2.217 0 1.411-.154 1.231.433 1.827.3.3.307.227.857.222z" transform="translate(-237.12 -685.551)"/>
    <path id="Path_256" data-name="Path 256" class="cls-1" d="M325.847 748.962c.312 0 .6.034.571.4-.024.323-.287.362-.594.37l.023-.768zm-1.045 2.753h.991l-.012-1.273c.264.045.029-.016.126.124l.619 1.19h1.179l-.828-1.495c.288-.242.472-.278.581-.744a1.218 1.218 0 0 0-.23-1.047c-.46-.5-1.633-.351-2.4-.331z" transform="translate(-272.309 -729.219)"/>
    <path id="Path_257" data-name="Path 257" class="cls-1" d="M314.8 751h-1.07v-.537l1.058-.028.005-.8-1.057-.036-.006-.455 1.061-.017.042-.867-2.094.01v3.594l2.084-.005z" transform="translate(-263.211 -729.339)"/>
    <path id="Path_258" data-name="Path 258" class="cls-1" d="M206.3 678.648c-.059-.075.085-.123-.474-.117h-8.23c-8.684 0-17.63-.094-26.249 0v-1.936c11.239-.083 22.708 0 34 0 .4 0 .868.079.949-.084l-34.969.028a9.2 9.2 0 0 0 .026 2.064c2.18.1 6.29.007 8.69.007h21.848a39.684 39.684 0 0 1 4.409.038z" transform="translate(-156.498 -675.213)"/>
    <path id="Path_259" data-name="Path 259" class="cls-1" d="M271.771 751.9v-1.281l1.006-.016v-.806l-1-.028v-.548l.977-.017.026-.835-1.973-.005-.009 3.552z" transform="translate(-231.566 -729.413)"/>
    <path id="Path_260" data-name="Path 260" class="cls-1" d="M299.419 749.126h.769l.007 2.732h1.007l.014-2.733h.768v-.863l-2.536-.014z" transform="translate(-253.162 -729.318)"/>
    <path id="Path_261" data-name="Path 261" class="cls-1" d="m291.772 750.908.031-2.615h-1.016l.005 3.592h1.972l-.008-.857c-.468.004-.847.078-.984-.12z" transform="translate(-246.651 -729.36)"/>
    <path id="Path_262" data-name="Path 262" class="cls-1" d="m195.326 736.015-23.9.034v-1.972c5.313.112 11.277 0 16.712 0l5.455-.083-22.184.018-.026 2.076c1.9.106 4.062.011 5.969.011h17.285c.281.008.508.057.689-.084z" transform="translate(-156.577 -718.578)"/>
    <path id="Path_263" data-name="Path 263" class="cls-1" d="m282.406 751.859 1 .006.022-3.61-1-.006z" transform="translate(-240.329 -729.326)"/>
    <path id="Path_264" data-name="Path 264" class="cls-1" d="M341.823 677.09a.937.937 0 1 1 1.855-.269.937.937 0 0 1-1.855.269zm.493-1.325a1.262 1.262 0 1 0 .883 2.365 1.312 1.312 0 0 0 .763-1.6 1.232 1.232 0 0 0-1.645-.765z" transform="translate(-284.881 -674.576)"/>
    <path id="Path_265" data-name="Path 265" class="cls-1" d="m144.122 692.693.1.046c.346.07 5.032.027 5.3 0l.021-4.409-1.353-.014v-7.321h1.33l.019-4.419c-.062-.006-4.923-.079-5.267-.013-.287.055-.025-.009-.153.064l5.365-.015.009 4.322-1.327.019c-.1.288-.124 7.118.01 7.424h1.309l.008 4.325z" transform="translate(-136.016 -675.23)"/>
    <path id="Path_266" data-name="Path 266" class="cls-1" d="M116.576 706.079h-5.391l-.015-4.315 1.338-.024a68.962 68.962 0 0 0 0-7.416l-1.349-.051c.115.109-.046.049.141.1l1.2.008v7.325h-1.334l-.033 4.426z" transform="translate(-111.128 -688.608)"/>
    <path id="Path_267" data-name="Path 267" class="cls-1" d="m345.3 678.554-.022-.333.266-.012c0 .03.164.1.017.288-.063.082-.137.065-.262.058zm.117.363c.083.267.15.527.515.38l-.315-.546c.271-.212.318-.255.259-.648-.344-.181-.4-.119-.853-.151l-.005 1.076c.026.48-.051.2.163.291.074-.129.041.16.075-.225 0-.054-.007-.242-.007-.309z" transform="translate(-287.561 -676.298)"/>
    <path id="Path_268" data-name="Path 268" class="cls-1" d="m271.6 751.67-.981.016.009-3.552 1.973.005-.026.835c.18-.1.121-.507.09-.855a10.167 10.167 0 0 0-2.086-.014l-.016 3.614.828.03c.328-.042.094.01.209-.079z" transform="translate(-231.392 -729.183)"/>
    <path id="Path_269" data-name="Path 269" class="cls-1" d="M324.761 678.7h2.691l.04-2.049-2.71-.018a17.077 17.077 0 0 0 2.65.048l.011 1.945h-2.456c-.413.044-.097-.001-.226.074z" transform="translate(-272.279 -675.305)"/>
    <path id="Path_270" data-name="Path 270" class="cls-1" d="M324.8 758.9a2.043 2.043 0 0 0 1.027.045c.04-.3-.059-1 .078-1.189-.1-.14.138-.079-.126-.124l.012 1.273z" transform="translate(-272.309 -736.403)"/>
</svg>
