<svg id="Group_232" data-name="Group 232" xmlns="http://www.w3.org/2000/svg" width="58.426" height="15.673" viewBox="0 0 58.426 15.673">
    <defs>
        <style>
            .cls-1{fill:#e8e8e8;fill-rule:evenodd}
        </style>
    </defs>
    <path id="Path_276" data-name="Path 276" class="cls-1" d="M689.215 687.784a7.647 7.647 0 0 0-3.36-.523 7.423 7.423 0 0 0-1.681.279 7.83 7.83 0 1 0 7.937 12.815 7.769 7.769 0 0 0 2.043-5.779 7.848 7.848 0 0 0-4.939-6.792zm-7.082 12.125a6.418 6.418 0 0 1-.613-9.074 6.349 6.349 0 0 1 4.243-2.155 6.413 6.413 0 1 1-3.629 11.23z" transform="translate(-678.506 -687.229)"/>
    <path id="Path_277" data-name="Path 277" class="cls-1" d="M698.182 700.313a6.148 6.148 0 0 0-2.031-4.076 6.106 6.106 0 1 0 2.031 4.076zm-5.666 5.164a4.694 4.694 0 0 1-3.953-7.78 4.655 4.655 0 0 1 3.122-1.577 4.7 4.7 0 0 1 .83 9.356z" transform="translate(-684.254 -692.96)"/>
    <path id="Path_278" data-name="Path 278" class="cls-1" d="M766.874 697.826a12.467 12.467 0 0 0-1.384-.312c-.075.125-.14.317-.214.464s-.16.307-.255.46a5.674 5.674 0 0 1-.6.828 6.564 6.564 0 0 1-1.546 1.316 6.411 6.411 0 1 1 1.551-9.642 6.238 6.238 0 0 1 1.078 1.787 11.206 11.206 0 0 0 1.384-.32 6.044 6.044 0 0 0-.539-1.189 8.187 8.187 0 0 0-.715-1.047 7.851 7.851 0 0 0-4.319-2.7 8.1 8.1 0 0 0-3.22-.068 7.83 7.83 0 1 0 5.636 14.314 7.872 7.872 0 0 0 2.584-2.678 5.908 5.908 0 0 0 .559-1.213z" transform="translate(-734.837 -687.264)"/>
    <path id="Path_279" data-name="Path 279" class="cls-1" d="M814.257 705.633h1.512c.09-.266.231-.566.352-.834s.238-.544.357-.827c.232-.554.473-1.1.714-1.655.945-2.187 1.95-4.462 2.863-6.636l1.418-3.266c.031-.04.011-.016.043-.042.091.122 1.285 3.063 1.386 3.3.944 2.194 1.816 4.451 2.755 6.638.1.241 1.3 3.2 1.393 3.317l1.5.008c-.021-.213-2.774-6.726-2.866-6.956-.109-.271-2.815-6.838-2.9-6.929h-2.567c-.139.253-1.321 3.062-1.5 3.454-1.014 2.272-1.992 4.632-2.986 6.929-.247.571-.5 1.152-.746 1.731a15.882 15.882 0 0 0-.728 1.768z" transform="translate(-782.96 -690.705)"/>
    <path id="Path_280" data-name="Path 280" class="cls-1" d="M770.935 703.154c-.119-.044-1.314-.3-1.391-.3a5.3 5.3 0 0 1-.831 1.2 4.945 4.945 0 0 1-1.146.891 4.694 4.694 0 1 1 .042-8.2 4.774 4.774 0 0 1 1.963 2.138l1.383-.322a5.623 5.623 0 0 0-1.01-1.7 6.237 6.237 0 0 0-1.459-1.24 6.107 6.107 0 1 0-.042 10.457 6.173 6.173 0 0 0 1.47-1.231 5.631 5.631 0 0 0 1.021-1.693z" transform="translate(-740.598 -692.997)"/>
    <path id="Path_281" data-name="Path 281" class="cls-1" d="m881.957 691.6-.012 1.373c2.434.041 5.031.016 7.484.017 3.254 0 3.363 6.19.986 7.317a5.309 5.309 0 0 1-2.114.191h-2.313c-.744 0-1.587-.037-2.319.005-.038 1.283 0 3.012 0 4.381v.3l.009.244c.01.056 0 .03.019.066a10.944 10.944 0 0 0 1.388.017l.007-3.591 4.283-.011c2.831 0 4.087-2.562 4.095-5.1.009-2.654-1.315-5.239-3.985-5.239-.004.005-7.391-.023-7.528.03z" transform="translate(-835.042 -690.567)"/>
    <path id="Path_282" data-name="Path 282" class="cls-1" d="M889.643 700.572c.266.118.472.678.557 1.055a3.852 3.852 0 0 1-.329 2.721c-.156.231-.252.249-.58.249h-7.381l.008 6.714a10.28 10.28 0 0 0 1.408.011v-5.305c.247-.032 4.781-.008 5.36-.009.977 0 1.71.124 2.374-.884.983-1.493.912-4.642-.553-5.686a1.359 1.359 0 0 0-.793-.288l-3.891-.006c-1.267 0-2.6-.02-3.857.019a6.9 6.9 0 0 0-.026 1.338l7.616.006c.159.055.03-.007.087.065z" transform="translate(-835.016 -696.393)"/>
    <path id="Path_283" data-name="Path 283" class="cls-1" d="M822.307 710.257h1.52l2.863-6.645c.165-.376.327-.746.481-1.115a6.664 6.664 0 0 1 .51-1.094l3.687 8.848 1.5.005c-.013-.2-1.105-2.725-1.277-3.15-.834-2.074-1.759-4.154-2.587-6.229l-.972-2.33c-.093-.228-.219-.6-.328-.792-.089.054-.131.229-.185.356l-1.18 2.73c-.922 2.05-1.793 4.185-2.695 6.256-.096.236-1.31 2.985-1.337 3.16z" transform="translate(-789.154 -695.332)"/>
    <path id="Path_284" data-name="Path 284" class="cls-1" d="M774.965 708.549a9.821 9.821 0 0 0-1.382-.329 3.178 3.178 0 0 1-1.347 1.13 3.006 3.006 0 1 1 1.124-4.682 3.26 3.26 0 0 0 .277.358l1.364-.318a3.978 3.978 0 0 0-.742-1.105 4.488 4.488 0 0 0-1.06-.84 4.4 4.4 0 1 0 1.766 5.786z" transform="translate(-746.344 -698.75)"/>
    <path id="Path_285" data-name="Path 285" class="cls-1" d="M889.563 700.437c-.058-.074.072-.01-.087-.065l-7.616-.006a6.9 6.9 0 0 1 .026-1.338c1.257-.039 2.59-.018 3.857-.019l3.891.006-.2-.048h-.249c-.842 0-7.165-.009-7.339.019a7 7 0 0 0-.005 1.424c.578.008 7.415-.062 7.722.027z" transform="translate(-834.936 -696.258)"/>
</svg>
